<svg xmlns="http://www.w3.org/2000/svg" xmlns:xlink="http://www.w3.org/1999/xlink" width="16" height="16" viewBox="0 0 16 16" fill="current">
<path d="M8 13C8.00819 13 8.01636 12.9998 8.02453 12.9994C8.0327 12.999 8.04087 12.9984 8.04902 12.9976C8.05716 12.9968 8.06527 12.9958 8.07336 12.9946C8.08145 12.9934 8.08952 12.992 8.09755 12.9904C8.10556 12.9888 8.11355 12.987 8.12148 12.985C8.12942 12.983 8.13731 12.9808 8.14514 12.9785C8.15297 12.9761 8.16073 12.9735 8.16844 12.9708C8.17614 12.968 8.18378 12.9651 8.19134 12.9619C8.19891 12.9588 8.20639 12.9555 8.21378 12.952C8.22117 12.9485 8.22848 12.9448 8.2357 12.941C8.24291 12.9371 8.25003 12.9331 8.25705 12.9289C8.26406 12.9247 8.27098 12.9203 8.27778 12.9157C8.28458 12.9112 8.29127 12.9065 8.29784 12.9016C8.30442 12.8967 8.31087 12.8917 8.3172 12.8865C8.32353 12.8813 8.32972 12.876 8.33578 12.8705C8.34184 12.865 8.34776 12.8593 8.35355 12.8535C8.35934 12.8478 8.36498 12.8418 8.37047 12.8358C8.37597 12.8297 8.38131 12.8235 8.3865 12.8172C8.3917 12.8109 8.39673 12.8044 8.40161 12.7978C8.40648 12.7913 8.41119 12.7846 8.41573 12.7778C8.42028 12.771 8.42466 12.7641 8.42886 12.757C8.43306 12.75 8.43709 12.7429 8.44095 12.7357C8.44481 12.7285 8.4485 12.7212 8.452 12.7138C8.45548 12.7064 8.4588 12.6989 8.46194 12.6913C8.46508 12.6838 8.46802 12.6761 8.47077 12.6684C8.47353 12.6607 8.47609 12.653 8.47847 12.6451C8.48084 12.6373 8.48303 12.6294 8.48502 12.6215C8.487 12.6135 8.4888 12.6056 8.49039 12.5975C8.49198 12.5895 8.49339 12.5815 8.49459 12.5734C8.4958 12.5653 8.4968 12.5572 8.49759 12.549C8.49839 12.5409 8.499 12.5327 8.49939 12.5245C8.4998 12.5164 8.5 12.5082 8.5 12.5L8.5 8.5L12.5 8.5C12.5082 8.5 12.5164 8.4998 12.5245 8.49939C12.5327 8.499 12.5409 8.49839 12.549 8.49759C12.5572 8.4968 12.5653 8.4958 12.5734 8.49459C12.5815 8.49339 12.5895 8.49198 12.5975 8.49039C12.6056 8.4888 12.6135 8.487 12.6215 8.48502C12.6294 8.48303 12.6373 8.48084 12.6451 8.47847C12.653 8.47609 12.6607 8.47353 12.6684 8.47077C12.6761 8.46802 12.6838 8.46508 12.6913 8.46194C12.6989 8.4588 12.7064 8.45548 12.7138 8.452C12.7212 8.4485 12.7285 8.44481 12.7357 8.44095C12.7429 8.43709 12.75 8.43306 12.757 8.42886C12.7641 8.42466 12.771 8.42028 12.7778 8.41573C12.7846 8.41119 12.7913 8.40648 12.7978 8.40161C12.8044 8.39673 12.8109 8.3917 12.8172 8.3865C12.8235 8.38131 12.8297 8.37597 12.8358 8.37047C12.8418 8.36498 12.8478 8.35934 12.8535 8.35355C12.8593 8.34776 12.865 8.34184 12.8705 8.33578C12.876 8.32972 12.8813 8.32353 12.8865 8.3172C12.8917 8.31087 12.8967 8.30442 12.9016 8.29784C12.9065 8.29127 12.9112 8.28458 12.9157 8.27778C12.9203 8.27098 12.9247 8.26406 12.9289 8.25705C12.9331 8.25003 12.9371 8.24291 12.941 8.2357C12.9448 8.22848 12.9485 8.22117 12.952 8.21378C12.9555 8.20639 12.9588 8.19891 12.9619 8.19134C12.9651 8.18378 12.968 8.17614 12.9708 8.16844C12.9735 8.16073 12.9761 8.15297 12.9785 8.14514C12.9808 8.13731 12.983 8.12942 12.985 8.12148C12.987 8.11355 12.9888 8.10556 12.9904 8.09755C12.992 8.08952 12.9934 8.08145 12.9946 8.07336C12.9958 8.06527 12.9968 8.05716 12.9976 8.04902C12.9984 8.04087 12.999 8.0327 12.9994 8.02453C12.9998 8.01636 13 8.00819 13 8C13 7.99181 12.9998 7.98364 12.9994 7.97547C12.999 7.9673 12.9984 7.95913 12.9976 7.95098C12.9968 7.94284 12.9958 7.93473 12.9946 7.92664C12.9934 7.91855 12.992 7.91048 12.9904 7.90245C12.9888 7.89444 12.987 7.88645 12.985 7.87852C12.983 7.87058 12.9808 7.86269 12.9785 7.85486C12.9761 7.84703 12.9735 7.83925 12.9708 7.83155C12.968 7.82384 12.9651 7.81622 12.9619 7.80866C12.9588 7.80109 12.9555 7.79361 12.952 7.78622C12.9485 7.77883 12.9448 7.77152 12.941 7.7643C12.9371 7.75708 12.9331 7.74997 12.9289 7.74295C12.9247 7.73594 12.9203 7.72902 12.9157 7.72222C12.9112 7.71542 12.9065 7.70873 12.9016 7.70216C12.8967 7.69558 12.8917 7.68913 12.8865 7.6828C12.8813 7.67647 12.876 7.67028 12.8705 7.66422C12.865 7.65816 12.8593 7.65223 12.8535 7.64645C12.8478 7.64066 12.8418 7.63502 12.8358 7.62953C12.8297 7.62403 12.8235 7.61869 12.8172 7.6135C12.8109 7.6083 12.8044 7.60327 12.7978 7.59839C12.7913 7.59352 12.7846 7.58881 12.7778 7.58427C12.771 7.57972 12.7641 7.57534 12.757 7.57114C12.75 7.56694 12.7429 7.56291 12.7357 7.55905C12.7285 7.55519 12.7212 7.5515 12.7138 7.548C12.7064 7.5445 12.6989 7.54119 12.6913 7.53806C12.6838 7.53492 12.6761 7.53198 12.6684 7.52923C12.6607 7.52647 12.653 7.52391 12.6451 7.52153C12.6373 7.51916 12.6294 7.51697 12.6215 7.51498C12.6135 7.513 12.6056 7.5112 12.5975 7.50961C12.5895 7.50802 12.5815 7.50661 12.5734 7.50541C12.5653 7.5042 12.5572 7.5032 12.549 7.50241C12.5409 7.50161 12.5327 7.501 12.5245 7.50061C12.5164 7.5002 12.5082 7.5 12.5 7.5L8.5 7.5L8.5 3.5C8.5 3.49181 8.4998 3.48364 8.49939 3.47547C8.499 3.46729 8.49839 3.45913 8.49759 3.45098C8.4968 3.44285 8.4958 3.43473 8.49459 3.42664C8.49339 3.41855 8.49198 3.41048 8.49039 3.40245C8.4888 3.39443 8.487 3.38645 8.48502 3.37852C8.48303 3.37058 8.48084 3.36269 8.47847 3.35486C8.47609 3.34703 8.47353 3.33926 8.47077 3.33156C8.46802 3.32385 8.46508 3.31622 8.46194 3.30866C8.4588 3.30109 8.45548 3.29361 8.452 3.28622C8.4485 3.27882 8.44481 3.27152 8.44095 3.2643C8.43709 3.25708 8.43306 3.24996 8.42886 3.24295C8.42466 3.23593 8.42028 3.22902 8.41573 3.22222C8.41119 3.21542 8.40648 3.20873 8.40161 3.20216C8.39673 3.19558 8.3917 3.18913 8.3865 3.1828C8.38131 3.17647 8.37597 3.17028 8.37047 3.16422C8.36498 3.15816 8.35934 3.15223 8.35355 3.14645C8.34776 3.14066 8.34184 3.13502 8.33578 3.12953C8.32972 3.12403 8.32353 3.11869 8.3172 3.1135C8.31087 3.1083 8.30442 3.10327 8.29784 3.09839C8.29127 3.09352 8.28458 3.08881 8.27778 3.08427C8.27098 3.07972 8.26406 3.07535 8.25705 3.07114C8.25003 3.06693 8.24291 3.0629 8.2357 3.05905C8.22848 3.05518 8.22117 3.0515 8.21378 3.048C8.20639 3.0445 8.19891 3.04119 8.19134 3.03806C8.18378 3.03493 8.17614 3.03198 8.16844 3.02923C8.16073 3.02647 8.15297 3.02391 8.14514 3.02153C8.13731 3.01916 8.12942 3.01697 8.12148 3.01498C8.11355 3.01299 8.10556 3.0112 8.09755 3.00961C8.08952 3.00802 8.08145 3.00661 8.07336 3.00541C8.06527 3.00421 8.05716 3.00321 8.04902 3.00241C8.04087 3.0016 8.0327 3.00101 8.02453 3.00061C8.01636 3.0002 8.00819 3 8 3C7.99181 3 7.98364 3.0002 7.97547 3.00061C7.9673 3.00101 7.95913 3.0016 7.95098 3.00241C7.94284 3.00321 7.93473 3.00421 7.92664 3.00541C7.91855 3.00661 7.91048 3.00802 7.90245 3.00961C7.89444 3.0112 7.88645 3.01299 7.87852 3.01498C7.87058 3.01697 7.86269 3.01916 7.85486 3.02153C7.84703 3.02391 7.83925 3.02647 7.83155 3.02923C7.82384 3.03198 7.81622 3.03493 7.80866 3.03806C7.80109 3.04119 7.79361 3.0445 7.78622 3.048C7.77883 3.0515 7.77152 3.05518 7.7643 3.05905C7.75708 3.0629 7.74997 3.06693 7.74295 3.07114C7.73594 3.07535 7.72902 3.07972 7.72222 3.08427C7.71542 3.08881 7.70873 3.09352 7.70216 3.09839C7.69558 3.10327 7.68913 3.1083 7.6828 3.1135C7.67647 3.11869 7.67028 3.12403 7.66422 3.12953C7.65816 3.13502 7.65223 3.14066 7.64645 3.14645C7.64066 3.15223 7.63502 3.15816 7.62953 3.16422C7.62403 3.17028 7.61869 3.17647 7.6135 3.1828C7.6083 3.18913 7.60327 3.19558 7.59839 3.20216C7.59352 3.20873 7.58881 3.21542 7.58427 3.22222C7.57972 3.22902 7.57534 3.23593 7.57114 3.24295C7.56694 3.24996 7.56291 3.25708 7.55905 3.2643C7.55519 3.27152 7.5515 3.27882 7.548 3.28622C7.5445 3.29361 7.54119 3.30109 7.53806 3.30866C7.53492 3.31622 7.53198 3.32385 7.52923 3.33155C7.52647 3.33925 7.52391 3.34703 7.52153 3.35486C7.51916 3.36269 7.51697 3.37058 7.51498 3.37852C7.513 3.38645 7.5112 3.39443 7.50961 3.40245C7.50802 3.41048 7.50661 3.41855 7.50541 3.42664C7.5042 3.43473 7.5032 3.44285 7.50241 3.45098C7.50161 3.45913 7.501 3.46729 7.50061 3.47547C7.5002 3.48364 7.5 3.49181 7.5 3.5L7.5 7.5L3.5 7.5C3.49181 7.5 3.48364 7.5002 3.47547 7.50061C3.46729 7.501 3.45913 7.50161 3.45098 7.50241C3.44285 7.5032 3.43473 7.5042 3.42664 7.50541C3.41855 7.50661 3.41048 7.50802 3.40245 7.50961C3.39443 7.5112 3.38645 7.513 3.37852 7.51498C3.37058 7.51697 3.36269 7.51916 3.35486 7.52153C3.34703 7.52391 3.33926 7.52647 3.33156 7.52923C3.32385 7.53198 3.31622 7.53492 3.30866 7.53806C3.30109 7.54119 3.29361 7.5445 3.28622 7.548C3.27882 7.5515 3.27152 7.55519 3.2643 7.55905C3.25708 7.56291 3.24996 7.56694 3.24295 7.57114C3.23593 7.57534 3.22902 7.57972 3.22222 7.58427C3.21542 7.58881 3.20873 7.59352 3.20216 7.59839C3.19558 7.60327 3.18913 7.6083 3.1828 7.6135C3.17647 7.61869 3.17028 7.62403 3.16422 7.62953C3.15816 7.63502 3.15223 7.64066 3.14645 7.64645C3.14066 7.65223 3.13502 7.65816 3.12953 7.66422C3.12403 7.67028 3.11869 7.67647 3.1135 7.6828C3.1083 7.68913 3.10327 7.69558 3.09839 7.70216C3.09352 7.70873 3.08881 7.71542 3.08427 7.72222C3.07972 7.72902 3.07535 7.73594 3.07114 7.74295C3.06693 7.74997 3.0629 7.75708 3.05905 7.7643C3.05518 7.77152 3.0515 7.77883 3.048 7.78622C3.0445 7.79361 3.04119 7.80109 3.03806 7.80866C3.03493 7.81622 3.03198 7.82384 3.02923 7.83155C3.02647 7.83925 3.02391 7.84703 3.02153 7.85486C3.01916 7.86269 3.01697 7.87058 3.01498 7.87852C3.01299 7.88645 3.0112 7.89444 3.00961 7.90245C3.00802 7.91048 3.00661 7.91855 3.00541 7.92664C3.00421 7.93473 3.00321 7.94284 3.00241 7.95098C3.0016 7.95913 3.00101 7.9673 3.00061 7.97547C3.0002 7.98364 3 7.99181 3 8C3 8.00819 3.0002 8.01636 3.00061 8.02453C3.00101 8.0327 3.0016 8.04087 3.00241 8.04902C3.00321 8.05716 3.00421 8.06527 3.00541 8.07336C3.00661 8.08145 3.00802 8.08952 3.00961 8.09755C3.0112 8.10556 3.01299 8.11355 3.01498 8.12148C3.01697 8.12942 3.01916 8.13731 3.02153 8.14514C3.02391 8.15297 3.02647 8.16073 3.02923 8.16844C3.03198 8.17614 3.03493 8.18378 3.03806 8.19134C3.04119 8.19891 3.0445 8.20639 3.048 8.21378C3.0515 8.22117 3.05518 8.22848 3.05905 8.2357C3.0629 8.24291 3.06693 8.25003 3.07114 8.25705C3.07535 8.26406 3.07972 8.27098 3.08427 8.27778C3.08881 8.28458 3.09352 8.29127 3.09839 8.29784C3.10327 8.30442 3.1083 8.31087 3.1135 8.3172C3.11869 8.32353 3.12403 8.32972 3.12953 8.33578C3.13502 8.34184 3.14066 8.34776 3.14645 8.35355C3.15223 8.35934 3.15816 8.36498 3.16422 8.37047C3.17028 8.37597 3.17647 8.38131 3.1828 8.3865C3.18913 8.3917 3.19558 8.39673 3.20216 8.40161C3.20873 8.40648 3.21542 8.41119 3.22222 8.41573C3.22902 8.42028 3.23593 8.42466 3.24295 8.42886C3.24996 8.43306 3.25708 8.43709 3.2643 8.44095C3.27152 8.44481 3.27882 8.4485 3.28622 8.452C3.29361 8.45548 3.30109 8.4588 3.30866 8.46194C3.31622 8.46508 3.32385 8.46802 3.33155 8.47077C3.33925 8.47353 3.34703 8.47609 3.35486 8.47847C3.36269 8.48084 3.37058 8.48303 3.37852 8.48502C3.38645 8.487 3.39443 8.4888 3.40245 8.49039C3.41048 8.49198 3.41855 8.49339 3.42664 8.49459C3.43473 8.4958 3.44285 8.4968 3.45098 8.49759C3.45913 8.49839 3.46729 8.499 3.47547 8.49939C3.48364 8.4998 3.49181 8.5 3.5 8.5L7.5 8.5L7.5 12.5C7.5 12.5082 7.5002 12.5164 7.50061 12.5245C7.501 12.5327 7.50161 12.5409 7.50241 12.549C7.5032 12.5572 7.5042 12.5653 7.50541 12.5734C7.50661 12.5815 7.50802 12.5895 7.50961 12.5975C7.5112 12.6056 7.513 12.6135 7.51498 12.6215C7.51697 12.6294 7.51916 12.6373 7.52153 12.6451C7.52391 12.653 7.52647 12.6607 7.52923 12.6684C7.53198 12.6761 7.53492 12.6838 7.53806 12.6913C7.54119 12.6989 7.5445 12.7064 7.548 12.7138C7.5515 12.7212 7.55519 12.7285 7.55905 12.7357C7.56291 12.7429 7.56694 12.75 7.57114 12.757C7.57534 12.7641 7.57972 12.771 7.58427 12.7778C7.58881 12.7846 7.59352 12.7913 7.59839 12.7978C7.60327 12.8044 7.6083 12.8109 7.6135 12.8172C7.61869 12.8235 7.62403 12.8297 7.62953 12.8358C7.63502 12.8418 7.64066 12.8478 7.64645 12.8535C7.65223 12.8593 7.65816 12.865 7.66422 12.8705C7.67028 12.876 7.67647 12.8813 7.6828 12.8865C7.68913 12.8917 7.69558 12.8967 7.70216 12.9016C7.70873 12.9065 7.71542 12.9112 7.72222 12.9157C7.72902 12.9203 7.73594 12.9247 7.74295 12.9289C7.74997 12.9331 7.75708 12.9371 7.7643 12.941C7.77152 12.9448 7.77883 12.9485 7.78622 12.952C7.79361 12.9555 7.80109 12.9588 7.80866 12.9619C7.81622 12.9651 7.82384 12.968 7.83155 12.9708C7.83925 12.9735 7.84703 12.9761 7.85486 12.9785C7.86269 12.9808 7.87058 12.983 7.87852 12.985C7.88645 12.987 7.89444 12.9888 7.90245 12.9904C7.91048 12.992 7.91855 12.9934 7.92664 12.9946C7.93473 12.9958 7.94284 12.9968 7.95098 12.9976C7.95913 12.9984 7.9673 12.999 7.97547 12.9994C7.98364 12.9998 7.99181 13 8 13Z" >
</path>
</svg>
