<svg xmlns="http://www.w3.org/2000/svg" xmlns:xlink="http://www.w3.org/1999/xlink" width="16" height="15.238037109375" viewBox="0 0 16 15.238037109375" fill="none">
<path d="M3.92913 13.6347C3.91896 13.6347 3.90881 13.6344 3.89867 13.6339C3.88851 13.6334 3.87838 13.6327 3.86827 13.6316C3.85816 13.6306 3.84808 13.6293 3.83803 13.6278C3.82798 13.6263 3.81798 13.6245 3.80803 13.6225C3.79806 13.6205 3.78816 13.6183 3.77831 13.6157C3.76846 13.6132 3.75869 13.6105 3.74898 13.6075C3.73927 13.6045 3.72964 13.6013 3.72009 13.5978C3.71054 13.5943 3.70108 13.5906 3.6917 13.5867C3.68234 13.5828 3.67308 13.5786 3.66391 13.5742C3.65476 13.5698 3.64571 13.5652 3.63678 13.5603C3.62785 13.5555 3.61904 13.5504 3.61037 13.5451C3.60169 13.5398 3.59314 13.5343 3.58474 13.5286C3.57633 13.5229 3.56806 13.517 3.55996 13.5109C3.55184 13.5048 3.54388 13.4985 3.53609 13.4919C3.52829 13.4854 3.52065 13.4787 3.51318 13.4718C3.50572 13.4649 3.49842 13.4579 3.4913 13.4506C3.48419 13.4434 3.47726 13.4359 3.4705 13.4283C3.46376 13.4207 3.4572 13.413 3.45084 13.4051C3.44448 13.3971 3.43832 13.3891 3.43235 13.3808C3.42639 13.3726 3.42064 13.3642 3.4151 13.3557C3.40954 13.3472 3.40421 13.3386 3.3991 13.3298C3.39398 13.321 3.38908 13.3121 3.3844 13.3031C3.37973 13.2941 3.37528 13.2849 3.37105 13.2757C3.36682 13.2664 3.36283 13.2571 3.35908 13.2477C3.35532 13.2382 3.35179 13.2287 3.3485 13.2191C3.34521 13.2095 3.34217 13.1998 3.33936 13.19C3.33656 13.1802 3.33399 13.1704 3.33167 13.1605C3.32936 13.1506 3.32729 13.1407 3.32547 13.1307C3.32364 13.1207 3.32206 13.1106 3.32074 13.1006C3.31941 13.0905 3.31833 13.0804 3.31751 13.0703C3.31668 13.0602 3.3161 13.05 3.31578 13.0398C3.31546 13.0297 3.31539 13.0195 3.31557 13.0094L3.31557 9.81518C3.31405 9.80415 3.31282 9.79312 3.31188 9.78203C3.31094 9.77097 3.3103 9.75987 3.30997 9.74876C3.30962 9.73765 3.30957 9.72654 3.30982 9.71543C3.31008 9.70432 3.31063 9.69321 3.31147 9.68211C3.31231 9.67104 3.31346 9.65998 3.31489 9.64897C3.31632 9.63795 3.31805 9.62695 3.32007 9.61604C3.32209 9.60509 3.3244 9.59423 3.32701 9.58341C3.3296 9.57261 3.33249 9.56189 3.33566 9.55124C3.33884 9.54058 3.3423 9.53002 3.34603 9.51955C3.34976 9.50909 3.35378 9.49872 3.35807 9.48845C3.36236 9.47821 3.36692 9.46808 3.37176 9.45808C3.37659 9.44806 3.38168 9.43818 3.38704 9.42845C3.3924 9.4187 3.39801 9.40912 3.40388 9.39968C3.40976 9.39023 3.41588 9.38095 3.42225 9.37184C3.42861 9.36273 3.43521 9.3538 3.44206 9.34504C3.4489 9.33627 3.45597 9.32771 3.46327 9.31934C3.47058 9.31095 3.4781 9.30276 3.48584 9.29478C3.49358 9.28681 3.50153 9.27903 3.50967 9.27147C3.51783 9.26392 3.52618 9.25658 3.53473 9.24949C3.54327 9.24238 3.55199 9.23549 3.5609 9.22884C3.56982 9.2222 3.57891 9.2158 3.58816 9.20965C3.59742 9.20349 3.60682 9.19758 3.61638 9.19192C3.62596 9.18627 3.63567 9.18086 3.64553 9.17574C3.65538 9.1706 3.66537 9.16572 3.6755 9.16112C3.68561 9.15651 3.69584 9.15218 3.70619 9.14812C3.71654 9.14406 3.72699 9.14029 3.73754 9.13679C3.74809 9.13328 3.75873 9.13008 3.76945 9.12715C3.78018 9.12421 3.79097 9.12156 3.80184 9.11919C3.8127 9.11685 3.82362 9.11479 3.83459 9.11301C3.84556 9.11123 3.85658 9.10977 3.86763 9.10858C3.87868 9.10738 3.88976 9.10651 3.90086 9.10592C3.91196 9.10531 3.92307 9.10503 3.93418 9.10503C3.9453 9.10503 3.95641 9.10531 3.96751 9.10592C3.97861 9.10651 3.98969 9.10738 4.00074 9.10858C4.0118 9.10977 4.0228 9.11123 4.03378 9.11301C4.04474 9.11479 4.05566 9.11685 4.06654 9.11919C4.0774 9.12156 4.0882 9.12421 4.09892 9.12715C4.10963 9.13008 4.12027 9.13328 4.13082 9.13679C4.14137 9.14029 4.15183 9.14406 4.16218 9.14812C4.17252 9.15218 4.18274 9.15651 4.19288 9.16112C4.20298 9.16571 4.21297 9.17058 4.22283 9.17574C4.23269 9.18086 4.2424 9.18627 4.25197 9.19192C4.26154 9.19758 4.27095 9.20349 4.28021 9.20965C4.28946 9.2158 4.29854 9.2222 4.30746 9.22884C4.31637 9.23549 4.3251 9.24238 4.33365 9.24949C4.34218 9.25658 4.35054 9.26392 4.3587 9.27147C4.36685 9.27903 4.37479 9.28681 4.38254 9.29478C4.39027 9.30276 4.39778 9.31095 4.40509 9.31934C4.41239 9.32771 4.41947 9.33627 4.42632 9.34504C4.43314 9.3538 4.43975 9.36273 4.44612 9.37184C4.45249 9.38095 4.45861 9.39023 4.46448 9.39968C4.47034 9.40912 4.47596 9.4187 4.48132 9.42845C4.48669 9.43818 4.49178 9.44805 4.49661 9.45805C4.50144 9.46807 4.506 9.47821 4.5103 9.48845C4.51458 9.49872 4.5186 9.50909 4.52234 9.51955C4.52608 9.53002 4.52953 9.54058 4.5327 9.55124C4.53587 9.56189 4.53876 9.57261 4.54137 9.58341C4.54396 9.59423 4.54627 9.60509 4.5483 9.61604C4.55031 9.62695 4.55205 9.63795 4.55349 9.64897C4.55491 9.65998 4.55605 9.67104 4.55689 9.68211C4.55774 9.69321 4.55829 9.70432 4.55854 9.71543C4.55879 9.72654 4.55874 9.73765 4.5584 9.74876C4.55805 9.75987 4.55741 9.77097 4.55649 9.78203C4.55554 9.79312 4.55432 9.80415 4.5528 9.81518L4.5528 13.0094C4.55283 13.0196 4.5526 13.0298 4.55212 13.04C4.55165 13.0502 4.55092 13.0604 4.54996 13.0706C4.54898 13.0808 4.54775 13.0909 4.54627 13.1011C4.54479 13.1112 4.54307 13.1213 4.5411 13.1313C4.53913 13.1413 4.53692 13.1513 4.53446 13.1612C4.53199 13.1711 4.52928 13.181 4.52634 13.1908C4.5234 13.2006 4.52021 13.2103 4.51679 13.2199C4.51335 13.2296 4.50969 13.2391 4.50581 13.2486C4.50191 13.258 4.4978 13.2674 4.49344 13.2766C4.48909 13.2859 4.48451 13.295 4.47971 13.304C4.47491 13.3131 4.46989 13.322 4.46464 13.3307C4.4594 13.3395 4.45394 13.3482 4.44829 13.3567C4.44261 13.3652 4.43674 13.3735 4.43067 13.3818C4.42458 13.39 4.4183 13.3981 4.41184 13.406C4.40535 13.4139 4.39869 13.4216 4.39184 13.4292C4.38498 13.4368 4.37794 13.4442 4.37073 13.4515C4.3635 13.4587 4.35611 13.4658 4.34855 13.4726C4.34098 13.4795 4.33325 13.4862 4.32535 13.4927C4.31746 13.4992 4.30941 13.5055 4.3012 13.5116C4.293 13.5177 4.28464 13.5236 4.27615 13.5293C4.26765 13.535 4.25903 13.5404 4.25026 13.5457C4.24149 13.551 4.2326 13.556 4.22359 13.5609C4.21458 13.5657 4.20546 13.5703 4.19621 13.5747C4.18697 13.579 4.17763 13.5832 4.16818 13.5871C4.15873 13.591 4.1492 13.5947 4.13959 13.5982C4.12996 13.6016 4.12026 13.6048 4.11048 13.6078C4.10069 13.6108 4.09083 13.6135 4.08092 13.616C4.071 13.6185 4.06103 13.6207 4.05101 13.6227C4.04098 13.6247 4.03091 13.6264 4.0208 13.6279C4.01069 13.6295 4.00054 13.6307 3.99036 13.6317C3.98018 13.6327 3.96999 13.6335 3.95978 13.634C3.94956 13.6345 3.93935 13.6347 3.92913 13.6347ZM7.00618 13.6347C6.99602 13.6347 6.98589 13.6344 6.97575 13.6339C6.9656 13.6334 6.95549 13.6326 6.9454 13.6316C6.93529 13.6305 6.92522 13.6292 6.91519 13.6277C6.90514 13.6262 6.89514 13.6244 6.8852 13.6224C6.87525 13.6204 6.86537 13.6181 6.85553 13.6156C6.84569 13.613 6.83592 13.6103 6.82623 13.6073C6.81652 13.6043 6.80691 13.6011 6.79737 13.5976C6.78783 13.5941 6.77837 13.5904 6.76903 13.5864C6.75966 13.5825 6.75042 13.5783 6.74128 13.5739C6.73212 13.5695 6.72309 13.5649 6.71417 13.56C6.70525 13.5552 6.69645 13.5501 6.6878 13.5448C6.67911 13.5395 6.67058 13.534 6.6622 13.5283C6.6538 13.5226 6.64554 13.5167 6.63746 13.5106C6.62935 13.5045 6.62141 13.4982 6.61362 13.4916C6.60583 13.4851 6.59821 13.4784 6.59076 13.4715C6.58329 13.4646 6.57602 13.4576 6.56892 13.4503C6.56181 13.4431 6.55488 13.4356 6.54815 13.4281C6.54141 13.4205 6.53486 13.4127 6.52852 13.4048C6.52215 13.3969 6.516 13.3888 6.51006 13.3806C6.50411 13.3723 6.49836 13.364 6.49282 13.3555C6.48728 13.347 6.48194 13.3383 6.47685 13.3295C6.47174 13.3208 6.46685 13.3119 6.46218 13.3028C6.4575 13.2938 6.45307 13.2847 6.44886 13.2755C6.44464 13.2662 6.44066 13.2569 6.43691 13.2475C6.43314 13.238 6.42963 13.2285 6.42634 13.2189C6.42306 13.2093 6.42002 13.1996 6.41722 13.1899C6.41442 13.1801 6.41187 13.1703 6.40956 13.1604C6.40723 13.1505 6.40516 13.1406 6.40335 13.1306C6.40152 13.1206 6.39994 13.1106 6.39863 13.1005C6.39729 13.0904 6.39623 13.0803 6.39541 13.0702C6.39458 13.0601 6.394 13.05 6.39368 13.0398C6.39335 13.0297 6.39329 13.0195 6.39347 13.0094L6.39347 7.95091C6.39466 7.94161 6.39606 7.93232 6.39768 7.92309C6.39928 7.91384 6.4011 7.90466 6.40313 7.8955C6.40514 7.88633 6.40738 7.87723 6.40983 7.86818C6.41226 7.85912 6.41489 7.85012 6.41774 7.84119C6.42058 7.83224 6.42362 7.82337 6.42686 7.81457C6.43009 7.80577 6.43353 7.79704 6.43717 7.78841C6.4408 7.77975 6.44464 7.77121 6.44867 7.76272C6.45269 7.75426 6.45689 7.74587 6.46129 7.73759C6.46569 7.72931 6.47027 7.72113 6.47504 7.71306C6.47981 7.70498 6.48476 7.69701 6.48989 7.68918C6.49501 7.68131 6.50031 7.67359 6.5058 7.66596C6.51128 7.65836 6.51692 7.65086 6.52273 7.6435C6.52854 7.63615 6.53452 7.62892 6.54067 7.62184C6.5468 7.61475 6.5531 7.6078 6.55956 7.60098C6.566 7.59418 6.57261 7.58753 6.57937 7.58101C6.58612 7.57451 6.59301 7.56817 6.60006 7.56198C6.6071 7.55578 6.61427 7.54974 6.62159 7.54387C6.62889 7.53801 6.63633 7.53229 6.64392 7.52676C6.65147 7.52122 6.65916 7.51586 6.66698 7.51067C6.67479 7.50547 6.68271 7.50046 6.69076 7.49564C6.69879 7.49081 6.70694 7.48615 6.71519 7.48169C6.72343 7.47722 6.73178 7.47295 6.74023 7.46886C6.74866 7.46478 6.75719 7.46088 6.76581 7.45718C6.77442 7.45347 6.78311 7.44996 6.79189 7.44666C6.80066 7.44334 6.80951 7.44023 6.81843 7.43732C6.82734 7.43441 6.83632 7.43169 6.84535 7.42919C6.85439 7.42667 6.86347 7.42438 6.87263 7.42229C6.88175 7.42018 6.89094 7.4183 6.90017 7.41661C6.9094 7.41492 6.91866 7.41346 6.92794 7.4122C6.93723 7.41092 6.94655 7.40987 6.9559 7.40903C6.96523 7.40818 6.9746 7.40755 6.98396 7.40712C6.99332 7.4067 7.0027 7.40648 7.01209 7.40648C7.02146 7.40648 7.03083 7.4067 7.04021 7.40712C7.04957 7.40755 7.05892 7.40818 7.06827 7.40903C7.0776 7.40987 7.08692 7.41092 7.09623 7.4122C7.10552 7.41346 7.11477 7.41492 7.124 7.41661C7.13322 7.4183 7.1424 7.42018 7.15154 7.42229C7.16069 7.42438 7.16978 7.42667 7.17882 7.42919C7.18786 7.43169 7.19683 7.43441 7.20575 7.43732C7.21466 7.44023 7.2235 7.44334 7.23229 7.44666C7.24106 7.44996 7.24975 7.45347 7.25837 7.45718C7.26698 7.46088 7.27552 7.46478 7.28396 7.46886C7.29239 7.47295 7.30073 7.47722 7.30898 7.48169C7.31722 7.48615 7.32537 7.49081 7.33341 7.49564C7.34144 7.50046 7.34937 7.50547 7.35719 7.51067C7.365 7.51586 7.37269 7.52122 7.38026 7.52676C7.38783 7.53229 7.39526 7.53801 7.40258 7.54387C7.4099 7.54974 7.41707 7.55578 7.42411 7.56198C7.43114 7.56817 7.43805 7.57452 7.4448 7.58101C7.45156 7.58753 7.45815 7.59418 7.46461 7.60098C7.47107 7.6078 7.47737 7.61475 7.48352 7.62184C7.48965 7.62892 7.49562 7.63615 7.50144 7.6435C7.50725 7.65086 7.51289 7.65836 7.51837 7.66596C7.52386 7.67359 7.52916 7.68131 7.53429 7.68918C7.53941 7.69701 7.54436 7.70498 7.54913 7.71306C7.5539 7.72113 7.55848 7.72931 7.56288 7.73759C7.56726 7.74587 7.57149 7.75426 7.57552 7.76272C7.57953 7.77121 7.58335 7.77975 7.587 7.78841C7.59063 7.79704 7.59406 7.80577 7.59731 7.81457C7.60054 7.82337 7.60359 7.83224 7.60643 7.84119C7.60928 7.85012 7.61192 7.85912 7.61436 7.86818C7.61679 7.87723 7.61901 7.88633 7.62104 7.8955C7.62306 7.90466 7.62488 7.91384 7.62649 7.92309C7.62809 7.93232 7.6295 7.94161 7.6307 7.95091L7.6307 12.9993C7.63089 13.0096 7.63083 13.0199 7.63052 13.0302C7.6302 13.0406 7.62962 13.0509 7.62879 13.0612C7.62796 13.0715 7.62688 13.0817 7.62554 13.092C7.6242 13.1022 7.6226 13.1124 7.62076 13.1226C7.61891 13.1328 7.6168 13.1429 7.61446 13.1529C7.61211 13.163 7.60952 13.173 7.60667 13.1829C7.60381 13.1929 7.60072 13.2027 7.59738 13.2125C7.59405 13.2223 7.59048 13.2319 7.58666 13.2416C7.58283 13.2512 7.57877 13.2607 7.57449 13.2701C7.5702 13.2795 7.56568 13.2887 7.56094 13.2979C7.55618 13.3071 7.5512 13.3161 7.546 13.3251C7.54079 13.334 7.53537 13.3428 7.52974 13.3514C7.52411 13.3601 7.51826 13.3686 7.5122 13.377C7.50612 13.3853 7.49986 13.3935 7.4934 13.4016C7.48692 13.4096 7.48026 13.4175 7.4734 13.4253C7.46654 13.433 7.45949 13.4405 7.45226 13.4479C7.44501 13.4553 7.4376 13.4625 7.43002 13.4695C7.42242 13.4765 7.41466 13.4833 7.40673 13.4899C7.39879 13.4965 7.39069 13.503 7.38245 13.5092C7.3742 13.5154 7.3658 13.5214 7.35725 13.5272C7.34869 13.533 7.34 13.5386 7.33119 13.5439C7.32236 13.5493 7.3134 13.5545 7.30432 13.5594C7.29523 13.5643 7.28603 13.569 7.27671 13.5735C7.2674 13.5779 7.25797 13.5822 7.24845 13.5861C7.23892 13.5901 7.22931 13.5939 7.21959 13.5974C7.20987 13.601 7.20008 13.6042 7.19021 13.6073C7.18033 13.6103 7.17039 13.6131 7.16037 13.6156C7.15036 13.6182 7.14029 13.6204 7.13017 13.6225C7.12003 13.6245 7.10986 13.6263 7.09965 13.6278C7.08943 13.6294 7.07917 13.6306 7.06891 13.6317C7.05863 13.6327 7.04832 13.6335 7.038 13.634C7.02768 13.6345 7.01735 13.6347 7.00703 13.6347L7.00618 13.6347ZM10.0841 13.6347C10.0739 13.6347 10.0638 13.6344 10.0536 13.6339C10.0435 13.6334 10.0334 13.6326 10.0233 13.6316C10.0132 13.6305 10.0031 13.6292 9.99309 13.6277C9.98304 13.6262 9.97306 13.6244 9.9631 13.6224C9.95314 13.6204 9.94326 13.6181 9.93343 13.6156C9.92359 13.6131 9.91381 13.6103 9.90412 13.6073C9.89442 13.6043 9.8848 13.6011 9.87526 13.5976C9.86572 13.5941 9.85629 13.5904 9.84692 13.5865C9.83756 13.5825 9.82832 13.5783 9.81917 13.5739C9.81002 13.5695 9.801 13.5649 9.79208 13.56C9.78316 13.5552 9.77436 13.5501 9.76569 13.5448C9.75703 13.5395 9.74849 13.534 9.74011 13.5283C9.73171 13.5226 9.72346 13.5167 9.71535 13.5106C9.70725 13.5045 9.69931 13.4982 9.69153 13.4916C9.68374 13.4851 9.67611 13.4784 9.66866 13.4715C9.66119 13.4646 9.65392 13.4576 9.64682 13.4503C9.63971 13.4431 9.63277 13.4356 9.62605 13.4281C9.61931 13.4205 9.61276 13.4127 9.60642 13.4048C9.60006 13.3969 9.59391 13.3888 9.58796 13.3806C9.582 13.3723 9.57626 13.364 9.57071 13.3555C9.56517 13.347 9.55986 13.3383 9.55474 13.3295C9.54963 13.3208 9.54474 13.3119 9.54008 13.3028C9.53541 13.2938 9.53097 13.2847 9.52676 13.2755C9.52254 13.2662 9.51855 13.2569 9.5148 13.2475C9.51104 13.238 9.50753 13.2285 9.50426 13.2189C9.50097 13.2093 9.49792 13.1996 9.49513 13.1899C9.49232 13.1801 9.48977 13.1703 9.48746 13.1604C9.48513 13.1505 9.48306 13.1406 9.48125 13.1306C9.47943 13.1206 9.47786 13.1106 9.47652 13.1005C9.47519 13.0904 9.47412 13.0803 9.47331 13.0702C9.47248 13.0601 9.4719 13.05 9.47159 13.0398C9.47126 13.0297 9.47119 13.0195 9.47137 13.0094L9.47137 10.7878C9.47255 10.7785 9.47396 10.7692 9.47557 10.7599C9.47717 10.7507 9.479 10.7415 9.48103 10.7323C9.48304 10.7232 9.48528 10.7141 9.48772 10.705C9.49015 10.696 9.49279 10.687 9.49563 10.678C9.49848 10.6691 9.50151 10.6602 9.50476 10.6514C9.50799 10.6426 9.51144 10.6339 9.51509 10.6252C9.51871 10.6166 9.52254 10.6081 9.52657 10.5996C9.53058 10.5911 9.53479 10.5827 9.53919 10.5745C9.54359 10.5662 9.54818 10.558 9.55295 10.5499C9.55772 10.5418 9.56267 10.5339 9.5678 10.526C9.57292 10.5182 9.57821 10.5104 9.58369 10.5028C9.58917 10.4952 9.59482 10.4877 9.60064 10.4804C9.60645 10.473 9.61242 10.4658 9.61857 10.4587C9.6247 10.4516 9.631 10.4447 9.63746 10.4379C9.64392 10.431 9.65051 10.4244 9.65726 10.4179C9.66402 10.4114 9.67091 10.405 9.67796 10.3988C9.685 10.3926 9.69217 10.3866 9.69949 10.3807C9.7068 10.3749 9.71424 10.3691 9.72181 10.3636C9.72938 10.3581 9.73707 10.3527 9.74489 10.3475C9.75269 10.3423 9.76061 10.3373 9.76866 10.3325C9.77669 10.3277 9.78483 10.323 9.79309 10.3185C9.80132 10.3141 9.80968 10.3098 9.81812 10.3057C9.82657 10.3016 9.83508 10.2977 9.84371 10.294C9.85231 10.2903 9.86101 10.2868 9.8698 10.2835C9.87857 10.2802 9.88741 10.2771 9.89633 10.2742C9.90523 10.2713 9.91421 10.2686 9.92325 10.2661C9.93229 10.2635 9.94137 10.2612 9.95052 10.2591C9.95965 10.257 9.96883 10.2552 9.97808 10.2535C9.98729 10.2518 9.99655 10.2503 10.0059 10.2491C10.0151 10.2478 10.0245 10.2467 10.0338 10.2459C10.0431 10.245 10.0525 10.2444 10.0619 10.244C10.0712 10.2436 10.0806 10.2434 10.09 10.2434C10.0994 10.2434 10.1087 10.2436 10.1181 10.244C10.1275 10.2444 10.1368 10.245 10.1462 10.2459C10.1555 10.2467 10.1648 10.2478 10.1741 10.2491C10.1834 10.2503 10.1927 10.2518 10.2019 10.2535C10.2111 10.2552 10.2203 10.257 10.2295 10.2591C10.2386 10.2612 10.2477 10.2635 10.2567 10.2661C10.2658 10.2686 10.2747 10.2713 10.2836 10.2742C10.2926 10.2771 10.3014 10.2802 10.3102 10.2835C10.319 10.2868 10.3276 10.2903 10.3363 10.294C10.3449 10.2977 10.3534 10.3016 10.3619 10.3057C10.3703 10.3098 10.3786 10.3141 10.3869 10.3185C10.3951 10.323 10.4033 10.3277 10.4113 10.3325C10.4193 10.3373 10.4273 10.3423 10.4351 10.3475C10.4429 10.3527 10.4506 10.3581 10.4582 10.3636C10.4657 10.3691 10.4732 10.3749 10.4805 10.3807C10.4878 10.3866 10.495 10.3926 10.502 10.3988C10.5091 10.405 10.5159 10.4114 10.5227 10.4179C10.5295 10.4244 10.5361 10.431 10.5425 10.4379C10.549 10.4447 10.5553 10.4516 10.5614 10.4587C10.5675 10.4658 10.5735 10.473 10.5793 10.4804C10.5851 10.4877 10.5908 10.4952 10.5963 10.5028C10.6018 10.5104 10.6071 10.5182 10.6122 10.526C10.6173 10.5339 10.6223 10.5418 10.627 10.5499C10.6318 10.558 10.6364 10.5662 10.6408 10.5745C10.6452 10.5827 10.6494 10.5911 10.6534 10.5996C10.6574 10.6081 10.6612 10.6166 10.6649 10.6252C10.6685 10.6339 10.672 10.6426 10.6752 10.6514C10.6784 10.6602 10.6815 10.6691 10.6843 10.678C10.6872 10.687 10.6898 10.696 10.6923 10.705C10.6947 10.7141 10.6969 10.7232 10.699 10.7323C10.701 10.7415 10.7028 10.7507 10.7044 10.7599C10.706 10.7692 10.7074 10.7785 10.7086 10.7878L10.7086 13.0094C10.7086 13.0196 10.7084 13.0298 10.7079 13.04C10.7075 13.0502 10.7067 13.0604 10.7058 13.0706C10.7048 13.0808 10.7035 13.0909 10.7021 13.1011C10.7006 13.1112 10.6989 13.1213 10.6969 13.1313C10.6949 13.1413 10.6927 13.1513 10.6903 13.1612C10.6878 13.1711 10.6851 13.181 10.6821 13.1908C10.6792 13.2006 10.676 13.2103 10.6726 13.2199C10.6692 13.2296 10.6655 13.2391 10.6616 13.2486C10.6577 13.258 10.6536 13.2674 10.6492 13.2766C10.6449 13.2859 10.6403 13.295 10.6355 13.304C10.6307 13.3131 10.6257 13.322 10.6204 13.3307C10.6152 13.3395 10.6097 13.3482 10.6041 13.3567C10.5984 13.3652 10.5925 13.3735 10.5865 13.3818C10.5804 13.39 10.5741 13.3981 10.5676 13.406C10.5612 13.4139 10.5545 13.4216 10.5476 13.4292C10.5408 13.4368 10.5337 13.4442 10.5265 13.4515C10.5193 13.4587 10.5119 13.4658 10.5043 13.4726C10.4968 13.4795 10.489 13.4862 10.4812 13.4927C10.4732 13.4992 10.4652 13.5055 10.457 13.5116C10.4488 13.5177 10.4404 13.5236 10.4319 13.5293C10.4234 13.535 10.4148 13.5404 10.4061 13.5457C10.3973 13.551 10.3884 13.556 10.3794 13.5609C10.3704 13.5657 10.3612 13.5703 10.352 13.5747C10.3428 13.579 10.3334 13.5832 10.324 13.5871C10.3145 13.591 10.305 13.5947 10.2954 13.5982C10.2858 13.6016 10.276 13.6048 10.2663 13.6078C10.2565 13.6108 10.2466 13.6135 10.2367 13.616C10.2268 13.6185 10.2168 13.6207 10.2068 13.6227C10.1968 13.6247 10.1867 13.6264 10.1766 13.6279C10.1665 13.6295 10.1563 13.6307 10.1462 13.6317C10.136 13.6327 10.1258 13.6335 10.1156 13.634C10.1054 13.6345 10.0951 13.6347 10.0849 13.6347L10.0841 13.6347ZM13.162 13.6347C13.1518 13.6347 13.1417 13.6344 13.1315 13.6339C13.1214 13.6334 13.1112 13.6327 13.1011 13.6316C13.091 13.6306 13.0809 13.6293 13.0709 13.6278C13.0608 13.6263 13.0508 13.6245 13.0409 13.6225C13.0309 13.6205 13.021 13.6183 13.0112 13.6157C13.0013 13.6132 12.9915 13.6105 12.9818 13.6075C12.9721 13.6045 12.9625 13.6013 12.953 13.5978C12.9434 13.5943 12.9339 13.5906 12.9246 13.5867C12.9152 13.5828 12.9059 13.5786 12.8968 13.5742C12.8876 13.5698 12.8786 13.5652 12.8696 13.5603C12.8607 13.5555 12.8519 13.5504 12.8432 13.5451C12.8345 13.5398 12.826 13.5343 12.8176 13.5286C12.8092 13.5229 12.8009 13.517 12.7928 13.5109C12.7847 13.5048 12.7767 13.4985 12.769 13.492C12.7611 13.4854 12.7535 13.4787 12.746 13.4718C12.7386 13.465 12.7313 13.4579 12.7242 13.4506C12.7171 13.4434 12.7101 13.4359 12.7034 13.4283C12.6966 13.4207 12.6901 13.413 12.6837 13.4051C12.6773 13.3971 12.6712 13.3891 12.6652 13.3808C12.6592 13.3726 12.6535 13.3642 12.6479 13.3557C12.6424 13.3472 12.6371 13.3386 12.632 13.3298C12.6268 13.321 12.6219 13.3121 12.6173 13.3031C12.6126 13.2941 12.6081 13.2849 12.6039 13.2757C12.5997 13.2664 12.5957 13.2571 12.5919 13.2477C12.5882 13.2382 12.5847 13.2287 12.5814 13.2191C12.5781 13.2095 12.575 13.1998 12.5722 13.19C12.5694 13.1802 12.5668 13.1704 12.5645 13.1605C12.5622 13.1506 12.5601 13.1407 12.5583 13.1307C12.5565 13.1207 12.5549 13.1106 12.5536 13.1006C12.5523 13.0905 12.5512 13.0804 12.5504 13.0703C12.5495 13.0602 12.549 13.05 12.5486 13.0398C12.5483 13.0297 12.5482 13.0195 12.5484 13.0094L12.5484 8.91337C12.547 8.90238 12.5458 8.89137 12.5449 8.88033C12.544 8.86926 12.5435 8.8582 12.5432 8.84713C12.5429 8.83605 12.5429 8.82497 12.5432 8.8139C12.5435 8.8028 12.5441 8.79175 12.545 8.78069C12.5459 8.76965 12.547 8.75864 12.5485 8.74767C12.55 8.73667 12.5518 8.72572 12.5538 8.71484C12.5559 8.70395 12.5582 8.69312 12.5609 8.68235C12.5635 8.67159 12.5664 8.66089 12.5696 8.65029C12.5728 8.63968 12.5763 8.62916 12.5801 8.61873C12.5838 8.60832 12.5879 8.59799 12.5922 8.58778C12.5965 8.57758 12.6011 8.56749 12.6059 8.55753C12.6108 8.54756 12.6159 8.53772 12.6213 8.52804C12.6266 8.51835 12.6323 8.50881 12.6382 8.4994C12.644 8.49002 12.6502 8.48078 12.6565 8.47171C12.6629 8.46264 12.6695 8.45375 12.6764 8.44504C12.6832 8.43633 12.6903 8.4278 12.6976 8.41946C12.7049 8.41112 12.7124 8.40298 12.7201 8.39504C12.7279 8.3871 12.7358 8.37937 12.744 8.37186C12.7521 8.36433 12.7604 8.35704 12.769 8.34998C12.7775 8.34289 12.7862 8.33605 12.7951 8.32946C12.804 8.32285 12.8131 8.31648 12.8223 8.31036C12.8316 8.30423 12.841 8.29836 12.8505 8.29273C12.8601 8.2871 12.8698 8.28174 12.8796 8.27664C12.8894 8.27152 12.8994 8.26667 12.9095 8.26209C12.9196 8.25752 12.9298 8.25322 12.9401 8.24918C12.9504 8.24515 12.9609 8.24138 12.9714 8.2379C12.9819 8.23442 12.9925 8.23122 13.0032 8.2283C13.0139 8.2254 13.0247 8.22278 13.0355 8.22044C13.0463 8.21808 13.0572 8.21604 13.0682 8.21426C13.0791 8.21251 13.0901 8.21104 13.1011 8.20986C13.1121 8.20869 13.1232 8.2078 13.1342 8.20722C13.1453 8.20661 13.1564 8.20633 13.1675 8.20633C13.1786 8.20633 13.1896 8.20661 13.2007 8.20722C13.2118 8.2078 13.2228 8.20869 13.2338 8.20986C13.2448 8.21104 13.2558 8.21251 13.2668 8.21426C13.2777 8.21604 13.2886 8.21808 13.2994 8.22044C13.3103 8.22278 13.321 8.2254 13.3317 8.2283C13.3424 8.23122 13.353 8.23442 13.3635 8.2379C13.3741 8.24138 13.3845 8.24515 13.3948 8.24918C13.4051 8.25322 13.4153 8.25752 13.4254 8.26209C13.4355 8.26667 13.4455 8.27152 13.4553 8.27664C13.4652 8.28174 13.4749 8.2871 13.4844 8.29273C13.494 8.29836 13.5034 8.30423 13.5126 8.31036C13.5218 8.31648 13.5309 8.32285 13.5398 8.32946C13.5487 8.33605 13.5574 8.34289 13.5659 8.34998C13.5745 8.35704 13.5828 8.36433 13.591 8.37186C13.5991 8.37937 13.6071 8.3871 13.6148 8.39504C13.6225 8.40298 13.63 8.41112 13.6373 8.41946C13.6446 8.4278 13.6517 8.43633 13.6586 8.44504C13.6654 8.45375 13.672 8.46264 13.6784 8.47171C13.6848 8.48078 13.6909 8.49002 13.6968 8.4994C13.7027 8.50881 13.7083 8.51835 13.7137 8.52804C13.719 8.53772 13.7241 8.54756 13.729 8.55753C13.7338 8.56749 13.7384 8.57758 13.7427 8.58778C13.7471 8.59799 13.7511 8.60832 13.7549 8.61873C13.7586 8.62916 13.7621 8.63968 13.7653 8.65029C13.7685 8.66089 13.7714 8.67159 13.7741 8.68235C13.7767 8.69312 13.779 8.70395 13.7811 8.71484C13.7832 8.72572 13.7849 8.73667 13.7864 8.74767C13.7879 8.75864 13.7891 8.76965 13.79 8.78069C13.7908 8.79175 13.7914 8.8028 13.7918 8.8139C13.792 8.82497 13.792 8.83605 13.7918 8.84713C13.7915 8.8582 13.7909 8.86926 13.79 8.88033C13.7891 8.89137 13.788 8.90238 13.7865 8.91337L13.7865 13.0608C13.7857 13.0704 13.7847 13.0801 13.7835 13.0897C13.7822 13.0993 13.7808 13.1089 13.7791 13.1185C13.7774 13.128 13.7755 13.1375 13.7734 13.147C13.7712 13.1565 13.7689 13.1659 13.7663 13.1752C13.7638 13.1846 13.761 13.1939 13.758 13.2031C13.755 13.2123 13.7518 13.2215 13.7483 13.2306C13.7449 13.2396 13.7413 13.2486 13.7374 13.2575C13.7336 13.2664 13.7295 13.2753 13.7253 13.284C13.721 13.2927 13.7165 13.3013 13.7119 13.3098C13.7072 13.3183 13.7024 13.3267 13.6973 13.335C13.6923 13.3433 13.687 13.3514 13.6816 13.3595C13.6762 13.3675 13.6706 13.3754 13.6647 13.3832C13.6589 13.391 13.653 13.3986 13.6468 13.4061C13.6407 13.4136 13.6343 13.4209 13.6278 13.4281C13.6213 13.4353 13.6147 13.4424 13.6078 13.4493C13.601 13.4562 13.594 13.4629 13.5869 13.4694C13.5797 13.476 13.5724 13.4824 13.565 13.4886C13.5576 13.4949 13.55 13.5009 13.5423 13.5068C13.5345 13.5126 13.5267 13.5183 13.5187 13.5238C13.5107 13.5293 13.5026 13.5346 13.4943 13.5398C13.4861 13.5449 13.4778 13.5498 13.4693 13.5546C13.4608 13.5593 13.4523 13.5638 13.4436 13.5682C13.4349 13.5725 13.4261 13.5766 13.4172 13.5806C13.4084 13.5845 13.3994 13.5882 13.3904 13.5917C13.3813 13.5952 13.3722 13.5985 13.363 13.6016C13.3538 13.6047 13.3446 13.6075 13.3352 13.6102C13.3259 13.6128 13.3165 13.6152 13.3071 13.6175C13.2976 13.6197 13.2881 13.6217 13.2786 13.6234C13.269 13.6252 13.2595 13.6267 13.2499 13.6281C13.2402 13.6294 13.2306 13.6305 13.221 13.6314C13.2113 13.6322 13.2016 13.6329 13.1919 13.6333C13.1822 13.6337 13.1725 13.6339 13.1628 13.6339L13.162 13.6347ZM3.12089 7.43848C3.11485 7.43857 3.10882 7.43858 3.1028 7.43851C3.09677 7.43842 3.09075 7.43826 3.08473 7.43799C3.0787 7.43772 3.07268 7.43738 3.06667 7.43694C3.06065 7.43651 3.05465 7.43599 3.04865 7.43538C3.04266 7.43476 3.03667 7.43406 3.0307 7.43328C3.02472 7.43248 3.01875 7.43161 3.0128 7.43063C3.00685 7.42968 3.00092 7.42863 2.99499 7.42749C2.98907 7.42635 2.98317 7.42512 2.97729 7.4238C2.97141 7.42249 2.96555 7.42109 2.9597 7.41961C2.95387 7.41811 2.94805 7.41655 2.94225 7.41489C2.93645 7.41324 2.93068 7.41149 2.92493 7.40966C2.91919 7.40783 2.91348 7.4059 2.90779 7.40392C2.9021 7.40192 2.89644 7.39984 2.89081 7.39767C2.88519 7.3955 2.8796 7.39326 2.87404 7.39094C2.86848 7.3886 2.86296 7.38618 2.85747 7.38369C2.85197 7.38121 2.84652 7.37864 2.84111 7.37599C2.8357 7.37334 2.83033 7.3706 2.82499 7.36778C2.81966 7.36498 2.81436 7.36209 2.80911 7.35913C2.80387 7.35617 2.79867 7.35312 2.79351 7.35001C2.78834 7.34688 2.78323 7.34368 2.77818 7.34042C2.77311 7.33715 2.76809 7.3338 2.76313 7.33038C2.75816 7.32697 2.75324 7.32347 2.74838 7.3199C2.74353 7.31635 2.73871 7.31272 2.73396 7.30901C2.7292 7.30531 2.72451 7.30153 2.71987 7.29768C2.71521 7.29384 2.71063 7.28993 2.7061 7.28596C2.70157 7.28198 2.6971 7.27793 2.6927 7.27383C2.68828 7.26971 2.68393 7.26553 2.67964 7.26128C2.67536 7.25706 2.67113 7.25276 2.66698 7.24841C2.66282 7.24404 2.65873 7.23961 2.6547 7.23513C2.65067 7.23064 2.6467 7.22609 2.6428 7.22149C2.63891 7.21689 2.63508 7.21223 2.63132 7.20753C2.62756 7.20282 2.62388 7.19805 2.62027 7.19323C2.6144 7.18483 2.60874 7.17632 2.60329 7.16767C2.59785 7.15901 2.59262 7.15023 2.5876 7.14129C2.58258 7.13239 2.57779 7.12337 2.57321 7.11421C2.56864 7.10506 2.5643 7.09581 2.56018 7.08644C2.55606 7.07707 2.55217 7.06761 2.54852 7.05806C2.54486 7.04851 2.54145 7.03886 2.53827 7.02915C2.53509 7.01943 2.53215 7.00962 2.52945 6.99977C2.52674 6.98989 2.52429 6.97998 2.52207 6.96999C2.51986 6.95999 2.5179 6.94996 2.51618 6.93989C2.51446 6.9298 2.51299 6.91968 2.51176 6.90953C2.51054 6.89937 2.50956 6.88919 2.50883 6.87897C2.50811 6.86878 2.50763 6.85857 2.50741 6.84835C2.50719 6.83812 2.50722 6.82789 2.5075 6.81766C2.50777 6.80744 2.5083 6.79722 2.50908 6.78701C2.50986 6.77683 2.51089 6.76666 2.51218 6.75651C2.51345 6.74635 2.51498 6.73624 2.51675 6.72615C2.51852 6.71609 2.52054 6.70606 2.52281 6.69611C2.52508 6.68612 2.52758 6.67621 2.53034 6.66636C2.5331 6.65651 2.53609 6.64673 2.53932 6.63701C2.54256 6.62731 2.54603 6.61769 2.54973 6.60815C2.55344 6.59863 2.55737 6.58919 2.56154 6.57986C2.56571 6.57051 2.5701 6.56128 2.57473 6.55214C2.57935 6.54301 2.58419 6.53401 2.58924 6.52513C2.59431 6.51624 2.59959 6.50749 2.60508 6.49886C2.61057 6.49023 2.61628 6.48174 2.62219 6.4734C2.6281 6.46504 2.63421 6.45684 2.64052 6.44879C2.64683 6.44073 2.65334 6.43285 2.66004 6.42513C2.66674 6.4174 2.67362 6.40983 2.6807 6.40245C2.68777 6.39504 2.69501 6.38783 2.70243 6.38081C2.70986 6.37375 2.71745 6.36689 2.72521 6.36024C2.73298 6.35358 2.74089 6.3471 2.74896 6.34084C2.75704 6.33455 2.76527 6.32848 2.77364 6.32261L7.2211 2.89243C7.22791 2.88722 7.23485 2.88216 7.2419 2.87724C7.24892 2.87232 7.25606 2.86755 7.26329 2.86293C7.27052 2.8583 7.27784 2.85382 7.28525 2.84948C7.29266 2.84515 7.30015 2.84098 7.30774 2.83695C7.31532 2.83293 7.32298 2.82906 7.33072 2.82535C7.33845 2.82163 7.34627 2.81808 7.35415 2.81468C7.36203 2.81128 7.36997 2.80805 7.37799 2.80498C7.386 2.8019 7.39408 2.799 7.40221 2.79625C7.41034 2.7935 7.41854 2.79093 7.42677 2.78852C7.43501 2.78611 7.44329 2.78386 7.45162 2.78179C7.45994 2.77972 7.46832 2.77781 7.47673 2.77607C7.48513 2.77434 7.49357 2.77278 7.50205 2.77139C7.51051 2.77 7.519 2.76878 7.52753 2.76775C7.53603 2.7667 7.54458 2.76582 7.55314 2.76512C7.56169 2.76442 7.57026 2.7639 7.57883 2.76355C7.5874 2.76321 7.59597 2.76304 7.60457 2.76304C7.61316 2.76304 7.62174 2.76321 7.63031 2.76355C7.63888 2.7639 7.64744 2.76442 7.656 2.76512C7.66457 2.76582 7.6731 2.7667 7.68162 2.76775C7.69014 2.76878 7.69863 2.77 7.7071 2.77139C7.71557 2.77278 7.724 2.77434 7.73242 2.77607C7.74082 2.77781 7.74919 2.77972 7.75753 2.78179C7.76586 2.78386 7.77414 2.78611 7.78237 2.78852C7.79061 2.79093 7.79879 2.7935 7.80694 2.79625C7.81506 2.799 7.82313 2.8019 7.83114 2.80498C7.83916 2.80805 7.84712 2.81128 7.855 2.81468C7.86288 2.81808 7.87069 2.82163 7.87843 2.82535C7.88617 2.82906 7.89383 2.83293 7.90141 2.83695C7.90898 2.84098 7.91648 2.84515 7.9239 2.84948C7.93131 2.85382 7.93863 2.8583 7.94586 2.86293C7.95309 2.86755 7.96021 2.87232 7.96725 2.87724C7.97427 2.88216 7.9812 2.88722 7.98805 2.89243L10.0335 4.56118L13.3364 1.80606C13.3442 1.80033 13.3522 1.79478 13.3602 1.78942C13.3683 1.78407 13.3765 1.7789 13.3848 1.77392C13.3931 1.76896 13.4015 1.76418 13.41 1.7596C13.4186 1.75502 13.4272 1.75064 13.4359 1.74647C13.4447 1.74229 13.4535 1.73833 13.4624 1.73458C13.4714 1.73081 13.4803 1.72726 13.4894 1.72392C13.4985 1.7206 13.5077 1.71747 13.5169 1.71456C13.5262 1.71166 13.5355 1.70897 13.5448 1.7065C13.5542 1.70403 13.5636 1.70179 13.5731 1.69976C13.5825 1.69773 13.592 1.69592 13.6016 1.69434C13.6111 1.69276 13.6207 1.69141 13.6303 1.69028C13.6399 1.68914 13.6496 1.68824 13.6592 1.68755C13.6689 1.68687 13.6785 1.68642 13.6882 1.68621C13.6979 1.68598 13.7076 1.68598 13.7173 1.68621C13.7269 1.68643 13.7366 1.68689 13.7463 1.68757C13.7559 1.68825 13.7655 1.68916 13.7752 1.69029C13.7848 1.69143 13.7944 1.69279 13.8039 1.69438C13.8135 1.69596 13.823 1.69777 13.8324 1.69981C13.8419 1.70184 13.8513 1.70409 13.8607 1.70656C13.87 1.70903 13.8793 1.71172 13.8886 1.71464C13.8978 1.71755 13.907 1.72067 13.916 1.72401C13.9251 1.72735 13.9341 1.7309 13.9431 1.73466C13.952 1.73843 13.9608 1.7424 13.9695 1.74658C13.9783 1.75075 13.9869 1.75513 13.9954 1.75972C14.0039 1.76429 14.0124 1.76906 14.0207 1.77404C14.029 1.77902 14.0371 1.78419 14.0452 1.78955C14.0533 1.79492 14.0612 1.80046 14.069 1.80619C14.0768 1.81193 14.0845 1.81785 14.092 1.82394C14.0995 1.83003 14.1069 1.8363 14.1141 1.84274C14.1213 1.84918 14.1284 1.85578 14.1353 1.86255C14.1422 1.86932 14.149 1.87625 14.1556 1.88335C14.1622 1.89043 14.1686 1.89766 14.1749 1.90505C14.1811 1.91245 14.1872 1.91998 14.1931 1.92766C14.199 1.93533 14.2047 1.94314 14.2102 1.95108C14.2158 1.95903 14.2211 1.9671 14.2263 1.97529C14.2314 1.98348 14.2364 1.9918 14.2412 2.00022C14.2459 2.00865 14.2505 2.01718 14.2548 2.02582C14.2592 2.03446 14.2634 2.0432 14.2673 2.05204C14.2713 2.06088 14.275 2.06981 14.2786 2.07881C14.2821 2.08783 14.2854 2.09692 14.2885 2.10609C14.2916 2.11525 14.2945 2.12449 14.2972 2.13379C14.2999 2.14309 14.3023 2.15246 14.3045 2.16188C14.3068 2.1713 14.3088 2.18077 14.3106 2.19028C14.3124 2.19979 14.3139 2.20934 14.3153 2.21893C14.3166 2.22852 14.3177 2.23814 14.3186 2.24778C14.3195 2.25742 14.3202 2.26707 14.3206 2.27674C14.321 2.28641 14.3212 2.29608 14.3212 2.30576C14.3212 2.31544 14.321 2.32511 14.3205 2.33478C14.32 2.34445 14.3193 2.35411 14.3184 2.36375C14.3175 2.37339 14.3163 2.383 14.315 2.39258C14.3136 2.40216 14.312 2.4117 14.3102 2.42121C14.3083 2.43071 14.3063 2.44017 14.304 2.44958C14.3018 2.459 14.2993 2.46835 14.2966 2.47764C14.2939 2.48694 14.2909 2.49616 14.2878 2.50532C14.2847 2.51447 14.2813 2.52355 14.2777 2.53256C14.2742 2.54156 14.2704 2.55047 14.2664 2.55929C14.2624 2.56811 14.2582 2.57683 14.2538 2.58546C14.2494 2.59409 14.2448 2.60261 14.24 2.61102C14.2352 2.61942 14.2303 2.62772 14.2251 2.63589C14.2199 2.64407 14.2145 2.65212 14.209 2.66004C14.2034 2.66796 14.1977 2.67575 14.1917 2.68341C14.1858 2.69106 14.1797 2.69857 14.1734 2.70594C14.1671 2.71331 14.1607 2.72052 14.1541 2.72758C14.1475 2.73465 14.1407 2.74156 14.1337 2.74831L10.4625 5.84138C10.4557 5.8471 10.4487 5.85266 10.4417 5.85808C10.4346 5.8635 10.4274 5.86876 10.4201 5.87386C10.4128 5.87897 10.4054 5.88392 10.3979 5.8887C10.3904 5.89347 10.3828 5.89809 10.3751 5.90255C10.3673 5.907 10.3595 5.91126 10.3516 5.91537C10.3437 5.9195 10.3357 5.92343 10.3277 5.92718C10.3196 5.93094 10.3114 5.93452 10.3032 5.93795C10.295 5.94135 10.2867 5.94457 10.2783 5.94761C10.2699 5.95066 10.2615 5.95352 10.253 5.9562C10.2445 5.95886 10.236 5.96135 10.2274 5.96367C10.2188 5.96596 10.2101 5.96808 10.2014 5.97001C10.1927 5.97193 10.184 5.97366 10.1752 5.97522C10.1665 5.97676 10.1577 5.97811 10.1488 5.97928C10.14 5.98044 10.1311 5.98141 10.1223 5.98218C10.1134 5.98295 10.1045 5.98355 10.0956 5.98393C10.0867 5.98432 10.0778 5.98451 10.0689 5.98451C10.06 5.98451 10.0511 5.98432 10.0422 5.98393C10.0333 5.98355 10.0244 5.98295 10.0156 5.98218C10.0067 5.98141 9.99783 5.98044 9.98901 5.97928C9.98017 5.97811 9.97137 5.97676 9.9626 5.97522C9.95383 5.97366 9.94509 5.97193 9.9364 5.97001C9.92771 5.96808 9.91906 5.96596 9.91046 5.96367C9.90186 5.96135 9.89331 5.95886 9.8848 5.9562C9.8763 5.95352 9.86787 5.95066 9.85952 5.94761C9.85114 5.94457 9.84285 5.94135 9.83461 5.93795C9.82637 5.93452 9.81823 5.93094 9.81017 5.92718C9.80208 5.92343 9.79409 5.9195 9.7862 5.91537C9.77829 5.91126 9.77048 5.907 9.76277 5.90255C9.75506 5.89809 9.74744 5.89347 9.73993 5.8887C9.73242 5.88392 9.72501 5.87897 9.71772 5.87386C9.71042 5.86876 9.70323 5.8635 9.69617 5.85808C9.6891 5.85266 9.68215 5.8471 9.67532 5.84138L7.6307 4.16166L3.53975 7.30532C3.53238 7.31107 3.52488 7.31664 3.51726 7.32206C3.50963 7.32749 3.5019 7.33275 3.49404 7.33783C3.48618 7.34289 3.47822 7.3478 3.47015 7.35252C3.46208 7.35723 3.4539 7.36178 3.44563 7.36615C3.43735 7.37051 3.42899 7.37469 3.42053 7.37869C3.41207 7.38267 3.40353 7.38646 3.3949 7.39008C3.38627 7.39369 3.37756 7.3971 3.36878 7.40035C3.36 7.40356 3.35116 7.40658 3.34225 7.40943C3.33333 7.41226 3.32436 7.41489 3.31533 7.41734C3.3063 7.41977 3.29722 7.42199 3.28809 7.42404C3.27896 7.42606 3.26979 7.4279 3.26058 7.42953C3.25137 7.43115 3.24213 7.43257 3.23286 7.4338C3.22358 7.43501 3.21429 7.43602 3.20496 7.43682C3.19565 7.43763 3.18632 7.43823 3.17698 7.43861C3.16763 7.43901 3.15829 7.43919 3.14893 7.43918C3.13958 7.43915 3.13023 7.43892 3.12089 7.43848Z"   fill="#494C5B" >
</path>
<path d="M13.7351 4.99107C13.725 4.99107 13.7148 4.99082 13.7048 4.99033C13.6947 4.98984 13.6846 4.98911 13.6745 4.98814C13.6645 4.98714 13.6544 4.98593 13.6444 4.98446C13.6344 4.983 13.6244 4.98128 13.6145 4.97932C13.6046 4.97737 13.5947 4.97517 13.5849 4.97274C13.5751 4.97031 13.5654 4.96765 13.5557 4.96473C13.546 4.96182 13.5364 4.95868 13.5269 4.95531C13.5173 4.95194 13.5079 4.94833 13.4985 4.94449C13.4892 4.94065 13.4799 4.93659 13.4708 4.93231C13.4616 4.92803 13.4525 4.92353 13.4436 4.9188C13.4347 4.91408 13.4258 4.90914 13.4171 4.90399C13.4084 4.89885 13.3999 4.89348 13.3914 4.88791C13.383 4.88234 13.3747 4.87657 13.3666 4.87059C13.3584 4.86462 13.3504 4.85845 13.3425 4.85209C13.3347 4.84574 13.327 4.83919 13.3194 4.83245C13.3119 4.82571 13.3045 4.81879 13.2973 4.81169C13.2901 4.80459 13.2831 4.79732 13.2762 4.78988C13.2694 4.78245 13.2627 4.77485 13.2562 4.76708C13.2498 4.75934 13.2435 4.75142 13.2374 4.74335C13.2313 4.73528 13.2254 4.72707 13.2197 4.71871C13.214 4.71036 13.2085 4.70187 13.2032 4.69325C13.1979 4.68464 13.1929 4.6759 13.188 4.66702C13.1832 4.65815 13.1785 4.64917 13.1741 4.64008C13.1697 4.63098 13.1655 4.62178 13.1615 4.61249C13.1575 4.6032 13.1538 4.59381 13.1503 4.58433C13.1468 4.57485 13.1435 4.56529 13.1404 4.55565C13.1374 4.546 13.1346 4.5363 13.132 4.52652C13.1294 4.51674 13.1271 4.50691 13.125 4.49702C13.1228 4.48714 13.121 4.4772 13.1194 4.46722C13.1178 4.45725 13.1164 4.44723 13.1152 4.43717C13.1141 4.42713 13.1132 4.41705 13.1126 4.40697C13.112 4.39688 13.1116 4.38679 13.1114 4.37667L13.1114 2.65652L11.3727 2.65652C11.3634 2.65532 11.3541 2.65392 11.3449 2.65231C11.3356 2.6507 11.3264 2.64888 11.3172 2.64685C11.3081 2.64482 11.2989 2.64259 11.2899 2.64015C11.2808 2.63771 11.2718 2.63507 11.2628 2.63222C11.2539 2.62938 11.245 2.62634 11.2362 2.6231C11.2274 2.61985 11.2186 2.6164 11.21 2.61276C11.2013 2.60912 11.1928 2.60529 11.1843 2.60126C11.1758 2.59723 11.1674 2.59301 11.1591 2.58861C11.1508 2.5842 11.1426 2.57962 11.1345 2.57485C11.1264 2.57008 11.1185 2.56512 11.1106 2.55999C11.1027 2.55485 11.095 2.54954 11.0874 2.54406C11.0797 2.53857 11.0722 2.53292 11.0649 2.5271C11.0575 2.52127 11.0503 2.51529 11.0432 2.50914C11.0361 2.50299 11.0291 2.49668 11.0223 2.49022C11.0155 2.48376 11.0088 2.47715 11.0023 2.47039C10.9958 2.46362 10.9894 2.45671 10.9832 2.44966C10.977 2.44261 10.971 2.43542 10.9651 2.4281C10.9592 2.42079 10.9535 2.41333 10.948 2.40575C10.9424 2.39817 10.937 2.39047 10.9318 2.38264C10.9266 2.37482 10.9216 2.36688 10.9168 2.35883C10.9119 2.35078 10.9073 2.34263 10.9028 2.33437C10.8984 2.32612 10.8941 2.31776 10.89 2.3093C10.8859 2.30085 10.882 2.29231 10.8783 2.28369C10.8746 2.27506 10.8711 2.26635 10.8677 2.25756C10.8644 2.24878 10.8613 2.23992 10.8584 2.23099C10.8555 2.22206 10.8527 2.21308 10.8502 2.20403C10.8477 2.19497 10.8454 2.18587 10.8433 2.17673C10.8412 2.16757 10.8393 2.15837 10.8376 2.14913C10.836 2.13989 10.8345 2.13062 10.8332 2.12132C10.832 2.11201 10.8309 2.10267 10.83 2.09332C10.8292 2.08397 10.8286 2.0746 10.8282 2.06522C10.8277 2.05583 10.8275 2.04645 10.8275 2.03705C10.8275 2.02767 10.8277 2.01829 10.8282 2.0089C10.8286 1.99952 10.8292 1.99015 10.83 1.9808C10.8309 1.97145 10.832 1.96212 10.8332 1.9528C10.8345 1.9435 10.836 1.93423 10.8376 1.92499C10.8393 1.91575 10.8412 1.90655 10.8433 1.89739C10.8454 1.88824 10.8477 1.87914 10.8502 1.87009C10.8527 1.86104 10.8555 1.85206 10.8584 1.84313C10.8613 1.8342 10.8644 1.82534 10.8677 1.81655C10.8711 1.80777 10.8746 1.79906 10.8783 1.79043C10.882 1.7818 10.8859 1.77326 10.89 1.76482C10.8941 1.75636 10.8984 1.74801 10.9028 1.73975C10.9073 1.73148 10.9119 1.72332 10.9168 1.71528C10.9216 1.70723 10.9266 1.69929 10.9318 1.69147C10.937 1.68365 10.9424 1.67595 10.948 1.66837C10.9535 1.66079 10.9592 1.65333 10.9651 1.64602C10.971 1.63869 10.977 1.6315 10.9832 1.62446C10.9894 1.61741 10.9958 1.6105 11.0023 1.60373C11.0088 1.59697 11.0155 1.59036 11.0223 1.5839C11.0291 1.57744 11.0361 1.57113 11.0432 1.56498C11.0503 1.55884 11.0575 1.55285 11.0649 1.54702C11.0722 1.54121 11.0797 1.53555 11.0874 1.53006C11.095 1.52458 11.1027 1.51927 11.1106 1.51413C11.1185 1.509 11.1264 1.50405 11.1345 1.49927C11.1426 1.4945 11.1508 1.48991 11.1591 1.4855C11.1674 1.4811 11.1758 1.47688 11.1843 1.47286C11.1928 1.46883 11.2013 1.465 11.21 1.46136C11.2186 1.45772 11.2274 1.45427 11.2362 1.45103C11.245 1.44778 11.2539 1.44474 11.2628 1.44189C11.2718 1.43905 11.2808 1.43641 11.2899 1.43397C11.2989 1.43153 11.3081 1.42929 11.3172 1.42727C11.3264 1.42524 11.3356 1.42342 11.3449 1.42181C11.3541 1.4202 11.3634 1.4188 11.3727 1.4176L13.7351 1.4176C13.7452 1.4176 13.7553 1.41785 13.7654 1.41833C13.7755 1.41882 13.7855 1.41956 13.7956 1.42054C13.8056 1.42152 13.8156 1.42274 13.8256 1.4242C13.8356 1.42567 13.8456 1.42738 13.8555 1.42933C13.8654 1.43128 13.8753 1.43347 13.8851 1.43589C13.8949 1.43832 13.9046 1.44099 13.9143 1.44389C13.924 1.44679 13.9336 1.44993 13.9431 1.4533C13.9526 1.45667 13.9621 1.46026 13.9714 1.46409C13.9808 1.46792 13.99 1.47197 13.9992 1.47625C14.0083 1.48053 14.0174 1.48502 14.0263 1.48973C14.0352 1.49446 14.0441 1.49938 14.0528 1.50452C14.0615 1.50967 14.07 1.51502 14.0784 1.52058C14.0869 1.52614 14.0952 1.5319 14.1033 1.53787C14.1115 1.54383 14.1195 1.54999 14.1273 1.55634C14.1352 1.56269 14.1429 1.56924 14.1504 1.57597C14.158 1.5827 14.1653 1.5896 14.1725 1.59668C14.1797 1.60376 14.1868 1.61102 14.1936 1.61845C14.2005 1.62587 14.2071 1.63346 14.2136 1.64122C14.2201 1.64896 14.2264 1.65686 14.2325 1.66492C14.2386 1.67298 14.2445 1.68118 14.2502 1.68951C14.2559 1.69786 14.2614 1.70634 14.2666 1.71495C14.2719 1.72355 14.277 1.73228 14.2819 1.74114C14.2867 1.75 14.2914 1.75897 14.2958 1.76805C14.3002 1.77712 14.3044 1.78631 14.3084 1.7956C14.3124 1.80489 14.3161 1.81426 14.3196 1.82372C14.3232 1.83319 14.3265 1.84274 14.3295 1.85237C14.3326 1.862 14.3354 1.87169 14.338 1.88145C14.3406 1.89122 14.3429 1.90104 14.3451 1.91092C14.3472 1.92081 14.349 1.93073 14.3507 1.9407C14.3523 1.95067 14.3537 1.96068 14.3548 1.97071C14.356 1.98075 14.3569 1.99081 14.3575 2.00089C14.3582 2.01096 14.3586 2.02105 14.3587 2.03116L14.3587 4.37667C14.3586 4.38679 14.3582 4.39689 14.3576 4.40699C14.357 4.4171 14.3561 4.42717 14.355 4.43723C14.3539 4.44729 14.3525 4.45731 14.3509 4.46731C14.3493 4.47731 14.3474 4.48725 14.3453 4.49714C14.3432 4.50705 14.3409 4.51689 14.3383 4.52668C14.3358 4.53648 14.333 4.5462 14.3299 4.55584C14.3269 4.56548 14.3236 4.57505 14.3201 4.58455C14.3166 4.59405 14.3128 4.60344 14.3089 4.61274C14.3049 4.62206 14.3007 4.63126 14.2963 4.64037C14.2919 4.64948 14.2872 4.65848 14.2824 4.66735C14.2775 4.67622 14.2725 4.68498 14.2672 4.69362C14.2619 4.70225 14.2564 4.71074 14.2507 4.71911C14.245 4.72748 14.2391 4.73571 14.2331 4.74378C14.227 4.75185 14.2207 4.7598 14.2142 4.76757C14.2077 4.77535 14.2011 4.78295 14.1942 4.7904C14.1874 4.79785 14.1803 4.80513 14.1731 4.81224C14.1659 4.81934 14.1586 4.82627 14.151 4.83301C14.1435 4.83977 14.1358 4.84633 14.1279 4.8527C14.12 4.85907 14.112 4.86525 14.1039 4.87123C14.0957 4.87722 14.0874 4.883 14.079 4.88858C14.0705 4.89415 14.0619 4.89951 14.0532 4.90468C14.0445 4.90985 14.0357 4.9148 14.0268 4.91953C14.0178 4.92425 14.0088 4.92877 13.9996 4.93305C13.9904 4.93735 13.9812 4.94142 13.9718 4.94526C13.9624 4.9491 13.953 4.95271 13.9435 4.95609C13.9339 4.95947 13.9243 4.96261 13.9146 4.96553C13.9049 4.96845 13.8952 4.97111 13.8854 4.97356C13.8755 4.97599 13.8656 4.97818 13.8557 4.98014C13.8458 4.98211 13.8358 4.98381 13.8258 4.98528C13.8158 4.98674 13.8058 4.98797 13.7957 4.98897C13.7856 4.98994 13.7755 4.99068 13.7654 4.99117C13.7553 4.99166 13.7452 4.99191 13.7351 4.99191L13.7351 4.99107Z"   fill="#494C5B" >
</path>
</svg>
