<svg xmlns="http://www.w3.org/2000/svg" xmlns:xlink="http://www.w3.org/1999/xlink" width="16" height="16" viewBox="0 0 16 16" fill="current">
<path d="M7.84099 0.5C4.74299 0.5 2.21099 2.7655 2.21099 5.59C2.21099 5.9605 2.25499 6.326 2.34099 6.6815L1.544 8.466C1.54006 8.4748 1.53639 8.4837 1.53297 8.49272C1.52956 8.50172 1.5264 8.51081 1.52351 8.52002C1.52062 8.5292 1.518 8.53847 1.51565 8.54781C1.51329 8.55716 1.51121 8.56656 1.5094 8.57603C1.50759 8.5855 1.50605 8.59502 1.50479 8.60456C1.50353 8.61411 1.50254 8.62369 1.50184 8.6333C1.50113 8.64291 1.5007 8.65253 1.50055 8.66217C1.5004 8.67181 1.50053 8.68144 1.50093 8.69106C1.50134 8.70069 1.50202 8.7103 1.50298 8.71989C1.50395 8.72947 1.50518 8.73903 1.5067 8.74855C1.50821 8.75806 1.51 8.76752 1.51206 8.77694C1.51412 8.78636 1.51645 8.7957 1.51905 8.80497C1.52165 8.81425 1.52452 8.82345 1.52765 8.83256C1.53079 8.84167 1.53418 8.85069 1.53783 8.85961C1.54149 8.86852 1.5454 8.87731 1.54956 8.88602C1.55372 8.8947 1.55813 8.90327 1.56279 8.9117C1.56745 8.92014 1.57234 8.92844 1.57748 8.93658C1.58263 8.94473 1.588 8.95273 1.59359 8.96058C1.59919 8.96841 1.60502 8.97608 1.61106 8.98359C1.6171 8.99109 1.62335 8.99842 1.62982 9.00556C1.63629 9.0127 1.64296 9.01966 1.64982 9.02642C1.6567 9.03317 1.66376 9.03972 1.67099 9.04608C1.67824 9.05244 1.68567 9.05856 1.69328 9.06448C1.70088 9.07041 1.70865 9.07609 1.71657 9.08158C1.72451 9.08705 1.73259 9.09228 1.74082 9.09728C1.74906 9.1023 1.75744 9.10706 1.76595 9.11158C1.77446 9.11609 1.78309 9.12036 1.79184 9.12439C1.8006 9.12841 1.80947 9.13217 1.81845 9.13567C1.82742 9.13919 1.83649 9.14244 1.84565 9.14542C1.85481 9.14841 1.86405 9.15111 1.87337 9.15356C1.88269 9.15602 1.89207 9.15819 1.90151 9.16011C1.91096 9.16202 1.92045 9.16364 1.92999 9.165C2.77799 9.286 3.12799 9.652 3.12799 10.373L3.12799 12.116C3.12799 12.1324 3.12839 12.1487 3.12919 12.1651C3.13 12.1814 3.13121 12.1977 3.1328 12.214C3.13441 12.2303 3.13641 12.2465 3.13882 12.2627C3.14122 12.2789 3.14402 12.295 3.14721 12.3111C3.15039 12.3271 3.15399 12.3431 3.15796 12.359C3.16194 12.3749 3.1663 12.3906 3.17105 12.4063C3.1758 12.422 3.18094 12.4375 3.18644 12.4529C3.19196 12.4683 3.19785 12.4836 3.20411 12.4987C3.21038 12.5138 3.217 12.5288 3.224 12.5436C3.231 12.5584 3.23835 12.573 3.24607 12.5874C3.25379 12.6018 3.26185 12.6161 3.27025 12.6301C3.27868 12.6441 3.28743 12.658 3.29652 12.6716C3.30561 12.6852 3.31504 12.6986 3.32479 12.7117C3.33454 12.7248 3.3446 12.7378 3.35497 12.7504C3.36536 12.763 3.37605 12.7754 3.38704 12.7876C3.39804 12.7997 3.40932 12.8115 3.42088 12.8231C3.43246 12.8347 3.4443 12.846 3.45643 12.857C3.46855 12.8679 3.48094 12.8786 3.4936 12.889C3.50625 12.8994 3.51914 12.9095 3.53229 12.9192C3.54544 12.929 3.55882 12.9384 3.57241 12.9475C3.58604 12.9566 3.59985 12.9653 3.61388 12.9737C3.62793 12.9821 3.64216 12.9902 3.6566 12.9979C3.67104 13.0056 3.68564 13.013 3.70043 13.02C3.71524 13.027 3.73019 13.0336 3.7453 13.0399C3.76043 13.0461 3.77569 13.052 3.7911 13.0575C3.8065 13.0631 3.82205 13.0682 3.83771 13.0729C3.85336 13.0777 3.86913 13.082 3.885 13.086C3.90088 13.09 3.91685 13.0936 3.93289 13.0968C3.94896 13.1 3.96507 13.1028 3.98125 13.1052C3.99744 13.1076 4.01369 13.1096 4.02997 13.1112C4.04625 13.1128 4.06258 13.114 4.07893 13.1148C4.09527 13.1156 4.11163 13.116 4.12799 13.116L4.45149 13.116C4.46786 13.116 4.48421 13.1164 4.50055 13.1172C4.51691 13.118 4.53322 13.1192 4.5495 13.1208C4.5658 13.1224 4.58204 13.1244 4.59822 13.1268C4.61441 13.1292 4.63054 13.132 4.64658 13.1352C4.66264 13.1384 4.6786 13.142 4.69447 13.146C4.71035 13.15 4.72611 13.1543 4.74177 13.1591C4.75744 13.1638 4.77297 13.1689 4.78838 13.1745C4.80379 13.18 4.81905 13.1859 4.83418 13.1921C4.8493 13.1984 4.86425 13.205 4.87905 13.212C4.89385 13.219 4.90846 13.2264 4.92288 13.2341C4.93732 13.2418 4.95157 13.2499 4.9656 13.2583C4.97963 13.2667 4.99346 13.2754 5.00705 13.2845C5.02068 13.2936 5.03405 13.303 5.04719 13.3128C5.06035 13.3225 5.07324 13.3326 5.08588 13.343C5.09854 13.3534 5.11093 13.3641 5.12305 13.375C5.13518 13.386 5.14704 13.3973 5.1586 13.4089C5.17018 13.4205 5.18146 13.4323 5.19244 13.4444C5.20344 13.4566 5.21413 13.469 5.2245 13.4816C5.23488 13.4943 5.24494 13.5072 5.25469 13.5203C5.26444 13.5334 5.27386 13.5468 5.28296 13.5604C5.29205 13.574 5.30082 13.5879 5.30922 13.6019C5.31763 13.6159 5.32569 13.6302 5.33341 13.6446C5.34113 13.659 5.34849 13.6736 5.35547 13.6884C5.36247 13.7032 5.36911 13.7182 5.37536 13.7333C5.38164 13.7484 5.38754 13.7637 5.39303 13.7791C5.39855 13.7945 5.40368 13.81 5.40843 13.8257C5.41318 13.8414 5.41755 13.8571 5.42152 13.873C5.4255 13.8889 5.42908 13.9049 5.43227 13.9209C5.43547 13.937 5.43827 13.9531 5.44066 13.9693C5.44307 13.9855 5.44508 14.0017 5.44668 14.018C5.44829 14.0343 5.44949 14.0506 5.45028 14.0669C5.4511 14.0833 5.45149 14.0996 5.45149 14.116L5.45149 15C5.45149 15.0082 5.45169 15.0164 5.4521 15.0245C5.4525 15.0327 5.4531 15.0409 5.45389 15.049C5.45471 15.0572 5.45571 15.0653 5.45689 15.0734C5.45811 15.0815 5.4595 15.0895 5.4611 15.0975C5.46269 15.1056 5.46449 15.1135 5.46647 15.1215C5.46847 15.1294 5.47064 15.1373 5.47302 15.1451C5.47539 15.153 5.47797 15.1607 5.48072 15.1684C5.48347 15.1761 5.48643 15.1838 5.48955 15.1913C5.49268 15.1989 5.49599 15.2064 5.49949 15.2138C5.50299 15.2212 5.50668 15.2285 5.51054 15.2357C5.51439 15.2429 5.51843 15.25 5.52263 15.257C5.52685 15.2641 5.53122 15.271 5.53575 15.2778C5.5403 15.2846 5.545 15.2913 5.54988 15.2978C5.55475 15.3044 5.5598 15.3109 5.56499 15.3172C5.57018 15.3235 5.57552 15.3297 5.58102 15.3358C5.58652 15.3418 5.59216 15.3478 5.59794 15.3535C5.60372 15.3593 5.60964 15.365 5.61571 15.3705C5.62177 15.376 5.62797 15.3813 5.63428 15.3865C5.64063 15.3917 5.64708 15.3967 5.65364 15.4016C5.66022 15.4065 5.66691 15.4112 5.67371 15.4157C5.68052 15.4203 5.68743 15.4247 5.69444 15.4289C5.70146 15.4331 5.70857 15.4371 5.71579 15.441C5.723 15.4448 5.73032 15.4485 5.73771 15.452C5.74511 15.4555 5.75258 15.4588 5.76014 15.4619C5.76771 15.4651 5.77535 15.468 5.78305 15.4708C5.79075 15.4735 5.79852 15.4761 5.80635 15.4785C5.81419 15.4808 5.82207 15.483 5.83 15.485C5.83794 15.487 5.84593 15.4888 5.85394 15.4904C5.86197 15.492 5.87004 15.4934 5.87813 15.4946C5.88622 15.4958 5.89435 15.4968 5.90247 15.4976C5.91063 15.4984 5.91879 15.499 5.92696 15.4994C5.93513 15.4998 5.9433 15.5 5.95149 15.5L11.3515 15.5C11.3597 15.5 11.3679 15.4998 11.376 15.4994C11.3842 15.499 11.3924 15.4984 11.4005 15.4976C11.4086 15.4968 11.4168 15.4958 11.4248 15.4946C11.4329 15.4934 11.441 15.492 11.449 15.4904C11.4571 15.4888 11.465 15.487 11.473 15.485C11.4809 15.483 11.4888 15.4808 11.4966 15.4785C11.5045 15.4761 11.5122 15.4735 11.5199 15.4708C11.5276 15.468 11.5353 15.4651 11.5428 15.4619C11.5504 15.4588 11.5579 15.4555 11.5653 15.452C11.5727 15.4485 11.58 15.4448 11.5872 15.441C11.5944 15.4371 11.6015 15.4331 11.6085 15.4289C11.6156 15.4247 11.6225 15.4203 11.6293 15.4157C11.6361 15.4112 11.6428 15.4065 11.6493 15.4016C11.6559 15.3967 11.6624 15.3917 11.6687 15.3865C11.675 15.3813 11.6812 15.376 11.6873 15.3705C11.6933 15.365 11.6993 15.3593 11.705 15.3535C11.7108 15.3478 11.7165 15.3418 11.722 15.3358C11.7275 15.3297 11.7328 15.3235 11.738 15.3172C11.7432 15.3109 11.7482 15.3044 11.7531 15.2978C11.758 15.2913 11.7627 15.2846 11.7672 15.2778C11.7718 15.271 11.7761 15.2641 11.7803 15.257C11.7846 15.25 11.7886 15.2429 11.7924 15.2357C11.7963 15.2285 11.8 15.2212 11.8035 15.2138C11.807 15.2064 11.8103 15.1989 11.8134 15.1913C11.8166 15.1838 11.8195 15.1761 11.8223 15.1684C11.825 15.1607 11.8276 15.153 11.83 15.1451C11.8323 15.1373 11.8345 15.1294 11.8365 15.1215C11.8385 15.1135 11.8403 15.1056 11.8419 15.0975C11.8435 15.0895 11.8449 15.0815 11.8461 15.0734C11.8473 15.0653 11.8483 15.0572 11.8491 15.049C11.8499 15.0409 11.8505 15.0327 11.8509 15.0245C11.8513 15.0164 11.8515 15.0082 11.8515 15C11.8515 14.9918 11.8513 14.9836 11.8509 14.9755C11.8505 14.9673 11.8499 14.9591 11.8491 14.951C11.8483 14.9429 11.8473 14.9347 11.8461 14.9266C11.8449 14.9185 11.8435 14.9105 11.8419 14.9025C11.8403 14.8944 11.8385 14.8865 11.8365 14.8785C11.8345 14.8706 11.8323 14.8627 11.83 14.8549C11.8276 14.847 11.825 14.8392 11.8223 14.8315C11.8195 14.8238 11.8166 14.8162 11.8134 14.8087C11.8103 14.8011 11.807 14.7936 11.8035 14.7862C11.8 14.7788 11.7963 14.7715 11.7924 14.7643C11.7886 14.7571 11.7846 14.75 11.7803 14.743C11.7761 14.7359 11.7718 14.729 11.7672 14.7222C11.7627 14.7154 11.758 14.7087 11.7531 14.7022C11.7482 14.6956 11.7432 14.6891 11.738 14.6828C11.7328 14.6765 11.7275 14.6703 11.722 14.6642C11.7165 14.6582 11.7108 14.6522 11.705 14.6465C11.6993 14.6407 11.6933 14.635 11.6873 14.6295C11.6812 14.624 11.675 14.6187 11.6687 14.6135C11.6624 14.6083 11.6559 14.6033 11.6493 14.5984C11.6428 14.5935 11.6361 14.5888 11.6293 14.5843C11.6225 14.5797 11.6156 14.5753 11.6085 14.5711C11.6015 14.5669 11.5944 14.5629 11.5872 14.559C11.58 14.5552 11.5727 14.5515 11.5653 14.548C11.5579 14.5445 11.5504 14.5412 11.5428 14.5381C11.5353 14.5349 11.5276 14.532 11.5199 14.5292C11.5122 14.5265 11.5045 14.5239 11.4966 14.5215C11.4888 14.5192 11.4809 14.517 11.473 14.515C11.465 14.513 11.4571 14.5112 11.449 14.5096C11.441 14.508 11.4329 14.5066 11.4248 14.5054C11.4168 14.5042 11.4086 14.5032 11.4005 14.5024C11.3924 14.5016 11.3842 14.501 11.376 14.5006C11.3679 14.5002 11.3597 14.5 11.3515 14.5L6.45149 14.5L6.45149 14.1155C6.45149 14.0828 6.45069 14.0501 6.44908 14.0174C6.44749 13.9847 6.44508 13.952 6.44186 13.9195C6.43866 13.8869 6.43466 13.8544 6.42985 13.822C6.42505 13.7897 6.41946 13.7574 6.41307 13.7253C6.40669 13.6932 6.39952 13.6613 6.39155 13.6295C6.38361 13.5978 6.37488 13.5662 6.36536 13.5349C6.35586 13.5036 6.34561 13.4725 6.33458 13.4417C6.32355 13.4109 6.31179 13.3804 6.29925 13.3501C6.28672 13.3199 6.27347 13.29 6.25947 13.2604C6.24547 13.2308 6.23077 13.2016 6.21533 13.1727C6.19991 13.1438 6.18378 13.1154 6.16694 13.0873C6.15013 13.0592 6.13261 13.0316 6.11443 13.0044C6.09624 12.9771 6.07741 12.9504 6.05791 12.9241C6.03841 12.8978 6.01829 12.872 5.9975 12.8467C5.97675 12.8214 5.95538 12.7966 5.93339 12.7724C5.91143 12.7481 5.88886 12.7244 5.86571 12.7013C5.84257 12.6781 5.81886 12.6556 5.79461 12.6336C5.77036 12.6116 5.74558 12.5903 5.72027 12.5695C5.69497 12.5487 5.66918 12.5286 5.64289 12.5091C5.61661 12.4896 5.58985 12.4707 5.56263 12.4526C5.53541 12.4344 5.50777 12.4169 5.47969 12.4C5.45163 12.3832 5.42316 12.3671 5.39429 12.3517C5.36543 12.3362 5.33619 12.3215 5.3066 12.3075C5.27702 12.2935 5.2471 12.2803 5.21685 12.2677C5.18661 12.2552 5.15608 12.2434 5.12527 12.2324C5.09446 12.2214 5.06338 12.2111 5.03205 12.2016C5.00074 12.1921 4.96921 12.1834 4.93744 12.1754C4.90569 12.1675 4.87377 12.1603 4.84168 12.1539C4.80958 12.1475 4.77733 12.142 4.74496 12.1371C4.71258 12.1323 4.6801 12.1283 4.64752 12.1251C4.61496 12.1219 4.58232 12.1195 4.54963 12.1179C4.51694 12.1163 4.48422 12.1155 4.45149 12.1155L4.12749 12.1155L4.12749 10.3725C4.12749 9.3465 3.62449 8.643 2.70249 8.3235L3.32549 6.9285C3.33143 6.91523 3.33677 6.90175 3.34152 6.88802C3.34627 6.8743 3.35043 6.86039 3.35396 6.8463C3.3575 6.83222 3.36043 6.818 3.36272 6.80366C3.36502 6.78931 3.36669 6.77489 3.36774 6.76041C3.36879 6.74592 3.36919 6.73141 3.36896 6.71689C3.36874 6.70237 3.36789 6.68787 3.36639 6.67342C3.36491 6.65897 3.3628 6.64463 3.36005 6.63036C3.35732 6.61609 3.35396 6.60197 3.34999 6.588C3.32693 6.50691 3.30669 6.42511 3.2893 6.34259C3.27191 6.26009 3.25739 6.17709 3.24577 6.09358C3.23414 6.01006 3.22544 5.92625 3.21963 5.84214C3.21383 5.75803 3.21096 5.67381 3.21099 5.5895C3.21099 3.344 5.27249 1.4995 7.84099 1.4995C10.4095 1.4995 12.471 3.3435 12.471 5.5895C12.471 5.59769 12.4712 5.60586 12.4716 5.61403C12.472 5.6222 12.4726 5.63037 12.4734 5.63852C12.4742 5.64666 12.4752 5.65477 12.4764 5.66286C12.4776 5.67095 12.479 5.67902 12.4806 5.68705C12.4822 5.69506 12.484 5.70305 12.486 5.71098C12.488 5.71892 12.4901 5.72681 12.4925 5.73464C12.4949 5.74247 12.4975 5.75023 12.5002 5.75794C12.503 5.76564 12.5059 5.77328 12.5091 5.78084C12.5122 5.78841 12.5155 5.79589 12.519 5.80328C12.5225 5.81067 12.5262 5.81798 12.53 5.8252C12.5339 5.83242 12.5379 5.83953 12.5421 5.84655C12.5463 5.85356 12.5507 5.86048 12.5553 5.86728C12.5598 5.87408 12.5645 5.88077 12.5694 5.88734C12.5743 5.89392 12.5793 5.90037 12.5845 5.9067C12.5897 5.91303 12.595 5.91922 12.6005 5.92528C12.606 5.93134 12.6117 5.93727 12.6174 5.94305C12.6232 5.94884 12.6291 5.95448 12.6352 5.95997C12.6413 5.96547 12.6475 5.97081 12.6538 5.976C12.6601 5.9812 12.6666 5.98623 12.6731 5.99111C12.6797 5.99598 12.6864 6.00069 12.6932 6.00523C12.7 6.00978 12.7069 6.01416 12.7139 6.01836C12.721 6.02256 12.7281 6.02661 12.7353 6.03047C12.7425 6.03433 12.7498 6.038 12.7572 6.0415C12.7646 6.045 12.7721 6.04831 12.7796 6.05144C12.7872 6.05458 12.7948 6.05752 12.8026 6.06027C12.8103 6.06303 12.818 6.06559 12.8258 6.06797C12.8337 6.07034 12.8416 6.07253 12.8495 6.07452C12.8574 6.0765 12.8654 6.0783 12.8734 6.07989C12.8815 6.08148 12.8895 6.08289 12.8976 6.08409C12.9057 6.0853 12.9138 6.0863 12.922 6.08709C12.9301 6.08789 12.9383 6.0885 12.9465 6.08891C12.9546 6.0893 12.9628 6.0895 12.971 6.0895C12.9792 6.0895 12.9874 6.0893 12.9955 6.08891C13.0037 6.0885 13.0119 6.08789 13.02 6.08709C13.0281 6.0863 13.0363 6.0853 13.0443 6.08409C13.0524 6.08289 13.0605 6.08148 13.0685 6.07989C13.0766 6.0783 13.0845 6.0765 13.0925 6.07452C13.1004 6.07253 13.1083 6.07034 13.1161 6.06797C13.124 6.06559 13.1317 6.06303 13.1394 6.06027C13.1471 6.05752 13.1548 6.05458 13.1623 6.05144C13.1699 6.04831 13.1774 6.045 13.1848 6.0415C13.1922 6.038 13.1995 6.03433 13.2067 6.03047C13.2139 6.02661 13.221 6.02256 13.228 6.01836C13.2351 6.01416 13.242 6.00978 13.2488 6.00523C13.2556 6.00069 13.2623 5.99598 13.2688 5.99111C13.2754 5.98623 13.2819 5.9812 13.2882 5.976C13.2945 5.97081 13.3007 5.96547 13.3068 5.95998C13.3128 5.95448 13.3188 5.94884 13.3245 5.94305C13.3303 5.93727 13.336 5.93134 13.3415 5.92528C13.347 5.91922 13.3523 5.91303 13.3575 5.9067C13.3627 5.90037 13.3677 5.89392 13.3726 5.88734C13.3775 5.88077 13.3822 5.87408 13.3867 5.86728C13.3913 5.86048 13.3956 5.85356 13.3998 5.84655C13.4041 5.83953 13.4081 5.83241 13.4119 5.8252C13.4158 5.81798 13.4195 5.81067 13.423 5.80328C13.4265 5.79589 13.4298 5.78841 13.4329 5.78084C13.4361 5.77328 13.439 5.76564 13.4418 5.75794C13.4445 5.75023 13.4471 5.74247 13.4495 5.73464C13.4518 5.72681 13.454 5.71892 13.456 5.71098C13.458 5.70305 13.4598 5.69506 13.4614 5.68705C13.463 5.67902 13.4644 5.67095 13.4656 5.66286C13.4668 5.65477 13.4678 5.64666 13.4686 5.63852C13.4694 5.63037 13.47 5.6222 13.4704 5.61403C13.4708 5.60586 13.471 5.59769 13.471 5.5895C13.471 2.7655 10.9385 0.5 7.84099 0.5ZM14.125 7C14.1168 7 14.1086 7.0002 14.1005 7.00061C14.0923 7.001 14.0841 7.00161 14.076 7.00241C14.0678 7.0032 14.0597 7.0042 14.0516 7.00541C14.0435 7.00661 14.0355 7.00802 14.0274 7.00961C14.0194 7.0112 14.0114 7.013 14.0035 7.01498C13.9956 7.01697 13.9877 7.01916 13.9798 7.02153C13.972 7.02391 13.9643 7.02647 13.9566 7.02923C13.9488 7.03198 13.9412 7.03492 13.9336 7.03806C13.9261 7.04119 13.9186 7.0445 13.9112 7.048C13.9038 7.0515 13.8965 7.05519 13.8893 7.05905C13.8821 7.06291 13.875 7.06694 13.8679 7.07114C13.8609 7.07534 13.854 7.07972 13.8472 7.08427C13.8404 7.08881 13.8337 7.09352 13.8271 7.09839C13.8206 7.10327 13.8141 7.1083 13.8078 7.1135C13.8015 7.11869 13.7953 7.12403 13.7892 7.12953C13.7831 7.13502 13.7772 7.14066 13.7714 7.14645C13.7657 7.15223 13.76 7.15816 13.7545 7.16422C13.749 7.17028 13.7437 7.17647 13.7385 7.1828C13.7333 7.18913 13.7283 7.19558 13.7234 7.20216C13.7185 7.20873 13.7138 7.21542 13.7093 7.22222C13.7047 7.22902 13.7003 7.23594 13.6961 7.24295C13.6919 7.24997 13.6879 7.25708 13.684 7.2643C13.6802 7.27152 13.6765 7.27883 13.673 7.28622C13.6695 7.29361 13.6662 7.30109 13.6631 7.30866C13.6599 7.31622 13.657 7.32384 13.6542 7.33155C13.6515 7.33925 13.6489 7.34703 13.6465 7.35486C13.6441 7.36269 13.642 7.37058 13.64 7.37852C13.638 7.38645 13.6362 7.39444 13.6346 7.40245C13.633 7.41048 13.6316 7.41855 13.6304 7.42664C13.6292 7.43473 13.6282 7.44284 13.6274 7.45098C13.6266 7.45913 13.626 7.4673 13.6256 7.47547C13.6252 7.48364 13.625 7.49181 13.625 7.5L13.625 13.125C13.625 13.1332 13.6252 13.1414 13.6256 13.1495C13.626 13.1577 13.6266 13.1659 13.6274 13.174C13.6282 13.1822 13.6292 13.1903 13.6304 13.1984C13.6316 13.2065 13.633 13.2145 13.6346 13.2225C13.6362 13.2306 13.638 13.2385 13.64 13.2465C13.642 13.2544 13.6441 13.2623 13.6465 13.2701C13.6489 13.278 13.6515 13.2857 13.6542 13.2934C13.657 13.3011 13.6599 13.3088 13.6631 13.3163C13.6662 13.3239 13.6695 13.3314 13.673 13.3388C13.6765 13.3462 13.6802 13.3535 13.684 13.3607C13.6879 13.3679 13.6919 13.375 13.6961 13.382C13.7003 13.3891 13.7047 13.396 13.7093 13.4028C13.7138 13.4096 13.7185 13.4163 13.7234 13.4228C13.7283 13.4294 13.7333 13.4359 13.7385 13.4422C13.7437 13.4485 13.749 13.4547 13.7545 13.4608C13.76 13.4668 13.7657 13.4728 13.7714 13.4785C13.7772 13.4843 13.7831 13.49 13.7892 13.4955C13.7953 13.501 13.8015 13.5063 13.8078 13.5115C13.8141 13.5167 13.8206 13.5217 13.8271 13.5266C13.8337 13.5315 13.8404 13.5362 13.8472 13.5407C13.854 13.5453 13.8609 13.5497 13.8679 13.5539C13.875 13.5581 13.8821 13.5621 13.8893 13.566C13.8965 13.5698 13.9038 13.5735 13.9112 13.577C13.9186 13.5805 13.9261 13.5838 13.9336 13.5869C13.9412 13.5901 13.9488 13.593 13.9565 13.5958C13.9643 13.5985 13.972 13.6011 13.9798 13.6035C13.9877 13.6058 13.9956 13.608 14.0035 13.61C14.0114 13.612 14.0194 13.6138 14.0274 13.6154C14.0355 13.617 14.0435 13.6184 14.0516 13.6196C14.0597 13.6208 14.0678 13.6218 14.076 13.6226C14.0841 13.6234 14.0923 13.624 14.1005 13.6244C14.1086 13.6248 14.1168 13.625 14.125 13.625C14.1332 13.625 14.1414 13.6248 14.1495 13.6244C14.1577 13.624 14.1659 13.6234 14.174 13.6226C14.1821 13.6218 14.1903 13.6208 14.1983 13.6196C14.2064 13.6184 14.2145 13.617 14.2225 13.6154C14.2306 13.6138 14.2385 13.612 14.2465 13.61C14.2544 13.608 14.2623 13.6058 14.2701 13.6035C14.278 13.6011 14.2857 13.5985 14.2934 13.5958C14.3011 13.593 14.3088 13.5901 14.3163 13.5869C14.3239 13.5838 14.3314 13.5805 14.3388 13.577C14.3462 13.5735 14.3535 13.5698 14.3607 13.566C14.3679 13.5621 14.375 13.5581 14.382 13.5539C14.3891 13.5497 14.396 13.5453 14.4028 13.5407C14.4096 13.5362 14.4163 13.5315 14.4228 13.5266C14.4294 13.5217 14.4359 13.5167 14.4422 13.5115C14.4485 13.5063 14.4547 13.501 14.4608 13.4955C14.4668 13.49 14.4728 13.4843 14.4785 13.4785C14.4843 13.4728 14.49 13.4668 14.4955 13.4608C14.501 13.4547 14.5063 13.4485 14.5115 13.4422C14.5167 13.4359 14.5217 13.4294 14.5266 13.4228C14.5315 13.4163 14.5362 13.4096 14.5407 13.4028C14.5453 13.396 14.5496 13.3891 14.5538 13.382C14.5581 13.375 14.5621 13.3679 14.5659 13.3607C14.5698 13.3535 14.5735 13.3462 14.577 13.3388C14.5805 13.3314 14.5838 13.3239 14.5869 13.3163C14.5901 13.3088 14.593 13.3011 14.5958 13.2934C14.5985 13.2857 14.6011 13.278 14.6035 13.2701C14.6058 13.2623 14.608 13.2544 14.61 13.2465C14.612 13.2385 14.6138 13.2306 14.6154 13.2225C14.617 13.2145 14.6184 13.2065 14.6196 13.1984C14.6208 13.1903 14.6218 13.1822 14.6226 13.174C14.6234 13.1659 14.624 13.1577 14.6244 13.1495C14.6248 13.1414 14.625 13.1332 14.625 13.125L14.625 7.5C14.625 7.49181 14.6248 7.48364 14.6244 7.47547C14.624 7.4673 14.6234 7.45913 14.6226 7.45098C14.6218 7.44284 14.6208 7.43473 14.6196 7.42664C14.6184 7.41855 14.617 7.41048 14.6154 7.40245C14.6138 7.39444 14.612 7.38645 14.61 7.37852C14.608 7.37058 14.6058 7.36269 14.6035 7.35486C14.6011 7.34703 14.5985 7.33925 14.5958 7.33155C14.593 7.32384 14.5901 7.31622 14.5869 7.30866C14.5838 7.30109 14.5805 7.29361 14.577 7.28622C14.5735 7.27883 14.5698 7.27152 14.5659 7.2643C14.5621 7.25708 14.5581 7.24997 14.5538 7.24295C14.5496 7.23594 14.5453 7.22902 14.5407 7.22222C14.5362 7.21542 14.5315 7.20873 14.5266 7.20216C14.5217 7.19558 14.5167 7.18913 14.5115 7.1828C14.5063 7.17647 14.501 7.17028 14.4955 7.16422C14.49 7.15816 14.4843 7.15223 14.4785 7.14645C14.4728 7.14066 14.4668 7.13502 14.4608 7.12953C14.4547 7.12403 14.4485 7.11869 14.4422 7.1135C14.4359 7.1083 14.4294 7.10327 14.4228 7.09839C14.4163 7.09352 14.4096 7.08881 14.4028 7.08427C14.396 7.07972 14.3891 7.07534 14.382 7.07114C14.375 7.06694 14.3679 7.06291 14.3607 7.05905C14.3535 7.05519 14.3462 7.0515 14.3388 7.048C14.3314 7.0445 14.3239 7.04119 14.3163 7.03806C14.3088 7.03492 14.3011 7.03198 14.2934 7.02923C14.2857 7.02647 14.278 7.02391 14.2701 7.02153C14.2623 7.01916 14.2544 7.01697 14.2465 7.01498C14.2385 7.013 14.2306 7.0112 14.2225 7.00961C14.2145 7.00802 14.2064 7.00661 14.1983 7.00541C14.1903 7.0042 14.1821 7.0032 14.174 7.00241C14.1659 7.00161 14.1577 7.001 14.1495 7.00061C14.1414 7.0002 14.1332 7 14.125 7ZM10.5295 7.2915C10.346 6.892 9.77299 6.9065 9.61049 7.3155L7.53549 12.5305C7.53246 12.5381 7.52963 12.5458 7.52697 12.5535C7.52432 12.5613 7.52186 12.5691 7.5196 12.5769C7.51733 12.5848 7.51525 12.5927 7.51338 12.6007C7.5115 12.6087 7.50982 12.6167 7.50833 12.6247C7.50685 12.6328 7.50557 12.6409 7.50447 12.649C7.50338 12.6571 7.50249 12.6652 7.5018 12.6734C7.50111 12.6815 7.50063 12.6897 7.50033 12.6979C7.50005 12.7061 7.49996 12.7142 7.50007 12.7224C7.50019 12.7306 7.5005 12.7388 7.50102 12.747C7.50153 12.7551 7.50225 12.7633 7.50316 12.7714C7.50408 12.7796 7.50519 12.7877 7.5065 12.7957C7.50782 12.8038 7.50933 12.8119 7.51103 12.8199C7.51275 12.8279 7.51464 12.8358 7.51674 12.8438C7.51885 12.8517 7.52114 12.8595 7.52361 12.8673C7.52611 12.8751 7.52879 12.8829 7.53164 12.8905C7.53452 12.8982 7.53757 12.9058 7.5408 12.9133C7.54403 12.9208 7.54746 12.9283 7.55105 12.9356C7.55466 12.943 7.55844 12.9502 7.56239 12.9574C7.56636 12.9646 7.57049 12.9716 7.5748 12.9786C7.57911 12.9855 7.58358 12.9924 7.58822 12.9991C7.59286 13.0059 7.59766 13.0125 7.60263 13.019C7.6076 13.0255 7.61272 13.0319 7.618 13.0382C7.62329 13.0444 7.62872 13.0505 7.6343 13.0565C7.63988 13.0625 7.6456 13.0684 7.65147 13.0741C7.65735 13.0798 7.66335 13.0853 7.66949 13.0908C7.67563 13.0962 7.68189 13.1014 7.6883 13.1065C7.69471 13.1116 7.70122 13.1166 7.70786 13.1214C7.7145 13.1262 7.72125 13.1308 7.72813 13.1352C7.735 13.1397 7.74197 13.144 7.74905 13.1481C7.75614 13.1522 7.76332 13.1561 7.77058 13.1599C7.77786 13.1636 7.78522 13.1672 7.79266 13.1706C7.80011 13.174 7.80764 13.1772 7.81524 13.1803C7.82285 13.1833 7.83052 13.1861 7.83827 13.1888C7.84602 13.1914 7.85382 13.1939 7.86169 13.1961C7.86957 13.1984 7.87747 13.2005 7.88544 13.2024C7.89341 13.2043 7.90141 13.2059 7.90946 13.2074C7.91752 13.2089 7.9256 13.2102 7.93371 13.2113C7.94183 13.2124 7.94996 13.2133 7.95811 13.2139C7.96627 13.2146 7.97444 13.2151 7.98263 13.2154C7.99082 13.2157 7.99899 13.2158 8.00718 13.2157C8.01536 13.2156 8.02355 13.2153 8.03171 13.2147C8.03988 13.2142 8.04803 13.2135 8.05616 13.2126C8.0643 13.2117 8.07241 13.2105 8.08049 13.2092C8.08858 13.2079 8.09661 13.2064 8.10461 13.2047C8.11263 13.203 8.1206 13.2011 8.1285 13.199C8.13641 13.1969 8.14427 13.1946 8.15207 13.1921C8.15988 13.1896 8.16761 13.187 8.17527 13.1841C8.18294 13.1812 8.19053 13.1782 8.19805 13.1749C8.20558 13.1717 8.21302 13.1683 8.22036 13.1647C8.22771 13.1611 8.23497 13.1573 8.24213 13.1533C8.2493 13.1494 8.25636 13.1453 8.26333 13.1409C8.2703 13.1366 8.27714 13.1322 8.28388 13.1275C8.29063 13.1229 8.29725 13.1181 8.30375 13.1131C8.31027 13.1081 8.31666 13.103 8.32291 13.0977C8.32916 13.0925 8.33529 13.087 8.34127 13.0814C8.34727 13.0759 8.35311 13.0701 8.35882 13.0643C8.36454 13.0584 8.3701 13.0524 8.3755 13.0463C8.38091 13.0401 8.38618 13.0338 8.39127 13.0274C8.39638 13.021 8.40133 13.0145 8.40611 13.0079C8.41089 13.0012 8.41552 12.9945 8.41997 12.9876C8.42443 12.9808 8.42871 12.9738 8.43282 12.9667C8.43693 12.9596 8.44086 12.9524 8.44461 12.9452C8.44838 12.9379 8.45196 12.9305 8.45535 12.9231C8.45875 12.9156 8.46196 12.9081 8.46499 12.9005L8.97449 11.6205C8.98349 11.621 8.99149 11.6255 9.00049 11.6255L11.42 11.6255L12.0165 12.924C12.0199 12.9314 12.0235 12.9388 12.0273 12.946C12.0311 12.9533 12.035 12.9605 12.0391 12.9675C12.0433 12.9746 12.0476 12.9815 12.052 12.9884C12.0565 12.9952 12.0611 13.002 12.0659 13.0086C12.0708 13.0152 12.0757 13.0217 12.0808 13.0281C12.086 13.0345 12.0912 13.0407 12.0966 13.0469C12.1021 13.053 12.1076 13.059 12.1134 13.0648C12.1191 13.0707 12.125 13.0764 12.131 13.0819C12.137 13.0875 12.1431 13.0929 12.1493 13.0982C12.1556 13.1034 12.162 13.1085 12.1685 13.1135C12.1751 13.1184 12.1817 13.1232 12.1884 13.1278C12.1952 13.1325 12.2021 13.1369 12.209 13.1412C12.216 13.1455 12.2231 13.1496 12.2302 13.1535C12.2374 13.1575 12.2447 13.1612 12.252 13.1648C12.2594 13.1684 12.2668 13.1718 12.2743 13.175C12.2819 13.1782 12.2895 13.1812 12.2971 13.1841C12.3048 13.1869 12.3126 13.1896 12.3204 13.192C12.3282 13.1945 12.336 13.1967 12.3439 13.1988C12.3518 13.2009 12.3598 13.2028 12.3678 13.2045C12.3758 13.2061 12.3839 13.2076 12.3919 13.2089C12.4 13.2102 12.4081 13.2113 12.4163 13.2122C12.4244 13.2131 12.4326 13.2138 12.4407 13.2143C12.4489 13.2148 12.4571 13.215 12.4652 13.2151C12.4734 13.2152 12.4816 13.2151 12.4898 13.2148C12.498 13.2145 12.5061 13.214 12.5143 13.2133C12.5224 13.2126 12.5306 13.2116 12.5386 13.2105C12.5468 13.2094 12.5548 13.2081 12.5629 13.2066C12.5709 13.2051 12.5789 13.2034 12.5869 13.2015C12.5948 13.1996 12.6027 13.1975 12.6106 13.1952C12.6184 13.1929 12.6262 13.1905 12.634 13.1878C12.6417 13.1851 12.6494 13.1823 12.6569 13.1792C12.6645 13.1762 12.6721 13.1729 12.6795 13.1695C12.6869 13.1661 12.6943 13.1625 12.7015 13.1587C12.7088 13.1549 12.7159 13.151 12.723 13.1469C12.7301 13.1427 12.737 13.1384 12.7439 13.134C12.7507 13.1295 12.7575 13.1248 12.7641 13.12C12.7707 13.1152 12.7772 13.1103 12.7836 13.1052C12.79 13.1 12.7962 13.0948 12.8024 13.0893C12.8085 13.0839 12.8145 13.0783 12.8203 13.0726C12.8262 13.0669 12.8319 13.061 12.8374 13.055C12.843 13.049 12.8484 13.0429 12.8537 13.0366C12.8589 13.0304 12.864 13.024 12.869 13.0175C12.8739 13.0109 12.8787 13.0043 12.8833 12.9976C12.8879 12.9908 12.8924 12.9839 12.8967 12.977C12.901 12.97 12.9051 12.9629 12.909 12.9558C12.9129 12.9486 12.9167 12.9413 12.9203 12.934C12.9239 12.9266 12.9273 12.9192 12.9305 12.9116C12.9337 12.9041 12.9367 12.8965 12.9396 12.8888C12.9424 12.8812 12.9451 12.8734 12.9475 12.8656C12.95 12.8578 12.9522 12.85 12.9543 12.8421C12.9564 12.8341 12.9583 12.8262 12.96 12.8182C12.9616 12.8102 12.9631 12.8021 12.9644 12.794C12.9657 12.786 12.9668 12.7779 12.9677 12.7697C12.9686 12.7616 12.9693 12.7535 12.9698 12.7453C12.9703 12.7371 12.9705 12.7289 12.9706 12.7208C12.9707 12.7126 12.9706 12.7044 12.9703 12.6962C12.97 12.688 12.9695 12.6799 12.9688 12.6717C12.9681 12.6636 12.9671 12.6555 12.966 12.6474C12.9649 12.6392 12.9636 12.6312 12.9621 12.6231C12.9606 12.6151 12.9589 12.6071 12.957 12.5991C12.9551 12.5912 12.953 12.5833 12.9507 12.5754C12.9484 12.5675 12.9459 12.5598 12.9433 12.552C12.9406 12.5443 12.9377 12.5366 12.9347 12.529C12.9316 12.5215 12.9284 12.5139 12.925 12.5065L10.5295 7.2915ZM9.36999 10.625L10.1085 8.77L10.9605 10.625L9.36999 10.625Z" >
</path>
</svg>
