<svg xmlns="http://www.w3.org/2000/svg" xmlns:xlink="http://www.w3.org/1999/xlink" width="16" height="16" viewBox="0 0 16 16" fill="none">
<path d="M12.0734 3.40159C12.0734 3.40979 12.0736 3.418 12.074 3.4262C12.0745 3.43439 12.0751 3.44258 12.0759 3.45074C12.0767 3.45892 12.0777 3.46707 12.0789 3.47518C12.0801 3.48331 12.0815 3.49139 12.0831 3.49943C12.0847 3.50748 12.0865 3.51549 12.0885 3.52346C12.0905 3.53142 12.0927 3.53933 12.0951 3.54718C12.0975 3.55504 12.1001 3.56283 12.1028 3.57056C12.1056 3.57829 12.1086 3.58594 12.1117 3.59352C12.1149 3.60111 12.1182 3.60861 12.1217 3.61602C12.1253 3.62345 12.129 3.63079 12.1328 3.63802C12.1367 3.64526 12.1408 3.6524 12.145 3.65945C12.1492 3.66649 12.1537 3.67342 12.1582 3.68024C12.1628 3.68707 12.1676 3.69377 12.1725 3.70037C12.1774 3.70696 12.1824 3.71343 12.1876 3.71977C12.1929 3.72612 12.1982 3.73233 12.2038 3.73842C12.2093 3.7445 12.215 3.75044 12.2208 3.75624C12.2266 3.76204 12.2326 3.76771 12.2387 3.77323C12.2448 3.77874 12.251 3.7841 12.2574 3.78931C12.2637 3.79451 12.2702 3.79956 12.2768 3.80445C12.2835 3.80933 12.2902 3.81406 12.297 3.81862C12.3039 3.82318 12.3108 3.82757 12.3179 3.83179C12.325 3.83601 12.3321 3.84006 12.3394 3.84393C12.3467 3.84779 12.354 3.85148 12.3615 3.85499C12.3689 3.8585 12.3764 3.86183 12.384 3.86498C12.3916 3.86811 12.3993 3.87107 12.4071 3.87384C12.4148 3.8766 12.4226 3.87917 12.4305 3.88156C12.4384 3.88394 12.4463 3.88613 12.4543 3.88812C12.4623 3.89011 12.4703 3.8919 12.4784 3.89351C12.4865 3.89511 12.4946 3.89652 12.5027 3.89773C12.5109 3.89893 12.5191 3.89993 12.5273 3.90073C12.5355 3.90154 12.5437 3.90214 12.5519 3.90254C12.5601 3.90295 12.5683 3.90315 12.5766 3.90315C12.5848 3.90315 12.593 3.90295 12.6013 3.90254C12.6095 3.90214 12.6177 3.90154 12.6259 3.90073C12.6341 3.89993 12.6422 3.89893 12.6504 3.89773C12.6585 3.89652 12.6666 3.89511 12.6747 3.89351C12.6828 3.8919 12.6908 3.89011 12.6988 3.88812C12.7068 3.88613 12.7147 3.88394 12.7226 3.88156C12.7305 3.87917 12.7383 3.8766 12.7461 3.87384C12.7538 3.87107 12.7615 3.86811 12.7691 3.86498C12.7767 3.86183 12.7842 3.8585 12.7917 3.85499C12.7991 3.85148 12.8065 3.84779 12.8137 3.84393C12.821 3.84006 12.8282 3.83601 12.8352 3.83179C12.8423 3.82757 12.8492 3.82318 12.8561 3.81862C12.8629 3.81406 12.8697 3.80933 12.8763 3.80445C12.8829 3.79956 12.8894 3.79451 12.8958 3.78931C12.9021 3.7841 12.9083 3.77874 12.9144 3.77323C12.9205 3.76771 12.9265 3.76204 12.9323 3.75624C12.9382 3.75044 12.9438 3.7445 12.9494 3.73842C12.9549 3.73233 12.9603 3.72612 12.9655 3.71977C12.9707 3.71343 12.9758 3.70696 12.9807 3.70037C12.9856 3.69377 12.9903 3.68707 12.9949 3.68024C12.9995 3.67342 13.0039 3.66649 13.0081 3.65945C13.0123 3.6524 13.0164 3.64526 13.0203 3.63802C13.0242 3.63079 13.0279 3.62345 13.0314 3.61602C13.0349 3.60861 13.0382 3.60111 13.0414 3.59352C13.0445 3.58594 13.0475 3.57829 13.0503 3.57056C13.0531 3.56283 13.0556 3.55504 13.058 3.54718C13.0604 3.53933 13.0626 3.53142 13.0646 3.52346C13.0666 3.51549 13.0684 3.50748 13.07 3.49943C13.0716 3.49139 13.073 3.48331 13.0742 3.47518C13.0754 3.46707 13.0765 3.45892 13.0773 3.45074C13.0781 3.44258 13.0787 3.43439 13.0791 3.4262C13.0795 3.418 13.0797 3.40979 13.0797 3.40159C13.0797 3.39338 13.0795 3.38518 13.0791 3.37698C13.0787 3.36878 13.0781 3.3606 13.0773 3.35243C13.0765 3.34425 13.0754 3.33611 13.0742 3.32799C13.073 3.31987 13.0716 3.31179 13.07 3.30374C13.0684 3.29569 13.0666 3.28768 13.0646 3.27971C13.0626 3.27175 13.0604 3.26385 13.058 3.25599C13.0556 3.24814 13.0531 3.24035 13.0503 3.23262C13.0475 3.22489 13.0445 3.21723 13.0414 3.20965C13.0382 3.20207 13.0349 3.19456 13.0314 3.18713C13.0279 3.17972 13.0242 3.17239 13.0203 3.16515C13.0164 3.15791 13.0123 3.15077 13.0081 3.14373C13.0039 3.13669 12.9995 3.12975 12.9949 3.12293C12.9903 3.11611 12.9856 3.1094 12.9807 3.10281C12.9758 3.09621 12.9707 3.08974 12.9655 3.0834C12.9603 3.07706 12.9549 3.07084 12.9494 3.06476C12.9438 3.05868 12.9382 3.05273 12.9323 3.04693C12.9265 3.04113 12.9205 3.03547 12.9144 3.02995C12.9083 3.02444 12.9021 3.01908 12.8957 3.01387C12.8894 3.00866 12.8829 3.00361 12.8763 2.99873C12.8697 2.99384 12.8629 2.98912 12.8561 2.98456C12.8492 2.97999 12.8423 2.9756 12.8352 2.97138C12.8282 2.96716 12.821 2.96312 12.8137 2.95924C12.8065 2.95538 12.7991 2.95169 12.7917 2.94818C12.7842 2.94467 12.7767 2.94134 12.7691 2.9382C12.7615 2.93506 12.7538 2.93211 12.7461 2.92934C12.7383 2.92658 12.7305 2.924 12.7226 2.92162C12.7147 2.91923 12.7068 2.91705 12.6988 2.91506C12.6908 2.91306 12.6828 2.91126 12.6747 2.90966C12.6666 2.90806 12.6585 2.90665 12.6504 2.90545C12.6422 2.90425 12.6341 2.90325 12.6259 2.90245C12.6177 2.90163 12.6095 2.90103 12.6013 2.90063C12.593 2.90023 12.5848 2.90002 12.5766 2.90002C12.5683 2.90002 12.5601 2.90023 12.5519 2.90063C12.5437 2.90103 12.5355 2.90163 12.5273 2.90245C12.5191 2.90325 12.5109 2.90425 12.5027 2.90545C12.4946 2.90665 12.4865 2.90806 12.4784 2.90966C12.4703 2.91126 12.4623 2.91306 12.4543 2.91506C12.4463 2.91705 12.4384 2.91923 12.4305 2.92162C12.4226 2.924 12.4148 2.92658 12.4071 2.92934C12.3993 2.93211 12.3916 2.93506 12.384 2.9382C12.3764 2.94134 12.3689 2.94467 12.3615 2.94818C12.354 2.95169 12.3467 2.95538 12.3394 2.95924C12.3321 2.96312 12.325 2.96716 12.3179 2.97138C12.3108 2.9756 12.3039 2.97999 12.297 2.98456C12.2902 2.98912 12.2835 2.99384 12.2768 2.99873C12.2702 3.00361 12.2637 3.00866 12.2574 3.01387C12.251 3.01908 12.2448 3.02444 12.2387 3.02995C12.2326 3.03547 12.2266 3.04113 12.2208 3.04693C12.215 3.05273 12.2093 3.05868 12.2038 3.06476C12.1982 3.07084 12.1929 3.07706 12.1876 3.0834C12.1824 3.08974 12.1774 3.09621 12.1725 3.10281C12.1676 3.1094 12.1628 3.11611 12.1582 3.12293C12.1537 3.12975 12.1492 3.13669 12.145 3.14373C12.1408 3.15077 12.1367 3.15791 12.1328 3.16515C12.129 3.17239 12.1253 3.17972 12.1218 3.18713C12.1182 3.19456 12.1149 3.20207 12.1117 3.20965C12.1086 3.21723 12.1056 3.22489 12.1028 3.23262C12.1001 3.24035 12.0975 3.24814 12.0951 3.25599C12.0927 3.26385 12.0905 3.27175 12.0885 3.27971C12.0865 3.28768 12.0847 3.29569 12.0831 3.30374C12.0815 3.31179 12.0801 3.31987 12.0789 3.32799C12.0777 3.33611 12.0767 3.34425 12.0759 3.35243C12.0751 3.3606 12.0745 3.36878 12.074 3.37698C12.0736 3.38518 12.0734 3.39338 12.0734 3.40159Z"   fill="#4D4D4D" >
</path>
<path d="M6.49688 10.6234C6.58907 10.6234 6.67657 10.5984 6.75 10.5531L10.3609 8.44995C10.5313 8.3687 10.65 8.19526 10.65 7.9937C10.65 7.80776 10.55 7.64526 10.4 7.55933L6.87032 5.50308C6.77969 5.39839 6.64532 5.33276 6.49688 5.33276C6.22188 5.33276 6 5.55776 6 5.83433C6 5.8437 6 5.85308 6.00157 5.86245L5.99532 5.86558L6.00313 10.0687C6.00157 10.0859 6 10.1031 6 10.1218C6 10.3984 6.22344 10.6234 6.49688 10.6234Z"   fill="#4D4D4D" >
</path>
<path d="M14.2156 4.79063C14.1312 4.62656 13.9609 4.5125 13.7641 4.5125C13.4859 4.5125 13.2609 4.7375 13.2609 5.01406C13.2609 5.10781 13.2875 5.19688 13.3328 5.27187L13.3312 5.27344C13.7516 6.09219 13.9891 7.02031 13.9891 8.00313C13.9891 11.3094 11.3078 13.9906 8.00156 13.9906C4.69531 13.9906 2.0125 11.3094 2.0125 8.00313C2.0125 4.69688 4.69375 2.01719 8 2.01719C8.97656 2.01719 9.89843 2.25156 10.7125 2.66563L10.7156 2.65937C10.7875 2.7 10.8719 2.72344 10.9609 2.72344C11.2391 2.72344 11.4641 2.49844 11.4641 2.22187C11.4641 2.01719 11.3406 1.84063 11.1625 1.7625C10.2125 1.27969 9.13906 1.00781 8 1.00781C4.13593 1.00781 1.00468 4.14062 1.00468 8.00313C1.00468 11.8656 4.13593 14.9984 8 14.9984C11.8641 14.9984 14.9953 11.8672 14.9953 8.00313C14.9953 6.84531 14.7141 5.75313 14.2156 4.79063Z"   fill="#4D4D4D" >
</path>
</svg>
