<svg xmlns="http://www.w3.org/2000/svg" xmlns:xlink="http://www.w3.org/1999/xlink" width="16" height="16" viewBox="0 0 16 16" fill="current">
<path d="M11.25 3L2.75 3C2.72955 3.00002 2.70911 3.00055 2.68869 3.00158C2.66826 3.00259 2.64787 3.00413 2.62753 3.00616C2.60718 3.00817 2.58689 3.0107 2.56666 3.01372C2.54644 3.01673 2.5263 3.02025 2.50623 3.02427C2.48618 3.02828 2.46624 3.03277 2.44641 3.03775C2.42657 3.04273 2.40688 3.0482 2.38731 3.05416C2.36775 3.06011 2.34834 3.06655 2.32909 3.07344C2.30984 3.08034 2.29077 3.08772 2.27187 3.09555C2.25299 3.10339 2.23431 3.11169 2.21583 3.12044C2.19734 3.12919 2.17908 3.13839 2.16105 3.14805C2.14302 3.15769 2.12523 3.16778 2.1077 3.1783C2.09016 3.18881 2.07289 3.19977 2.05589 3.21112C2.03889 3.22248 2.02218 3.23427 2.00575 3.24645C1.98933 3.25864 1.97322 3.27122 1.95741 3.28419C1.9416 3.29717 1.92613 3.31053 1.91097 3.32427C1.89582 3.338 1.88102 3.35209 1.86655 3.36656C1.85209 3.38102 1.838 3.39583 1.82427 3.41097C1.81053 3.42613 1.79717 3.44161 1.78419 3.45741C1.77122 3.47322 1.75864 3.48933 1.74645 3.50575C1.73427 3.52217 1.72249 3.53889 1.71113 3.55589C1.69976 3.57289 1.68882 3.59016 1.6783 3.6077C1.66778 3.62523 1.65769 3.64302 1.64805 3.66105C1.63839 3.67908 1.62919 3.69734 1.62044 3.71583C1.61169 3.73431 1.60339 3.75298 1.59555 3.77187C1.58771 3.79077 1.58034 3.80984 1.57344 3.82909C1.56654 3.84834 1.56012 3.86775 1.55416 3.88731C1.54821 3.90687 1.54274 3.92658 1.53776 3.94641C1.53277 3.96623 1.52827 3.98619 1.52427 4.00623C1.52026 4.0263 1.51674 4.04644 1.51372 4.06666C1.5107 4.08689 1.50818 4.10717 1.50615 4.12753C1.50413 4.14787 1.5026 4.16827 1.50158 4.18869C1.50055 4.20911 1.50002 4.22955 1.5 4.25L1.5 13.75C1.5 14.4395 2.061 15 2.75 15L11.25 15C11.9395 15 12.5 14.4395 12.5 13.75L12.5 4.25C12.5 3.561 11.9395 3 11.25 3ZM11.5 13.75C11.5 13.8875 11.3875 14 11.25 14L2.75 14C2.74591 14 2.74182 13.9999 2.73773 13.9997C2.73365 13.9995 2.72957 13.9992 2.7255 13.9988C2.72143 13.9984 2.71736 13.9979 2.71331 13.9973C2.70927 13.9967 2.70525 13.996 2.70123 13.9952C2.69721 13.9944 2.69322 13.9935 2.68925 13.9925C2.68528 13.9915 2.68134 13.9904 2.67742 13.9892C2.67352 13.988 2.66964 13.9868 2.66578 13.9854C2.66193 13.984 2.65811 13.9825 2.65433 13.981C2.65055 13.9794 2.64681 13.9777 2.64311 13.976C2.63941 13.9742 2.63576 13.9724 2.63216 13.9705C2.62854 13.9685 2.62498 13.9665 2.62147 13.9644C2.61796 13.9623 2.6145 13.9601 2.61111 13.9579C2.6077 13.9556 2.60436 13.9532 2.60108 13.9508C2.59779 13.9484 2.59456 13.9458 2.59141 13.9432C2.58824 13.9407 2.58514 13.938 2.58211 13.9352C2.57908 13.9325 2.57611 13.9297 2.57322 13.9268C2.57033 13.9239 2.56752 13.9209 2.56477 13.9179C2.56202 13.9149 2.55934 13.9118 2.55675 13.9086C2.55416 13.9054 2.55164 13.9022 2.5492 13.8989C2.54677 13.8956 2.54441 13.8923 2.54212 13.8889C2.53985 13.8855 2.53767 13.882 2.53556 13.8785C2.53346 13.875 2.53144 13.8715 2.52952 13.8678C2.52759 13.8642 2.52575 13.8606 2.524 13.8569C2.52225 13.8532 2.52059 13.8495 2.51903 13.8457C2.51747 13.8419 2.516 13.8381 2.51461 13.8342C2.51323 13.8304 2.51195 13.8265 2.51077 13.8226C2.50958 13.8187 2.50848 13.8147 2.50748 13.8108C2.5065 13.8068 2.5056 13.8028 2.5048 13.7988C2.504 13.7948 2.50331 13.7907 2.5027 13.7867C2.50211 13.7826 2.50161 13.7786 2.5012 13.7745C2.50081 13.7704 2.5005 13.7663 2.5003 13.7623C2.5001 13.7582 2.5 13.7541 2.5 13.75L2.5 4.25C2.5 4.24591 2.5001 4.24181 2.5003 4.23773C2.5005 4.23366 2.50081 4.22958 2.5012 4.2255C2.50161 4.22142 2.50211 4.21736 2.5027 4.21331C2.50331 4.20927 2.504 4.20525 2.5048 4.20123C2.5056 4.19722 2.5065 4.19322 2.50748 4.18925C2.50848 4.18528 2.50958 4.18134 2.51077 4.17742C2.51195 4.17352 2.51323 4.16964 2.51461 4.16578C2.516 4.16192 2.51747 4.15811 2.51903 4.15433C2.52059 4.15055 2.52225 4.14681 2.524 4.14311C2.52575 4.13941 2.52759 4.13577 2.52952 4.13216C2.53144 4.12855 2.53346 4.12498 2.53556 4.12147C2.53767 4.11795 2.53985 4.1145 2.54212 4.11111C2.54441 4.1077 2.54677 4.10436 2.5492 4.10108C2.55164 4.09778 2.55416 4.09456 2.55675 4.09141C2.55934 4.08823 2.56202 4.08514 2.56477 4.08211C2.56752 4.07908 2.57033 4.07611 2.57322 4.07322C2.57611 4.07033 2.57908 4.06752 2.58211 4.06477C2.58514 4.06202 2.58824 4.05934 2.59141 4.05675C2.59456 4.05416 2.59779 4.05164 2.60108 4.0492C2.60436 4.04677 2.6077 4.04441 2.61111 4.04212C2.6145 4.03986 2.61796 4.03767 2.62147 4.03556C2.62498 4.03345 2.62854 4.03144 2.63216 4.02952C2.63576 4.02759 2.63941 4.02575 2.64311 4.024C2.64681 4.02225 2.65055 4.02059 2.65433 4.01903C2.65811 4.01747 2.66193 4.016 2.66578 4.01461C2.66964 4.01323 2.67352 4.01195 2.67742 4.01077C2.68134 4.00958 2.68528 4.00848 2.68925 4.00748C2.69322 4.0065 2.69721 4.00559 2.70123 4.0048C2.70525 4.004 2.70927 4.00331 2.71331 4.0027C2.71736 4.00211 2.72143 4.00161 2.7255 4.0012C2.72957 4.00081 2.73365 4.0005 2.73773 4.0003C2.74182 4.00009 2.74591 4 2.75 4L11.25 4C11.2541 4 11.2582 4.00009 11.2623 4.0003C11.2663 4.0005 11.2704 4.00081 11.2745 4.0012C11.2786 4.00161 11.2826 4.00211 11.2867 4.0027C11.2907 4.00331 11.2948 4.004 11.2988 4.0048C11.3028 4.00559 11.3068 4.0065 11.3108 4.00748C11.3147 4.00848 11.3187 4.00958 11.3226 4.01077C11.3265 4.01195 11.3304 4.01323 11.3342 4.01461C11.3381 4.016 11.3419 4.01747 11.3457 4.01903C11.3495 4.02059 11.3532 4.02225 11.3569 4.024C11.3606 4.02575 11.3642 4.02759 11.3678 4.02952C11.3715 4.03144 11.375 4.03345 11.3785 4.03556C11.382 4.03767 11.3855 4.03986 11.3889 4.04212C11.3923 4.04441 11.3956 4.04677 11.3989 4.0492C11.4022 4.05164 11.4054 4.05416 11.4086 4.05675C11.4118 4.05934 11.4149 4.06202 11.4179 4.06477C11.4209 4.06752 11.4239 4.07033 11.4268 4.07322C11.4297 4.07611 11.4325 4.07908 11.4352 4.08211C11.438 4.08514 11.4407 4.08823 11.4432 4.09141C11.4458 4.09456 11.4484 4.09778 11.4508 4.10108C11.4532 4.10436 11.4556 4.1077 11.4579 4.11111C11.4601 4.1145 11.4623 4.11795 11.4644 4.12147C11.4665 4.12498 11.4686 4.12855 11.4705 4.13216C11.4724 4.13577 11.4742 4.13941 11.476 4.14311C11.4777 4.14681 11.4794 4.15055 11.481 4.15433C11.4825 4.15811 11.484 4.16192 11.4854 4.16578C11.4868 4.16964 11.488 4.17352 11.4892 4.17742C11.4904 4.18134 11.4915 4.18528 11.4925 4.18925C11.4935 4.19322 11.4944 4.19722 11.4952 4.20123C11.496 4.20525 11.4967 4.20927 11.4973 4.21331C11.4979 4.21736 11.4984 4.22142 11.4988 4.2255C11.4992 4.22958 11.4995 4.23366 11.4997 4.23773C11.4999 4.24181 11.5 4.24591 11.5 4.25L11.5 13.75ZM13.25 1L4.75 1C4.74181 1 4.73364 1.0002 4.72547 1.0006C4.7173 1.001 4.70913 1.00161 4.70098 1.00241C4.69284 1.00321 4.68473 1.00421 4.67664 1.00541C4.66855 1.00661 4.66048 1.00801 4.65245 1.00961C4.64444 1.0112 4.63645 1.013 4.62852 1.01498C4.62058 1.01697 4.61269 1.01915 4.60486 1.02153C4.59703 1.0239 4.58927 1.02647 4.58156 1.02923C4.57386 1.03198 4.56622 1.03493 4.55866 1.03806C4.55109 1.04119 4.54361 1.04451 4.53622 1.048C4.52883 1.0515 4.52152 1.05518 4.5143 1.05904C4.50708 1.0629 4.49997 1.06693 4.49295 1.07114C4.48594 1.07534 4.47902 1.07972 4.47222 1.08427C4.46542 1.08881 4.45873 1.09352 4.45216 1.0984C4.44558 1.10327 4.43913 1.1083 4.4328 1.1135C4.42647 1.11869 4.42028 1.12403 4.41422 1.12952C4.40816 1.13502 4.40223 1.14066 4.39645 1.14645C4.39066 1.15223 4.38502 1.15816 4.37953 1.16422C4.37403 1.17028 4.36869 1.17648 4.3635 1.1828C4.3583 1.18913 4.35327 1.19558 4.34839 1.20215C4.34352 1.20872 4.33881 1.21541 4.33427 1.22221C4.32972 1.22902 4.32534 1.23593 4.32114 1.24295C4.31694 1.24997 4.31291 1.25708 4.30905 1.2643C4.30519 1.27152 4.3015 1.27883 4.298 1.28622C4.2945 1.29362 4.29119 1.3011 4.28806 1.30866C4.28492 1.31622 4.28198 1.32385 4.27923 1.33155C4.27647 1.33926 4.27391 1.34703 4.27153 1.35486C4.26916 1.36269 4.26697 1.37057 4.26498 1.37851C4.263 1.38645 4.2612 1.39443 4.25961 1.40245C4.25802 1.41048 4.25661 1.41854 4.25541 1.42663C4.2542 1.43473 4.2532 1.44285 4.25241 1.45099C4.25161 1.45913 4.251 1.46729 4.25061 1.47547C4.2502 1.48364 4.25 1.49182 4.25 1.5C4.25 1.50818 4.2502 1.51636 4.25061 1.52453C4.251 1.53271 4.25161 1.54087 4.25241 1.54901C4.2532 1.55715 4.2542 1.56527 4.25541 1.57336C4.25661 1.58145 4.25802 1.58952 4.25961 1.59755C4.2612 1.60557 4.263 1.61355 4.26498 1.62148C4.26697 1.62942 4.26916 1.63731 4.27153 1.64514C4.27391 1.65297 4.27647 1.66074 4.27923 1.66844C4.28198 1.67615 4.28492 1.68378 4.28806 1.69134C4.29119 1.69891 4.2945 1.70639 4.298 1.71378C4.3015 1.72118 4.30519 1.72848 4.30905 1.7357C4.31291 1.74291 4.31694 1.75003 4.32114 1.75705C4.32534 1.76407 4.32972 1.77098 4.33427 1.77778C4.33881 1.78458 4.34352 1.79127 4.34839 1.79784C4.35327 1.80442 4.3583 1.81087 4.3635 1.8172C4.36869 1.82353 4.37403 1.82972 4.37953 1.83578C4.38502 1.84184 4.39066 1.84777 4.39645 1.85355C4.40223 1.85934 4.40816 1.86498 4.41422 1.87047C4.42028 1.87597 4.42647 1.88131 4.4328 1.8865C4.43913 1.8917 4.44558 1.89673 4.45216 1.90161C4.45873 1.90648 4.46542 1.91119 4.47222 1.91573C4.47902 1.92028 4.48594 1.92465 4.49295 1.92886C4.49997 1.93307 4.50708 1.9371 4.5143 1.94095C4.52152 1.94482 4.52883 1.9485 4.53622 1.952C4.54361 1.9555 4.55109 1.95881 4.55866 1.96194C4.56622 1.96507 4.57384 1.96802 4.58155 1.97077C4.58925 1.97353 4.59703 1.97609 4.60486 1.97847C4.61269 1.98084 4.62058 1.98303 4.62852 1.98502C4.63645 1.987 4.64444 1.9888 4.65245 1.99039C4.66048 1.99198 4.66855 1.99339 4.67664 1.99459C4.68473 1.99579 4.69284 1.99679 4.70098 1.99759C4.70913 1.9984 4.7173 1.999 4.72547 1.99939C4.73364 1.9998 4.74181 2 4.75 2L13.25 2C13.2541 2 13.2582 2.0001 13.2623 2.0003C13.2663 2.0005 13.2704 2.00081 13.2745 2.0012C13.2786 2.00161 13.2826 2.00211 13.2867 2.0027C13.2907 2.00331 13.2948 2.004 13.2988 2.0048C13.3028 2.0056 13.3068 2.0065 13.3108 2.00748C13.3147 2.00848 13.3187 2.00958 13.3226 2.01077C13.3265 2.01195 13.3304 2.01323 13.3342 2.01461C13.3381 2.016 13.3419 2.01747 13.3457 2.01903C13.3495 2.02059 13.3532 2.02225 13.3569 2.024C13.3606 2.02575 13.3642 2.02759 13.3678 2.02952C13.3715 2.03144 13.375 2.03346 13.3785 2.03556C13.382 2.03767 13.3855 2.03985 13.3889 2.04212C13.3923 2.04441 13.3956 2.04677 13.3989 2.0492C13.4022 2.05164 13.4054 2.05416 13.4086 2.05675C13.4118 2.05934 13.4149 2.06202 13.4179 2.06477C13.4209 2.06752 13.4239 2.07033 13.4268 2.07322C13.4297 2.07611 13.4325 2.07908 13.4352 2.08211C13.438 2.08514 13.4407 2.08824 13.4432 2.09141C13.4458 2.09456 13.4484 2.09779 13.4508 2.10108C13.4532 2.10436 13.4556 2.1077 13.4579 2.11111C13.4601 2.1145 13.4623 2.11796 13.4644 2.12147C13.4665 2.12498 13.4685 2.12854 13.4705 2.13216C13.4724 2.13576 13.4742 2.13941 13.476 2.14311C13.4777 2.14681 13.4794 2.15055 13.481 2.15433C13.4825 2.15811 13.484 2.16193 13.4854 2.16578C13.4868 2.16964 13.488 2.17352 13.4892 2.17742C13.4904 2.18134 13.4915 2.18528 13.4925 2.18925C13.4935 2.19322 13.4944 2.19721 13.4952 2.20123C13.496 2.20525 13.4967 2.20927 13.4973 2.21331C13.4979 2.21736 13.4984 2.22143 13.4988 2.2255C13.4992 2.22957 13.4995 2.23365 13.4997 2.23773C13.4999 2.24182 13.5 2.24591 13.5 2.25L13.5 11.75C13.5 11.7582 13.5002 11.7664 13.5006 11.7745C13.501 11.7827 13.5016 11.7909 13.5024 11.799C13.5032 11.8072 13.5042 11.8153 13.5054 11.8234C13.5066 11.8315 13.508 11.8395 13.5096 11.8475C13.5112 11.8556 13.513 11.8635 13.515 11.8715C13.517 11.8794 13.5192 11.8873 13.5215 11.8951C13.5239 11.903 13.5265 11.9107 13.5292 11.9184C13.532 11.9261 13.5349 11.9338 13.5381 11.9413C13.5412 11.9489 13.5445 11.9564 13.548 11.9638C13.5515 11.9712 13.5552 11.9785 13.559 11.9857C13.5629 11.9929 13.5669 12 13.5711 12.007C13.5753 12.0141 13.5797 12.021 13.5843 12.0278C13.5888 12.0346 13.5935 12.0413 13.5984 12.0478C13.6033 12.0544 13.6083 12.0609 13.6135 12.0672C13.6187 12.0735 13.624 12.0797 13.6295 12.0858C13.635 12.0918 13.6407 12.0978 13.6464 12.1035C13.6522 12.1093 13.6582 12.115 13.6642 12.1205C13.6703 12.126 13.6765 12.1313 13.6828 12.1365C13.6891 12.1417 13.6956 12.1467 13.7022 12.1516C13.7087 12.1565 13.7154 12.1612 13.7222 12.1657C13.729 12.1703 13.7359 12.1747 13.743 12.1789C13.75 12.1831 13.7571 12.1871 13.7643 12.191C13.7715 12.1948 13.7788 12.1985 13.7862 12.202C13.7936 12.2055 13.8011 12.2088 13.8087 12.2119C13.8162 12.2151 13.8238 12.218 13.8315 12.2208C13.8392 12.2235 13.847 12.2261 13.8549 12.2285C13.8627 12.2308 13.8706 12.233 13.8785 12.235C13.8865 12.237 13.8944 12.2388 13.9025 12.2404C13.9105 12.242 13.9185 12.2434 13.9266 12.2446C13.9347 12.2458 13.9429 12.2468 13.951 12.2476C13.9591 12.2484 13.9673 12.249 13.9755 12.2494C13.9836 12.2498 13.9918 12.25 14 12.25C14.0082 12.25 14.0164 12.2498 14.0245 12.2494C14.0327 12.249 14.0409 12.2484 14.049 12.2476C14.0572 12.2468 14.0653 12.2458 14.0734 12.2446C14.0815 12.2434 14.0895 12.242 14.0975 12.2404C14.1056 12.2388 14.1135 12.237 14.1215 12.235C14.1294 12.233 14.1373 12.2308 14.1451 12.2285C14.153 12.2261 14.1607 12.2235 14.1684 12.2208C14.1761 12.218 14.1838 12.2151 14.1913 12.2119C14.1989 12.2088 14.2064 12.2055 14.2138 12.202C14.2212 12.1985 14.2285 12.1948 14.2357 12.191C14.2429 12.1871 14.25 12.1831 14.257 12.1789C14.2641 12.1747 14.271 12.1703 14.2778 12.1657C14.2846 12.1612 14.2913 12.1565 14.2978 12.1516C14.3044 12.1467 14.3109 12.1417 14.3172 12.1365C14.3235 12.1313 14.3297 12.126 14.3358 12.1205C14.3418 12.115 14.3478 12.1093 14.3535 12.1035C14.3593 12.0978 14.365 12.0918 14.3705 12.0858C14.376 12.0797 14.3813 12.0735 14.3865 12.0672C14.3917 12.0609 14.3967 12.0544 14.4016 12.0478C14.4065 12.0413 14.4112 12.0346 14.4157 12.0278C14.4203 12.021 14.4247 12.0141 14.4289 12.007C14.4331 12 14.4371 11.9929 14.441 11.9857C14.4448 11.9785 14.4485 11.9712 14.452 11.9638C14.4555 11.9564 14.4588 11.9489 14.4619 11.9413C14.4651 11.9338 14.468 11.9261 14.4708 11.9184C14.4735 11.9107 14.4761 11.903 14.4785 11.8951C14.4808 11.8873 14.483 11.8794 14.485 11.8715C14.487 11.8635 14.4888 11.8556 14.4904 11.8475C14.492 11.8395 14.4934 11.8315 14.4946 11.8234C14.4958 11.8153 14.4968 11.8072 14.4976 11.799C14.4984 11.7909 14.499 11.7827 14.4994 11.7745C14.4998 11.7664 14.5 11.7582 14.5 11.75L14.5 2.25C14.5 1.561 13.9395 1 13.25 1ZM9.5 5.625L4.5 5.625C4.49181 5.625 4.48364 5.6252 4.47547 5.62561C4.4673 5.626 4.45913 5.62661 4.45098 5.62741C4.44284 5.6282 4.43473 5.6292 4.42664 5.63041C4.41855 5.63161 4.41048 5.63302 4.40245 5.63461C4.39444 5.6362 4.38645 5.638 4.37852 5.63998C4.37058 5.64197 4.36269 5.64416 4.35486 5.64653C4.34703 5.64891 4.33925 5.65147 4.33155 5.65423C4.32384 5.65698 4.31622 5.65992 4.30866 5.66306C4.30109 5.66619 4.29361 5.6695 4.28622 5.673C4.27883 5.6765 4.27152 5.68019 4.2643 5.68405C4.25708 5.68791 4.24997 5.69194 4.24295 5.69614C4.23594 5.70034 4.22902 5.70472 4.22222 5.70927C4.21542 5.71381 4.20873 5.71852 4.20216 5.72339C4.19558 5.72827 4.18913 5.7333 4.1828 5.7385C4.17647 5.74369 4.17028 5.74903 4.16422 5.75453C4.15816 5.76002 4.15223 5.76566 4.14645 5.77145C4.14066 5.77723 4.13502 5.78316 4.12953 5.78922C4.12403 5.79528 4.11869 5.80147 4.1135 5.8078C4.1083 5.81413 4.10327 5.82058 4.09839 5.82716C4.09352 5.83373 4.08881 5.84042 4.08427 5.84722C4.07972 5.85402 4.07534 5.86094 4.07114 5.86795C4.06694 5.87497 4.06291 5.88208 4.05905 5.8893C4.05519 5.89652 4.0515 5.90383 4.048 5.91122C4.0445 5.91861 4.04119 5.92609 4.03806 5.93366C4.03492 5.94122 4.03198 5.94884 4.02923 5.95655C4.02647 5.96425 4.02391 5.97203 4.02153 5.97986C4.01916 5.98769 4.01697 5.99558 4.01498 6.00352C4.013 6.01145 4.0112 6.01944 4.00961 6.02745C4.00802 6.03548 4.00661 6.04355 4.00541 6.05164C4.0042 6.05973 4.0032 6.06784 4.00241 6.07598C4.00161 6.08413 4.001 6.0923 4.00061 6.10047C4.0002 6.10864 4 6.11681 4 6.125C4 6.13319 4.0002 6.14136 4.00061 6.14953C4.001 6.1577 4.00161 6.16587 4.00241 6.17402C4.0032 6.18216 4.0042 6.19027 4.00541 6.19836C4.00661 6.20645 4.00802 6.21452 4.00961 6.22255C4.0112 6.23056 4.013 6.23855 4.01498 6.24648C4.01697 6.25442 4.01916 6.26231 4.02153 6.27014C4.02391 6.27797 4.02647 6.28573 4.02923 6.29344C4.03198 6.30114 4.03492 6.30878 4.03806 6.31634C4.04119 6.32391 4.0445 6.33139 4.048 6.33878C4.0515 6.34617 4.05519 6.35348 4.05905 6.3607C4.06291 6.36791 4.06694 6.37503 4.07114 6.38205C4.07534 6.38906 4.07972 6.39598 4.08427 6.40278C4.08881 6.40958 4.09352 6.41627 4.09839 6.42284C4.10327 6.42942 4.1083 6.43587 4.1135 6.4422C4.11869 6.44853 4.12403 6.45472 4.12953 6.46078C4.13502 6.46684 4.14066 6.47277 4.14645 6.47855C4.15223 6.48434 4.15816 6.48998 4.16422 6.49547C4.17028 6.50097 4.17647 6.50631 4.1828 6.5115C4.18913 6.5167 4.19558 6.52173 4.20216 6.52661C4.20873 6.53148 4.21542 6.53619 4.22222 6.54073C4.22902 6.54528 4.23594 6.54966 4.24295 6.55386C4.24997 6.55806 4.25708 6.56209 4.2643 6.56595C4.27152 6.56981 4.27883 6.5735 4.28622 6.577C4.29361 6.58048 4.30109 6.5838 4.30866 6.58694C4.31622 6.59008 4.32384 6.59302 4.33155 6.59577C4.33925 6.59853 4.34703 6.60109 4.35486 6.60347C4.36269 6.60584 4.37058 6.60803 4.37852 6.61002C4.38645 6.612 4.39444 6.6138 4.40245 6.61539C4.41048 6.61698 4.41855 6.61839 4.42664 6.61959C4.43473 6.6208 4.44284 6.6218 4.45098 6.62259C4.45913 6.62339 4.4673 6.624 4.47547 6.62439C4.48364 6.6248 4.49181 6.625 4.5 6.625L9.5 6.625C9.50819 6.625 9.51636 6.6248 9.52453 6.62439C9.5327 6.624 9.54088 6.62339 9.54902 6.62259C9.55716 6.6218 9.56527 6.6208 9.57336 6.61959C9.58145 6.61839 9.58952 6.61698 9.59755 6.61539C9.60556 6.6138 9.61355 6.612 9.62148 6.61002C9.62942 6.60803 9.63731 6.60584 9.64514 6.60347C9.65297 6.60109 9.66073 6.59853 9.66844 6.59577C9.67614 6.59302 9.68378 6.59008 9.69134 6.58694C9.69891 6.5838 9.70639 6.58048 9.71378 6.577C9.72117 6.5735 9.72848 6.56981 9.7357 6.56595C9.74291 6.56209 9.75003 6.55806 9.75705 6.55386C9.76406 6.54966 9.77098 6.54528 9.77778 6.54073C9.78458 6.53619 9.79127 6.53148 9.79784 6.52661C9.80442 6.52173 9.81087 6.5167 9.8172 6.5115C9.82353 6.50631 9.82972 6.50097 9.83578 6.49547C9.84184 6.48998 9.84777 6.48434 9.85355 6.47855C9.85934 6.47277 9.86498 6.46684 9.87047 6.46078C9.87597 6.45472 9.88131 6.44853 9.8865 6.4422C9.8917 6.43587 9.89673 6.42942 9.90161 6.42284C9.90648 6.41627 9.91119 6.40958 9.91573 6.40278C9.92028 6.39598 9.92466 6.38906 9.92886 6.38205C9.93306 6.37503 9.93709 6.36791 9.94095 6.3607C9.94481 6.35348 9.9485 6.34617 9.952 6.33878C9.95548 6.33139 9.9588 6.32391 9.96194 6.31634C9.96508 6.30878 9.96802 6.30114 9.97077 6.29344C9.97353 6.28573 9.97609 6.27797 9.97847 6.27014C9.98084 6.26231 9.98303 6.25442 9.98502 6.24648C9.987 6.23855 9.9888 6.23056 9.99039 6.22255C9.99198 6.21452 9.99339 6.20645 9.99459 6.19836C9.9958 6.19027 9.9968 6.18216 9.99759 6.17402C9.99839 6.16587 9.999 6.1577 9.99939 6.14953C9.9998 6.14136 10 6.13319 10 6.125C10 6.11681 9.9998 6.10864 9.99939 6.10047C9.999 6.0923 9.99839 6.08413 9.99759 6.07598C9.9968 6.06784 9.9958 6.05973 9.99459 6.05164C9.99339 6.04355 9.99198 6.03548 9.99039 6.02745C9.9888 6.01944 9.987 6.01145 9.98502 6.00352C9.98303 5.99558 9.98084 5.98769 9.97847 5.97986C9.97609 5.97203 9.97353 5.96425 9.97077 5.95655C9.96802 5.94884 9.96508 5.94122 9.96194 5.93366C9.9588 5.92609 9.95548 5.91861 9.952 5.91122C9.9485 5.90383 9.94481 5.89652 9.94095 5.8893C9.93709 5.88208 9.93306 5.87497 9.92886 5.86795C9.92466 5.86094 9.92028 5.85402 9.91573 5.84722C9.91119 5.84042 9.90648 5.83373 9.90161 5.82716C9.89673 5.82058 9.8917 5.81413 9.8865 5.8078C9.88131 5.80147 9.87597 5.79528 9.87047 5.78922C9.86498 5.78316 9.85934 5.77723 9.85355 5.77145C9.84777 5.76566 9.84184 5.76002 9.83578 5.75453C9.82972 5.74903 9.82353 5.74369 9.8172 5.7385C9.81087 5.7333 9.80442 5.72827 9.79784 5.72339C9.79127 5.71852 9.78458 5.71381 9.77778 5.70927C9.77098 5.70472 9.76406 5.70034 9.75705 5.69614C9.75003 5.69194 9.74291 5.68791 9.7357 5.68405C9.72848 5.68019 9.72117 5.6765 9.71378 5.673C9.70639 5.6695 9.69891 5.66619 9.69134 5.66306C9.68378 5.65992 9.67614 5.65698 9.66844 5.65423C9.66073 5.65147 9.65297 5.64891 9.64514 5.64653C9.63731 5.64416 9.62942 5.64197 9.62148 5.63998C9.61355 5.638 9.60556 5.6362 9.59755 5.63461C9.58952 5.63302 9.58145 5.63161 9.57336 5.63041C9.56527 5.6292 9.55716 5.6282 9.54902 5.62741C9.54088 5.62661 9.5327 5.626 9.52453 5.62561C9.51636 5.6252 9.50819 5.625 9.5 5.625ZM9.5 8.125L4.5 8.125C4.49181 8.125 4.48364 8.1252 4.47547 8.12561C4.4673 8.126 4.45913 8.12661 4.45098 8.12741C4.44284 8.1282 4.43473 8.1292 4.42664 8.13041C4.41855 8.13161 4.41048 8.13302 4.40245 8.13461C4.39444 8.1362 4.38645 8.138 4.37852 8.13998C4.37058 8.14197 4.36269 8.14416 4.35486 8.14653C4.34703 8.14891 4.33925 8.15147 4.33155 8.15423C4.32384 8.15698 4.31622 8.15992 4.30866 8.16306C4.30109 8.16619 4.29361 8.1695 4.28622 8.173C4.27883 8.1765 4.27152 8.18019 4.2643 8.18405C4.25708 8.18791 4.24997 8.19194 4.24295 8.19614C4.23594 8.20034 4.22902 8.20472 4.22222 8.20927C4.21542 8.21381 4.20873 8.21852 4.20216 8.22339C4.19558 8.22827 4.18913 8.2333 4.1828 8.2385C4.17647 8.24369 4.17028 8.24903 4.16422 8.25453C4.15816 8.26002 4.15223 8.26566 4.14645 8.27145C4.14066 8.27724 4.13502 8.28316 4.12953 8.28922C4.12403 8.29528 4.11869 8.30147 4.1135 8.3078C4.1083 8.31413 4.10327 8.32058 4.09839 8.32716C4.09352 8.33373 4.08881 8.34042 4.08427 8.34722C4.07972 8.35402 4.07534 8.36094 4.07114 8.36795C4.06694 8.37497 4.06291 8.38209 4.05905 8.3893C4.05519 8.39652 4.0515 8.40383 4.048 8.41122C4.0445 8.41861 4.04119 8.42609 4.03806 8.43366C4.03492 8.44122 4.03198 8.44884 4.02923 8.45655C4.02647 8.46425 4.02391 8.47203 4.02153 8.47986C4.01916 8.48769 4.01697 8.49558 4.01498 8.50352C4.013 8.51145 4.0112 8.51944 4.00961 8.52745C4.00802 8.53548 4.00661 8.54355 4.00541 8.55164C4.0042 8.55973 4.0032 8.56784 4.00241 8.57598C4.00161 8.58413 4.001 8.5923 4.00061 8.60047C4.0002 8.60864 4 8.61681 4 8.625C4 8.63319 4.0002 8.64136 4.00061 8.64953C4.001 8.6577 4.00161 8.66587 4.00241 8.67402C4.0032 8.68216 4.0042 8.69027 4.00541 8.69836C4.00661 8.70645 4.00802 8.71452 4.00961 8.72255C4.0112 8.73056 4.013 8.73855 4.01498 8.74648C4.01697 8.75442 4.01916 8.76231 4.02153 8.77014C4.02391 8.77797 4.02647 8.78573 4.02923 8.79344C4.03198 8.80114 4.03492 8.80878 4.03806 8.81634C4.04119 8.82391 4.0445 8.83139 4.048 8.83878C4.0515 8.84617 4.05519 8.85348 4.05905 8.8607C4.06291 8.86791 4.06694 8.87503 4.07114 8.88205C4.07534 8.88906 4.07972 8.89598 4.08427 8.90278C4.08881 8.90958 4.09352 8.91627 4.09839 8.92284C4.10327 8.92942 4.1083 8.93587 4.1135 8.9422C4.11869 8.94853 4.12403 8.95472 4.12953 8.96078C4.13502 8.96684 4.14066 8.97276 4.14645 8.97855C4.15223 8.98434 4.15816 8.98998 4.16422 8.99547C4.17028 9.00097 4.17647 9.00631 4.1828 9.0115C4.18913 9.0167 4.19558 9.02173 4.20216 9.02661C4.20873 9.03148 4.21542 9.03619 4.22222 9.04073C4.22902 9.04528 4.23594 9.04966 4.24295 9.05386C4.24997 9.05806 4.25708 9.06209 4.2643 9.06595C4.27152 9.06981 4.27883 9.0735 4.28622 9.077C4.29361 9.08048 4.30109 9.0838 4.30866 9.08694C4.31622 9.09008 4.32384 9.09302 4.33155 9.09577C4.33925 9.09853 4.34703 9.10109 4.35486 9.10347C4.36269 9.10584 4.37058 9.10803 4.37852 9.11002C4.38645 9.112 4.39444 9.1138 4.40245 9.11539C4.41048 9.11698 4.41855 9.11839 4.42664 9.11959C4.43473 9.1208 4.44284 9.1218 4.45098 9.12259C4.45913 9.12339 4.4673 9.124 4.47547 9.12439C4.48364 9.1248 4.49181 9.125 4.5 9.125L9.5 9.125C9.50819 9.125 9.51636 9.1248 9.52453 9.12439C9.5327 9.124 9.54088 9.12339 9.54902 9.12259C9.55716 9.1218 9.56527 9.1208 9.57336 9.11959C9.58145 9.11839 9.58952 9.11698 9.59755 9.11539C9.60556 9.1138 9.61355 9.112 9.62148 9.11002C9.62942 9.10803 9.63731 9.10584 9.64514 9.10347C9.65297 9.10109 9.66073 9.09853 9.66844 9.09577C9.67614 9.09302 9.68378 9.09008 9.69134 9.08694C9.69891 9.0838 9.70639 9.08048 9.71378 9.077C9.72117 9.0735 9.72848 9.06981 9.7357 9.06595C9.74291 9.06209 9.75003 9.05806 9.75705 9.05386C9.76406 9.04966 9.77098 9.04528 9.77778 9.04073C9.78458 9.03619 9.79127 9.03148 9.79784 9.02661C9.80442 9.02173 9.81087 9.0167 9.8172 9.0115C9.82353 9.00631 9.82972 9.00097 9.83578 8.99547C9.84184 8.98998 9.84777 8.98434 9.85355 8.97855C9.85934 8.97276 9.86498 8.96684 9.87047 8.96078C9.87597 8.95472 9.88131 8.94853 9.8865 8.9422C9.8917 8.93587 9.89673 8.92942 9.90161 8.92284C9.90648 8.91627 9.91119 8.90958 9.91573 8.90278C9.92028 8.89598 9.92466 8.88906 9.92886 8.88205C9.93306 8.87503 9.93709 8.86791 9.94095 8.8607C9.94481 8.85348 9.9485 8.84617 9.952 8.83878C9.95548 8.83139 9.9588 8.82391 9.96194 8.81634C9.96508 8.80878 9.96802 8.80114 9.97077 8.79344C9.97353 8.78573 9.97609 8.77797 9.97847 8.77014C9.98084 8.76231 9.98303 8.75442 9.98502 8.74648C9.987 8.73855 9.9888 8.73056 9.99039 8.72255C9.99198 8.71452 9.99339 8.70645 9.99459 8.69836C9.9958 8.69027 9.9968 8.68216 9.99759 8.67402C9.99839 8.66587 9.999 8.6577 9.99939 8.64953C9.9998 8.64136 10 8.63319 10 8.625C10 8.61681 9.9998 8.60864 9.99939 8.60047C9.999 8.5923 9.99839 8.58413 9.99759 8.57598C9.9968 8.56784 9.9958 8.55973 9.99459 8.55164C9.99339 8.54355 9.99198 8.53548 9.99039 8.52745C9.9888 8.51944 9.987 8.51145 9.98502 8.50352C9.98303 8.49558 9.98084 8.48769 9.97847 8.47986C9.97609 8.47203 9.97353 8.46425 9.97077 8.45655C9.96802 8.44884 9.96508 8.44122 9.96194 8.43366C9.9588 8.42609 9.95548 8.41861 9.952 8.41122C9.9485 8.40383 9.94481 8.39652 9.94095 8.3893C9.93709 8.38209 9.93306 8.37497 9.92886 8.36795C9.92466 8.36094 9.92028 8.35402 9.91573 8.34722C9.91119 8.34042 9.90648 8.33373 9.90161 8.32716C9.89673 8.32058 9.8917 8.31413 9.8865 8.3078C9.88131 8.30147 9.87597 8.29528 9.87047 8.28922C9.86498 8.28316 9.85934 8.27724 9.85355 8.27145C9.84777 8.26566 9.84184 8.26002 9.83578 8.25453C9.82972 8.24903 9.82353 8.24369 9.8172 8.2385C9.81087 8.2333 9.80442 8.22827 9.79784 8.22339C9.79127 8.21852 9.78458 8.21381 9.77778 8.20927C9.77098 8.20472 9.76406 8.20034 9.75705 8.19614C9.75003 8.19194 9.74291 8.18791 9.7357 8.18405C9.72848 8.18019 9.72117 8.1765 9.71378 8.173C9.70639 8.1695 9.69891 8.16619 9.69134 8.16306C9.68378 8.15992 9.67614 8.15698 9.66844 8.15423C9.66073 8.15147 9.65297 8.14891 9.64514 8.14653C9.63731 8.14416 9.62942 8.14197 9.62148 8.13998C9.61355 8.138 9.60556 8.1362 9.59755 8.13461C9.58952 8.13302 9.58145 8.13161 9.57336 8.13041C9.56527 8.1292 9.55716 8.1282 9.54902 8.12741C9.54088 8.12661 9.5327 8.126 9.52453 8.12561C9.51636 8.1252 9.50819 8.125 9.5 8.125ZM7.5 10.604L4.5 10.604C4.49181 10.604 4.48364 10.6042 4.47547 10.6046C4.4673 10.605 4.45913 10.6056 4.45098 10.6064C4.44284 10.6072 4.43473 10.6082 4.42664 10.6094C4.41855 10.6106 4.41048 10.612 4.40245 10.6136C4.39444 10.6152 4.38645 10.617 4.37852 10.619C4.37058 10.621 4.36269 10.6232 4.35486 10.6255C4.34703 10.6279 4.33925 10.6305 4.33155 10.6332C4.32384 10.636 4.31622 10.6389 4.30866 10.6421C4.30109 10.6452 4.29361 10.6485 4.28622 10.652C4.27883 10.6555 4.27152 10.6592 4.2643 10.663C4.25708 10.6669 4.24997 10.6709 4.24295 10.6751C4.23594 10.6793 4.22902 10.6837 4.22222 10.6883C4.21542 10.6928 4.20873 10.6975 4.20216 10.7024C4.19558 10.7073 4.18913 10.7123 4.1828 10.7175C4.17647 10.7227 4.17028 10.728 4.16422 10.7335C4.15816 10.739 4.15223 10.7447 4.14645 10.7505C4.14066 10.7562 4.13502 10.7622 4.12953 10.7682C4.12403 10.7743 4.11869 10.7805 4.1135 10.7868C4.1083 10.7931 4.10327 10.7996 4.09839 10.8062C4.09352 10.8127 4.08881 10.8194 4.08427 10.8262C4.07972 10.833 4.07534 10.8399 4.07114 10.847C4.06694 10.854 4.06291 10.8611 4.05905 10.8683C4.05519 10.8755 4.0515 10.8828 4.048 10.8902C4.0445 10.8976 4.04119 10.9051 4.03806 10.9127C4.03492 10.9202 4.03198 10.9278 4.02923 10.9355C4.02647 10.9432 4.02391 10.951 4.02153 10.9589C4.01916 10.9667 4.01697 10.9746 4.01498 10.9825C4.013 10.9905 4.0112 10.9984 4.00961 11.0065C4.00802 11.0145 4.00661 11.0225 4.00541 11.0306C4.0042 11.0387 4.0032 11.0468 4.00241 11.055C4.00161 11.0631 4.001 11.0713 4.00061 11.0795C4.0002 11.0876 4 11.0958 4 11.104C4 11.1122 4.0002 11.1204 4.00061 11.1285C4.001 11.1367 4.00161 11.1449 4.00241 11.153C4.0032 11.1611 4.0042 11.1693 4.00541 11.1774C4.00661 11.1855 4.00802 11.1935 4.00961 11.2015C4.0112 11.2096 4.013 11.2175 4.01498 11.2255C4.01697 11.2334 4.01916 11.2413 4.02153 11.2491C4.02391 11.257 4.02647 11.2647 4.02923 11.2724C4.03198 11.2801 4.03492 11.2878 4.03806 11.2953C4.04119 11.3029 4.0445 11.3104 4.048 11.3178C4.0515 11.3252 4.05519 11.3325 4.05905 11.3397C4.06291 11.3469 4.06694 11.354 4.07114 11.361C4.07534 11.3681 4.07972 11.375 4.08427 11.3818C4.08881 11.3886 4.09352 11.3953 4.09839 11.4018C4.10327 11.4084 4.1083 11.4149 4.1135 11.4212C4.11869 11.4275 4.12403 11.4337 4.12953 11.4398C4.13502 11.4458 4.14066 11.4518 4.14645 11.4575C4.15223 11.4633 4.15816 11.469 4.16422 11.4745C4.17028 11.48 4.17647 11.4853 4.1828 11.4905C4.18913 11.4957 4.19558 11.5007 4.20216 11.5056C4.20873 11.5105 4.21542 11.5152 4.22222 11.5197C4.22902 11.5243 4.23594 11.5287 4.24295 11.5329C4.24997 11.5371 4.25708 11.5411 4.2643 11.545C4.27152 11.5488 4.27883 11.5525 4.28622 11.556C4.29361 11.5595 4.30109 11.5628 4.30866 11.5659C4.31622 11.5691 4.32384 11.572 4.33155 11.5748C4.33925 11.5775 4.34703 11.5801 4.35486 11.5825C4.36269 11.5848 4.37058 11.587 4.37852 11.589C4.38645 11.591 4.39444 11.5928 4.40245 11.5944C4.41048 11.596 4.41855 11.5974 4.42664 11.5986C4.43473 11.5998 4.44284 11.6008 4.45098 11.6016C4.45913 11.6024 4.4673 11.603 4.47547 11.6034C4.48364 11.6038 4.49181 11.604 4.5 11.604L7.5 11.604C7.50819 11.604 7.51636 11.6038 7.52453 11.6034C7.5327 11.603 7.54087 11.6024 7.54902 11.6016C7.55716 11.6008 7.56527 11.5998 7.57336 11.5986C7.58145 11.5974 7.58952 11.596 7.59755 11.5944C7.60556 11.5928 7.61355 11.591 7.62148 11.589C7.62942 11.587 7.63731 11.5848 7.64514 11.5825C7.65297 11.5801 7.66073 11.5775 7.66844 11.5748C7.67614 11.572 7.68378 11.5691 7.69134 11.5659C7.69891 11.5628 7.70639 11.5595 7.71378 11.556C7.72117 11.5525 7.72848 11.5488 7.7357 11.545C7.74291 11.5411 7.75003 11.5371 7.75705 11.5329C7.76406 11.5287 7.77098 11.5243 7.77778 11.5197C7.78458 11.5152 7.79127 11.5105 7.79784 11.5056C7.80442 11.5007 7.81087 11.4957 7.8172 11.4905C7.82353 11.4853 7.82972 11.48 7.83578 11.4745C7.84184 11.469 7.84777 11.4633 7.85355 11.4575C7.85934 11.4518 7.86498 11.4458 7.87047 11.4398C7.87597 11.4337 7.88131 11.4275 7.8865 11.4212C7.8917 11.4149 7.89673 11.4084 7.90161 11.4018C7.90648 11.3953 7.91119 11.3886 7.91573 11.3818C7.92028 11.375 7.92466 11.3681 7.92886 11.361C7.93306 11.354 7.93709 11.3469 7.94095 11.3397C7.94481 11.3325 7.9485 11.3252 7.952 11.3178C7.95548 11.3104 7.9588 11.3029 7.96194 11.2953C7.96508 11.2878 7.96802 11.2801 7.97077 11.2724C7.97353 11.2647 7.97609 11.257 7.97847 11.2491C7.98084 11.2413 7.98303 11.2334 7.98502 11.2255C7.987 11.2175 7.9888 11.2096 7.99039 11.2015C7.99198 11.1935 7.99339 11.1855 7.99459 11.1774C7.9958 11.1693 7.9968 11.1611 7.99759 11.153C7.99839 11.1449 7.999 11.1367 7.99939 11.1285C7.9998 11.1204 8 11.1122 8 11.104C8 11.0958 7.9998 11.0876 7.99939 11.0795C7.999 11.0713 7.99839 11.0631 7.99759 11.055C7.9968 11.0469 7.9958 11.0387 7.99459 11.0306C7.99339 11.0225 7.99198 11.0145 7.99039 11.0065C7.9888 10.9984 7.987 10.9905 7.98502 10.9825C7.98303 10.9746 7.98084 10.9667 7.97847 10.9589C7.97609 10.951 7.97353 10.9432 7.97077 10.9355C7.96802 10.9278 7.96508 10.9202 7.96194 10.9127C7.9588 10.9051 7.95548 10.8976 7.952 10.8902C7.9485 10.8828 7.94481 10.8755 7.94095 10.8683C7.93709 10.8611 7.93306 10.854 7.92886 10.847C7.92466 10.8399 7.92028 10.833 7.91573 10.8262C7.91119 10.8194 7.90648 10.8127 7.90161 10.8062C7.89673 10.7996 7.8917 10.7931 7.8865 10.7868C7.88131 10.7805 7.87597 10.7743 7.87047 10.7682C7.86498 10.7622 7.85934 10.7562 7.85355 10.7505C7.84777 10.7447 7.84184 10.739 7.83578 10.7335C7.82972 10.728 7.82353 10.7227 7.8172 10.7175C7.81087 10.7123 7.80442 10.7073 7.79784 10.7024C7.79127 10.6975 7.78458 10.6928 7.77778 10.6883C7.77098 10.6837 7.76406 10.6793 7.75705 10.6751C7.75003 10.6709 7.74291 10.6669 7.7357 10.663C7.72848 10.6592 7.72117 10.6555 7.71378 10.652C7.70639 10.6485 7.69891 10.6452 7.69134 10.6421C7.68378 10.6389 7.67614 10.636 7.66844 10.6332C7.66073 10.6305 7.65297 10.6279 7.64514 10.6255C7.63731 10.6232 7.62942 10.621 7.62148 10.619C7.61355 10.617 7.60556 10.6152 7.59755 10.6136C7.58952 10.612 7.58145 10.6106 7.57336 10.6094C7.56527 10.6082 7.55716 10.6072 7.54902 10.6064C7.54087 10.6056 7.5327 10.605 7.52453 10.6046C7.51636 10.6042 7.50819 10.604 7.5 10.604Z" >
</path>
</svg>
