<svg xmlns="http://www.w3.org/2000/svg" xmlns:xlink="http://www.w3.org/1999/xlink" width="16" height="16" viewBox="0 0 16 16" fill="current">
<path d="M11.2507 2.66669L11.2507 3.80955L3.04764 3.80955L3.04764 12.1905L12.1905 12.1905L12.1905 8.00002L13.3333 8.00002L13.3333 12.1905C13.3333 12.2092 13.3329 12.2279 13.332 12.2466C13.3311 12.2652 13.3297 12.2839 13.3278 12.3025C13.326 12.3211 13.3237 12.3397 13.321 12.3582C13.3182 12.3767 13.315 12.3951 13.3114 12.4135C13.3078 12.4318 13.3036 12.45 13.2991 12.4682C13.2946 12.4863 13.2896 12.5043 13.2841 12.5222C13.2787 12.5401 13.2728 12.5579 13.2666 12.5755C13.2603 12.5931 13.2535 12.6106 13.2464 12.6278C13.2392 12.6451 13.2316 12.6622 13.2236 12.6791C13.2156 12.696 13.2072 12.7127 13.1984 12.7292C13.1896 12.7457 13.1804 12.762 13.1708 12.778C13.1611 12.7941 13.1511 12.8099 13.1407 12.8254C13.1303 12.841 13.1196 12.8563 13.1084 12.8713C13.0973 12.8863 13.0858 12.9011 13.0739 12.9155C13.0621 12.93 13.0499 12.9441 13.0373 12.958C13.0247 12.9718 13.0118 12.9854 12.9986 12.9986C12.9854 13.0118 12.9718 13.0247 12.958 13.0373C12.9441 13.0499 12.93 13.0621 12.9155 13.0739C12.9011 13.0858 12.8863 13.0973 12.8713 13.1084C12.8563 13.1196 12.841 13.1303 12.8254 13.1407C12.8099 13.1511 12.7941 13.1611 12.778 13.1707C12.762 13.1804 12.7457 13.1896 12.7292 13.1984C12.7127 13.2072 12.696 13.2156 12.6791 13.2236C12.6622 13.2316 12.6451 13.2392 12.6278 13.2464C12.6106 13.2535 12.5931 13.2602 12.5755 13.2665C12.5579 13.2728 12.5401 13.2787 12.5223 13.2841C12.5043 13.2896 12.4863 13.2945 12.4682 13.2991C12.4501 13.3036 12.4318 13.3077 12.4135 13.3114C12.3951 13.315 12.3767 13.3182 12.3582 13.321C12.3397 13.3237 12.3211 13.326 12.3025 13.3278C12.2839 13.3297 12.2653 13.331 12.2466 13.332C12.2279 13.3329 12.2092 13.3333 12.1905 13.3333L3.04764 13.3333C3.02894 13.3333 3.01024 13.3329 2.99157 13.332C2.97288 13.331 2.95423 13.3297 2.93561 13.3278C2.917 13.326 2.89844 13.3237 2.87994 13.321C2.86144 13.3182 2.84302 13.315 2.82468 13.3114C2.80633 13.3077 2.78809 13.3036 2.76994 13.2991C2.75181 13.2945 2.73379 13.2896 2.71588 13.2841C2.69798 13.2787 2.68023 13.2728 2.66263 13.2665C2.64501 13.2602 2.62757 13.2535 2.61029 13.2464C2.593 13.2392 2.57591 13.2316 2.559 13.2236C2.5421 13.2156 2.52539 13.2072 2.50889 13.1984C2.49241 13.1896 2.47614 13.1804 2.4601 13.1707C2.44406 13.1611 2.42826 13.1511 2.41271 13.1407C2.39716 13.1303 2.38186 13.1196 2.36683 13.1084C2.35181 13.0973 2.33707 13.0858 2.32261 13.0739C2.30816 13.0621 2.294 13.0499 2.28014 13.0373C2.26628 13.0247 2.25274 13.0118 2.23952 12.9986C2.22629 12.9854 2.21339 12.9718 2.20083 12.958C2.18828 12.9441 2.17607 12.93 2.16419 12.9155C2.15233 12.9011 2.14083 12.8863 2.12969 12.8713C2.11855 12.8563 2.10778 12.841 2.09739 12.8254C2.087 12.8099 2.07699 12.7941 2.06738 12.778C2.05776 12.762 2.04855 12.7457 2.03972 12.7292C2.03091 12.7127 2.0225 12.696 2.0145 12.6791C2.00651 12.6622 1.99894 12.6451 1.99177 12.6278C1.98461 12.6106 1.97788 12.5931 1.97158 12.5755C1.96528 12.5579 1.95942 12.5401 1.95399 12.5222C1.94856 12.5043 1.94358 12.4863 1.93904 12.4682C1.93448 12.45 1.93038 12.4318 1.92674 12.4135C1.92309 12.3951 1.91989 12.3767 1.91714 12.3582C1.9144 12.3397 1.91212 12.3211 1.91029 12.3025C1.90845 12.2839 1.90708 12.2652 1.90616 12.2466C1.90524 12.2279 1.90479 12.2092 1.90479 12.1905L1.90479 3.80955C1.90479 3.79084 1.90524 3.77214 1.90616 3.75347C1.90708 3.73478 1.90845 3.71613 1.91029 3.69752C1.91212 3.6789 1.9144 3.66034 1.91714 3.64184C1.91989 3.62334 1.92309 3.60492 1.92674 3.58658C1.93038 3.56823 1.93448 3.54999 1.93904 3.53184C1.94358 3.51371 1.94856 3.49569 1.95399 3.47778C1.95942 3.45989 1.96528 3.44213 1.97158 3.42452C1.97788 3.40691 1.98461 3.38947 1.99177 3.37219C1.99894 3.35491 2.00651 3.33781 2.0145 3.32091C2.0225 3.304 2.03091 3.2873 2.03972 3.2708C2.04855 3.25431 2.05776 3.23804 2.06738 3.222C2.07699 3.20595 2.087 3.19015 2.09739 3.17461C2.10778 3.15906 2.11855 3.14377 2.12969 3.12873C2.14083 3.11371 2.15233 3.09897 2.16419 3.08452C2.17606 3.07006 2.18827 3.0559 2.20083 3.04205C2.21339 3.02818 2.22629 3.01464 2.23952 3.00142C2.25274 2.98819 2.26628 2.9753 2.28014 2.96273C2.294 2.95017 2.30816 2.93796 2.32261 2.92609C2.33707 2.91423 2.35181 2.90273 2.36683 2.89159C2.38186 2.88045 2.39716 2.86968 2.41271 2.85928C2.42826 2.84889 2.44406 2.83889 2.4601 2.82928C2.47614 2.81967 2.49241 2.81045 2.50889 2.80162C2.52539 2.79281 2.5421 2.78441 2.559 2.77641C2.57591 2.76841 2.593 2.76083 2.61029 2.75367C2.62757 2.74652 2.64501 2.73979 2.66263 2.73348C2.68023 2.72718 2.69798 2.72132 2.71588 2.71589C2.73379 2.71046 2.75181 2.70548 2.76994 2.70094C2.78809 2.69638 2.80633 2.69229 2.82468 2.68864C2.84302 2.68499 2.86144 2.6818 2.87994 2.67905C2.89844 2.67631 2.917 2.67402 2.93561 2.67219C2.95423 2.67035 2.97288 2.66898 2.99157 2.66806C3.01024 2.66715 3.02894 2.66669 3.04764 2.66669L11.2507 2.66669ZM13.6926 3.09944L14.4979 3.91011L8.36002 10.0046L7.5303 10.0351L7.55393 9.19087L13.6926 3.09944Z"  >
</path>
</svg>
