<svg xmlns="http://www.w3.org/2000/svg" xmlns:xlink="http://www.w3.org/1999/xlink" width="16" height="16" viewBox="0 0 16 16" fill="current">
<path d="M4.06671 10.2L3.13336 9.73338L5.46671 4.86672L5.46671 1.33338C5.46671 1.06672 5.66671 0.800049 6.00003 0.800049L10 0.800049C10.2667 0.800049 10.5334 1.00005 10.5334 1.33338L10.5334 4.86672L12.8667 9.73338L11.9334 10.2L9.53336 5.20005C9.53336 5.13338 9.46671 5.06672 9.46671 5.00005L9.46671 1.86672L6.53336 1.86672L6.53336 5.06672C6.53336 5.13338 6.53336 5.20005 6.46671 5.26672L4.06671 10.2Z" >
</path>
<path d="M12.9333 15.2L3.06669 15.2C2.80002 15.2 2.60002 15.1333 2.40002 15.0667C1.60002 14.6667 1.26668 13.7333 1.66669 12.9333L3.20002 9.79999C3.26669 9.66667 3.40002 9.6 3.53335 9.53332C3.66669 9.46667 3.80002 9.53332 3.93335 9.6C4.00002 9.66667 6.06669 11 7.73335 9.6C9.53335 8.06667 11.8 8.93332 12.7333 9.6C12.8 9.66667 12.8667 9.73332 12.8667 9.79999L14.3333 12.9333C14.4667 13.1333 14.4667 13.4 14.4667 13.6C14.5333 14.4667 13.8 15.2 12.9333 15.2ZM2.80002 14.1333C2.86669 14.2 3.00002 14.2 3.06669 14.2L12.9333 14.2C13.2667 14.2 13.5333 13.9333 13.5333 13.6C13.5333 13.5333 13.5333 13.4 13.4667 13.3333L12 10.3333C11.5333 10.0667 9.80002 9.13332 8.26669 10.4C6.73335 11.6667 4.86669 11.2667 3.73335 10.7333L2.53335 13.3333C2.40002 13.6 2.53335 13.9333 2.80002 14.1333Z">
</path>
</svg>
