<svg xmlns="http://www.w3.org/2000/svg" xmlns:xlink="http://www.w3.org/1999/xlink" width="16" height="16" viewBox="0 0 16 16" fill="current">
<path d="M7.97789 5.25929C8.59725 5.25929 9.10022 4.75679 9.10022 4.13693C9.10022 3.51709 8.59725 3.01459 7.97789 3.01459C7.35755 3.01459 6.85553 3.51709 6.85553 4.13693C6.85553 4.75679 7.35755 5.25929 7.97789 5.25929ZM7.97789 6.38163C7.35755 6.38163 6.85553 6.88415 6.85553 7.50399C6.85553 8.12384 7.35755 8.62582 7.97789 8.62582C8.59725 8.62582 9.10022 8.12382 9.10022 7.50399C9.10022 6.88415 8.59725 6.38163 7.97789 6.38163ZM7.97789 9.7482C7.35755 9.7482 6.85553 10.2512 6.85553 10.8705C6.85553 11.4909 7.35755 11.9929 7.97789 11.9929C8.59725 11.9929 9.10022 11.4909 9.10022 10.8705C9.10022 10.2512 8.59725 9.7482 7.97789 9.7482Z"  >
</path>
</svg>
