<svg xmlns="http://www.w3.org/2000/svg" xmlns:xlink="http://www.w3.org/1999/xlink" width="16" height="15.3846435546875" viewBox="0 0 16 15.3846435546875" fill="current">
<path d="M6.71756 7.02121L0.739779 4.02888C0.734803 4.02622 0.729785 4.02365 0.724724 4.02118C0.719662 4.01869 0.714561 4.0163 0.709419 4.014C0.704276 4.01169 0.699097 4.00947 0.693881 4.00733C0.688664 4.0052 0.683413 4.00316 0.678128 4.0012C0.672843 3.99923 0.667526 3.99737 0.662177 3.9956C0.65683 3.99381 0.651453 3.99213 0.646049 3.99053C0.640643 3.98893 0.635213 3.98742 0.629758 3.98601C0.624303 3.98459 0.618825 3.98326 0.613325 3.98203C0.607825 3.9808 0.602306 3.97966 0.596767 3.97862C0.591229 3.97757 0.585675 3.97661 0.580105 3.97577C0.574536 3.97489 0.568953 3.97413 0.563356 3.97347C0.55776 3.97278 0.552154 3.97221 0.546538 3.97172C0.540924 3.97124 0.535302 3.97085 0.529674 3.97055C0.524044 3.97025 0.518413 3.97006 0.512778 3.96995C0.507142 3.96985 0.501507 3.96983 0.495871 3.96992C0.490236 3.97 0.484603 3.97018 0.478974 3.97046C0.473344 3.97073 0.467721 3.97109 0.462103 3.97156C0.456486 3.97201 0.450879 3.97257 0.445281 3.97323C0.439682 3.97387 0.434096 3.97461 0.428522 3.97545C0.422949 3.97629 0.41739 3.97722 0.411848 3.97825C0.406306 3.97927 0.400783 3.98039 0.395278 3.9816C0.389773 3.9828 0.384289 3.9841 0.378828 3.9855C0.373367 3.9869 0.367931 3.98839 0.362521 3.98996C0.357109 3.99153 0.351726 3.99319 0.346372 3.99497C0.341016 3.99671 0.335691 3.99856 0.330398 4.00051C0.325105 4.00243 0.319847 4.00446 0.314621 4.00658C0.309396 4.00868 0.304208 4.01089 0.299057 4.01318C0.293906 4.01546 0.288795 4.01783 0.283723 4.0203C0.278652 4.02276 0.273624 4.0253 0.268637 4.02793C0.263651 4.03054 0.258711 4.03326 0.253816 4.03606C0.248921 4.03885 0.244075 4.04172 0.239276 4.0447C0.234477 4.04764 0.22973 4.05068 0.225035 4.0538C0.220338 4.05691 0.215696 4.06011 0.211106 4.06339C0.206516 4.06665 0.201983 4.07 0.197508 4.07342C0.193032 4.07685 0.188613 4.08035 0.184255 4.08392C0.179896 4.0875 0.175598 4.09114 0.171361 4.09486C0.167124 4.09857 0.162951 4.10236 0.158842 4.10622C0.154733 4.11007 0.15069 4.114 0.146712 4.118C0.142735 4.12198 0.138825 4.12604 0.134984 4.13017C0.131143 4.13428 0.127373 4.13848 0.123672 4.14274C0.119972 4.14698 0.116344 4.15129 0.112788 4.15568C0.109233 4.16004 0.105752 4.16447 0.102345 4.16898C0.0989382 4.17345 0.095608 4.178 0.0923541 4.1826C0.0891002 4.1872 0.0859244 4.19186 0.0828269 4.19657C0.0797294 4.20128 0.0767118 4.20604 0.0737742 4.21085C0.0708365 4.21565 0.0679805 4.22051 0.065206 4.22542C0.0624316 4.23032 0.0597402 4.23528 0.0571321 4.24028C0.054524 4.24527 0.0520005 4.25032 0.0495616 4.25539C0.0471227 4.26047 0.04477 4.26559 0.0425032 4.27076C0.0402363 4.27592 0.0380568 4.28111 0.0359645 4.28634C0.0338723 4.29157 0.0318685 4.29684 0.0299531 4.30215C0.0280379 4.30744 0.0262121 4.31277 0.0244758 4.31815C0.0227396 4.3235 0.0210941 4.32889 0.0195389 4.33431C0.0179838 4.33972 0.01652 4.34516 0.0151477 4.35063C0.0137754 4.3561 0.0124952 4.36158 0.0113073 4.3671C0.0101193 4.3726 0.0090242 4.37813 0.00802195 4.38368C0.0070197 4.38923 0.00611085 4.39479 0.00529543 4.40038C0.00448002 4.40593 0.00375847 4.41152 0.00313081 4.41714C0.00250314 4.42273 0.00196971 4.42835 0.00153051 4.43397C0.00109131 4.43959 0.000746585 4.44521 0.000496343 4.45084C0.000246103 4.45646 9.0482e-05 4.46209 2.94826e-05 4.46774C-3.15167e-05 4.47338 2.13929e-06 4.47901 0.00013045 4.48465C0.000258762 4.49028 0.000481656 4.49591 0.000799133 4.50155C0.00111661 4.50717 0.00152849 4.51279 0.00203478 4.5184L0.00203478 11.1443C0.00209109 11.1496 0.00223151 11.1549 0.00245605 11.1601C0.00268059 11.1654 0.00298914 11.1707 0.00338169 11.1759C0.00377422 11.1812 0.00425057 11.1864 0.00481073 11.1917C0.00537087 11.1969 0.00601453 11.2022 0.00674172 11.2074C0.0074689 11.2126 0.00827922 11.2178 0.0091727 11.2231C0.0100662 11.2283 0.0110424 11.2334 0.0121012 11.2386C0.0131601 11.2438 0.0143011 11.2489 0.0155242 11.2541C0.0167474 11.2592 0.0180521 11.2643 0.0194384 11.2694C0.0208247 11.2745 0.0222916 11.2796 0.0238395 11.2846C0.0253875 11.2897 0.0270153 11.2947 0.0287234 11.2997C0.0304313 11.3047 0.0322184 11.3096 0.0340849 11.3146C0.0359512 11.3195 0.0378957 11.3244 0.0399184 11.3293C0.0419413 11.3341 0.0440413 11.339 0.0462185 11.3438C0.0483956 11.3486 0.0506487 11.3534 0.0529781 11.3581C0.0553075 11.3628 0.0577118 11.3675 0.0601908 11.3722C0.0626699 11.3769 0.0652228 11.3815 0.0678492 11.3861C0.0704757 11.3906 0.0731744 11.3952 0.0759455 11.3997C0.0787165 11.4042 0.0815584 11.4086 0.0844713 11.413C0.0873842 11.4174 0.0903664 11.4218 0.0934181 11.4261C0.0964698 11.4304 0.0995894 11.4346 0.102777 11.4388C0.105964 11.443 0.109218 11.4472 0.112538 11.4513C0.115858 11.4554 0.119242 11.4594 0.122691 11.4634C0.12614 11.4674 0.129652 11.4714 0.133227 11.4753C0.136801 11.4791 0.140437 11.483 0.144133 11.4867C0.14783 11.4905 0.151587 11.4942 0.155401 11.4979C0.159216 11.5015 0.163087 11.5051 0.167016 11.5086C0.170945 11.5121 0.174929 11.5156 0.178969 11.519C0.183009 11.5224 0.187102 11.5257 0.191247 11.529C0.195392 11.5322 0.19959 11.5354 0.203837 11.5386C0.208084 11.5417 0.212381 11.5448 0.216728 11.5478C0.221073 11.5508 0.225464 11.5537 0.229904 11.5565C0.234343 11.5594 0.238827 11.5622 0.243353 11.5649L6.20736 15.2949C6.21707 15.3014 6.22698 15.3074 6.23709 15.313C6.24722 15.3187 6.25751 15.3239 6.268 15.3289C6.27849 15.3338 6.28912 15.3385 6.29991 15.3427C6.3107 15.3469 6.32162 15.3508 6.33268 15.3543C6.34373 15.3577 6.3549 15.3609 6.36617 15.3636C6.37745 15.3664 6.38881 15.3687 6.40023 15.3706C6.41166 15.3726 6.42314 15.3742 6.43468 15.3755C6.44621 15.3765 6.45777 15.3773 6.46935 15.3777C6.47749 15.3777 6.48561 15.3776 6.49372 15.3771C6.50183 15.3767 6.50993 15.3761 6.51801 15.3753C6.5261 15.3745 6.53416 15.3735 6.5422 15.3723C6.55024 15.3711 6.55825 15.3697 6.56621 15.3682C6.57417 15.3666 6.58211 15.3648 6.58998 15.3628C6.59787 15.3609 6.60569 15.3586 6.61346 15.3564C6.62124 15.354 6.62895 15.3514 6.6366 15.3487C6.64426 15.346 6.65183 15.3431 6.65933 15.34C6.66684 15.3368 6.67426 15.3335 6.68161 15.3301C6.68896 15.3266 6.69621 15.3229 6.70337 15.3191C6.71055 15.3154 6.71761 15.3113 6.72456 15.3071C6.73154 15.3029 6.7384 15.2985 6.74516 15.294C6.75192 15.2895 6.75856 15.2849 6.76508 15.28C6.7716 15.2752 6.778 15.2703 6.78429 15.265C6.79057 15.2599 6.79672 15.2547 6.80273 15.2491C6.80876 15.2437 6.81465 15.2381 6.82039 15.2323C6.82613 15.2266 6.83173 15.2207 6.83718 15.2147C6.84265 15.2087 6.84796 15.2025 6.8531 15.1962C6.85826 15.1899 6.86325 15.1834 6.86809 15.177C6.87293 15.1705 6.87761 15.1639 6.88212 15.1572C6.88664 15.1504 6.89099 15.1435 6.89516 15.1366C6.89934 15.1295 6.90335 15.1224 6.90717 15.1152C6.911 15.1082 6.91465 15.101 6.91812 15.0936C6.9216 15.0862 6.92489 15.0787 6.92799 15.0712C6.93111 15.0637 6.93403 15.0562 6.93676 15.0485C6.9395 15.0409 6.94205 15.0332 6.94441 15.0254C6.94677 15.0176 6.94893 15.0098 6.9509 15.0019C6.95288 14.994 6.95466 14.9861 6.95625 14.9781C6.95784 14.9702 6.95922 14.9622 6.96041 14.9541C6.96161 14.9461 6.9626 14.938 6.96339 14.93C6.9642 14.9219 6.9648 14.9138 6.96519 14.9056C6.96559 14.8975 6.96579 14.8894 6.96579 14.8813L6.96579 7.46938C6.96591 7.46369 6.96594 7.45799 6.96585 7.45231C6.96579 7.44662 6.96561 7.44093 6.96534 7.43525C6.96507 7.42955 6.96469 7.42387 6.96423 7.41821C6.96376 7.41253 6.96319 7.40687 6.96253 7.40122C6.96188 7.39557 6.96113 7.38992 6.96026 7.3843C6.95942 7.37868 6.95846 7.37306 6.95741 7.36747C6.95637 7.36188 6.95523 7.35631 6.95398 7.35075C6.95275 7.34519 6.95141 7.33966 6.94997 7.33416C6.94856 7.32865 6.94703 7.32317 6.9454 7.31771C6.9438 7.31224 6.94208 7.30682 6.94026 7.30143C6.93846 7.29603 6.93657 7.29067 6.93459 7.28534C6.9326 7.28 6.93051 7.27471 6.92834 7.26946C6.92617 7.26418 6.9239 7.25895 6.92156 7.25379C6.91922 7.2486 6.91677 7.24346 6.91424 7.23837C6.91172 7.23326 6.90909 7.22822 6.90639 7.2232C6.9037 7.21818 6.90092 7.21322 6.89803 7.20832C6.89516 7.2034 6.8922 7.19854 6.88917 7.19374C6.88613 7.18893 6.88301 7.18416 6.87981 7.17946C6.87661 7.17474 6.87332 7.1701 6.86995 7.16552C6.86659 7.16092 6.86315 7.1564 6.85963 7.15192C6.85611 7.14745 6.85252 7.14303 6.84884 7.13869C6.84518 7.13433 6.84144 7.13005 6.8376 7.12584C6.83379 7.1216 6.82991 7.11746 6.82595 7.11337C6.82198 7.10928 6.81795 7.10526 6.81385 7.10132C6.80977 7.09737 6.80559 7.09349 6.80135 7.08969C6.79713 7.08588 6.79283 7.08215 6.78848 7.0785C6.78412 7.07483 6.77969 7.07126 6.77521 7.06776C6.77073 7.06424 6.76618 7.06082 6.76158 7.05748C6.75699 7.05412 6.75233 7.05086 6.74761 7.04767C6.74289 7.04449 6.73813 7.04138 6.73331 7.03836C6.72849 7.03532 6.72362 7.03239 6.71869 7.02954C6.71378 7.02667 6.7088 7.02389 6.70379 7.02121L6.71756 7.02121ZM5.97982 13.9919L1.00178 10.8616L1.00178 5.34578L5.97982 7.79343L5.97982 13.9919ZM15.7153 3.95992C15.7108 3.95744 15.7063 3.95503 15.7016 3.9527C15.697 3.95036 15.6923 3.94811 15.6877 3.94593C15.683 3.94373 15.6782 3.94162 15.6735 3.93957C15.6687 3.93753 15.6639 3.93556 15.6591 3.93368C15.6543 3.93179 15.6495 3.92997 15.6447 3.92823C15.6397 3.92649 15.6349 3.92482 15.63 3.92324C15.625 3.92165 15.62 3.92013 15.6151 3.9187C15.6101 3.91726 15.6052 3.91591 15.6002 3.91463C15.5953 3.91334 15.5901 3.91215 15.585 3.91104C15.5801 3.90992 15.575 3.90888 15.5699 3.90792C15.5649 3.90694 15.5598 3.90605 15.5547 3.90526C15.5496 3.90445 15.5445 3.90373 15.5394 3.9031C15.5341 3.90243 15.529 3.90188 15.5239 3.9014C15.5188 3.90092 15.5137 3.90051 15.5084 3.9002C15.5033 3.89986 15.4982 3.89961 15.4929 3.89946C15.4877 3.89929 15.4826 3.89922 15.4775 3.89922C15.4722 3.89922 15.4671 3.89929 15.462 3.89946C15.4567 3.89961 15.4516 3.89986 15.4465 3.9002C15.4413 3.90051 15.4361 3.90092 15.431 3.9014C15.4258 3.90188 15.4207 3.90243 15.4156 3.9031C15.4105 3.90373 15.4053 3.90445 15.4002 3.90526C15.3951 3.90605 15.39 3.90694 15.3849 3.90792C15.38 3.90888 15.3748 3.90992 15.3697 3.91104C15.3648 3.91215 15.3597 3.91334 15.3547 3.91463C15.3498 3.91591 15.3447 3.91726 15.3397 3.9187C15.3347 3.92013 15.3299 3.92165 15.325 3.92324C15.32 3.92482 15.3151 3.92649 15.3102 3.92823C15.3053 3.92997 15.3005 3.93179 15.2957 3.93368C15.2909 3.93556 15.2861 3.93753 15.2814 3.93957C15.2766 3.94162 15.2719 3.94373 15.2673 3.94593C15.2626 3.94811 15.258 3.95036 15.2533 3.9527C15.2486 3.95503 15.2441 3.95744 15.2396 3.95992L8.2758 7.02121C8.27033 7.02362 8.26489 7.02613 8.25949 7.02874C8.25412 7.03136 8.24877 7.03406 8.24348 7.03685C8.23819 7.03965 8.23295 7.04255 8.22775 7.04554C8.22258 7.04853 8.21744 7.05161 8.21237 7.05479C8.20729 7.05796 8.20228 7.06124 8.19733 7.0646C8.19237 7.06795 8.18747 7.07139 8.18263 7.07494C8.17781 7.07847 8.17305 7.08209 8.16833 7.0858C8.16364 7.0895 8.15901 7.0933 8.15445 7.09718C8.14988 7.10105 8.14539 7.105 8.14097 7.10904C8.13655 7.11307 8.1322 7.11719 8.12793 7.12139C8.12366 7.12557 8.11946 7.12984 8.11534 7.13419C8.11122 7.13854 8.1072 7.14295 8.10323 7.14746C8.09928 7.15194 8.0954 7.15651 8.0916 7.16115C8.08782 7.16578 8.08412 7.17046 8.08048 7.17524C8.07688 7.18 8.07333 7.18484 8.06988 7.18974C8.06644 7.19464 8.06309 7.19958 8.05981 7.2046C8.05655 7.20962 8.05338 7.21469 8.05029 7.21983C8.04721 7.22496 8.04422 7.23014 8.0413 7.23538C8.03842 7.24061 8.03561 7.2459 8.0329 7.25125C8.0302 7.25658 8.0276 7.26197 8.02507 7.26741C8.02258 7.27285 8.02016 7.27832 8.01785 7.28385C8.01553 7.28936 8.01333 7.29492 8.01121 7.30054C8.0091 7.30613 8.00709 7.31178 8.00518 7.31746C8.00327 7.32312 8.00147 7.32883 7.99977 7.33457C7.99808 7.34031 7.99648 7.34608 7.99498 7.35188C7.99349 7.35768 7.99211 7.36349 7.99082 7.36935C7.98954 7.3752 7.98837 7.38107 7.98729 7.38696C7.98624 7.39285 7.98528 7.39875 7.98441 7.40469C7.98356 7.41061 7.98281 7.41654 7.98217 7.42249C7.98154 7.42844 7.98099 7.4344 7.98057 7.44038C7.98015 7.44635 7.97984 7.45233 7.97963 7.45832C7.97942 7.4643 7.97933 7.47028 7.97933 7.47628L7.97933 14.8882C7.97939 14.899 7.97979 14.9098 7.98054 14.9206C7.9813 14.9314 7.98241 14.9421 7.98386 14.9528C7.98534 14.9635 7.98714 14.9742 7.98929 14.9848C7.99145 14.9953 7.99395 15.0059 7.99678 15.0163C7.99964 15.0267 8.00281 15.0371 8.00632 15.0473C8.00984 15.0575 8.01369 15.0676 8.01786 15.0775C8.02204 15.0876 8.02655 15.0974 8.03135 15.107C8.03618 15.1167 8.0413 15.1262 8.04674 15.1355C8.05218 15.1448 8.05792 15.154 8.06396 15.163C8.07 15.172 8.07631 15.1807 8.08292 15.1893C8.08953 15.1979 8.09641 15.2061 8.10356 15.2142C8.11073 15.2224 8.11813 15.2302 8.1258 15.2378C8.13346 15.2455 8.14138 15.2529 8.14952 15.2599C8.15766 15.267 8.16603 15.2739 8.17462 15.2805C8.18322 15.287 8.19202 15.2933 8.20102 15.2993C8.21004 15.3051 8.21922 15.3108 8.22859 15.3163C8.23797 15.3217 8.24751 15.3268 8.25721 15.3314C8.26692 15.3362 8.27676 15.3407 8.28675 15.3448C8.29675 15.3489 8.30687 15.3528 8.31711 15.3562C8.32736 15.3597 8.3377 15.3627 8.34814 15.3655C8.35859 15.3684 8.36911 15.3708 8.37972 15.3727C8.39032 15.3748 8.40099 15.3767 8.4117 15.378C8.42243 15.3794 8.43317 15.3804 8.44396 15.3812C8.45475 15.3819 8.46555 15.3822 8.47635 15.3822C8.48717 15.3822 8.49796 15.3818 8.50874 15.381C8.51953 15.3803 8.53029 15.3792 8.541 15.3779C8.55171 15.3765 8.56236 15.3747 8.57297 15.3726C8.58358 15.3705 8.5941 15.3681 8.60452 15.3652C8.61496 15.3624 8.6253 15.3592 8.63553 15.3558C8.64578 15.3523 8.65589 15.3484 8.66586 15.3444C8.67584 15.3403 8.68568 15.3358 8.69537 15.331C8.70508 15.3262 8.7146 15.3211 8.72396 15.3157L15.6809 11.3305C15.6855 11.3278 15.6901 11.325 15.6947 11.3222C15.6994 11.3193 15.7039 11.3164 15.7082 11.3134C15.7127 11.3104 15.7172 11.3073 15.7216 11.3042C15.726 11.3011 15.7303 11.2979 15.7345 11.2946C15.7389 11.2913 15.7431 11.288 15.7473 11.2845C15.7514 11.2811 15.7556 11.2776 15.7596 11.2741C15.7637 11.2705 15.7676 11.2669 15.7716 11.2632C15.7755 11.2596 15.7794 11.2558 15.7832 11.252C15.787 11.2482 15.7907 11.2443 15.7945 11.2404C15.7982 11.2365 15.8018 11.2325 15.8053 11.2284C15.8089 11.2244 15.8123 11.2203 15.8158 11.2161C15.8193 11.212 15.8226 11.2078 15.8259 11.2035C15.8292 11.1992 15.8325 11.1949 15.8356 11.1905C15.8388 11.1861 15.8418 11.1817 15.8448 11.1772C15.8478 11.1728 15.8507 11.1682 15.8535 11.1637C15.8564 11.1591 15.8592 11.1545 15.8619 11.1498C15.8646 11.1452 15.8673 11.1405 15.8699 11.1357C15.8724 11.131 15.8748 11.1262 15.8773 11.1213C15.8797 11.1165 15.8819 11.1116 15.8842 11.1067C15.8864 11.1018 15.8887 11.0969 15.8906 11.0919C15.8927 11.087 15.8947 11.082 15.8966 11.0769C15.8986 11.0719 15.9004 11.0668 15.9022 11.0617C15.9038 11.0566 15.9055 11.0515 15.9072 11.0463C15.9088 11.0412 15.9103 11.036 15.9117 11.0308C15.913 11.0256 15.9144 11.0204 15.9157 11.0151C15.9169 11.0099 15.9181 11.0046 15.9192 10.9993C15.9202 10.9941 15.9211 10.9888 15.922 10.9834C15.9229 10.9781 15.9238 10.9728 15.9246 10.9675C15.9253 10.9621 15.9259 10.9568 15.9264 10.9514C15.927 10.946 15.9274 10.9407 15.9279 10.9353C15.9282 10.9299 15.9285 10.9245 15.9286 10.9192C15.9288 10.9138 15.9289 10.9084 15.9291 10.903L15.9291 4.3805C15.9292 4.37533 15.9292 4.37018 15.9291 4.36502C15.9289 4.35986 15.9288 4.3547 15.9286 4.34956C15.9283 4.3444 15.928 4.33926 15.9276 4.33412C15.9271 4.32897 15.9267 4.32383 15.9262 4.31871C15.9256 4.31357 15.925 4.30846 15.9243 4.30335C15.9235 4.29824 15.9228 4.29315 15.9219 4.28807C15.921 4.28298 15.9201 4.27791 15.919 4.27287C15.918 4.2678 15.9168 4.26277 15.9156 4.25775C15.9144 4.25273 15.9132 4.24773 15.9118 4.24276C15.9105 4.23777 15.909 4.23281 15.9075 4.22788C15.9059 4.22294 15.9044 4.21803 15.9028 4.21316C15.9011 4.20826 15.8993 4.20341 15.8975 4.19859C15.8957 4.19375 15.8939 4.18894 15.892 4.18418C15.89 4.1794 15.8879 4.17465 15.8858 4.16995C15.8837 4.16523 15.8815 4.16056 15.8792 4.15593C15.877 4.15128 15.8747 4.14668 15.8723 4.14211C15.8699 4.13755 15.8675 4.13301 15.8649 4.12853C15.8624 4.12402 15.8597 4.11958 15.8571 4.11517C15.8544 4.11076 15.8517 4.1064 15.8489 4.10207C15.846 4.09775 15.8431 4.09346 15.8401 4.08923C15.8373 4.08499 15.8343 4.0808 15.8311 4.07667C15.828 4.07252 15.8248 4.06843 15.8217 4.06439C15.8185 4.06034 15.8152 4.05635 15.8119 4.05242C15.8086 4.04847 15.8053 4.04458 15.8018 4.04075C15.7984 4.0369 15.7948 4.03313 15.7913 4.0294C15.7877 4.02568 15.7841 4.022 15.7803 4.01839C15.7766 4.01478 15.7728 4.01122 15.7691 4.00774C15.7653 4.00422 15.7616 4.00078 15.7577 3.99742C15.7538 3.99404 15.7498 3.99072 15.7458 3.98747C15.7417 3.98422 15.7377 3.98102 15.7336 3.9779C15.7296 3.97477 15.7254 3.97171 15.7212 3.96872C15.7169 3.96572 15.7127 3.96277 15.7084 3.95992L15.7153 3.95992ZM14.95 10.5858L8.96528 13.9919L8.96528 7.78654L14.9431 5.13893L14.95 10.5858ZM14.8948 2.68439C14.8945 2.67817 14.8941 2.67197 14.8936 2.66578C14.8931 2.65959 14.8925 2.6534 14.8917 2.64724C14.891 2.64106 14.8901 2.63492 14.8891 2.62879C14.8882 2.62264 14.8871 2.61653 14.8859 2.61043C14.8847 2.60433 14.8834 2.59826 14.8819 2.59222C14.8805 2.58616 14.8789 2.58015 14.8773 2.57417C14.8756 2.56818 14.8738 2.56221 14.872 2.5563C14.8701 2.55038 14.8681 2.54449 14.866 2.53866C14.8639 2.5328 14.8617 2.527 14.8593 2.52123C14.857 2.51546 14.8546 2.50975 14.852 2.50409C14.8495 2.49841 14.8469 2.49277 14.8441 2.48721C14.8414 2.48163 14.8385 2.47611 14.8355 2.47066C14.8326 2.46519 14.8295 2.45978 14.8264 2.45443C14.8232 2.44908 14.82 2.44378 14.8166 2.43855C14.8133 2.43332 14.8098 2.42815 14.8062 2.42306C14.8027 2.41795 14.7991 2.41294 14.7953 2.40798C14.7916 2.403 14.7877 2.39811 14.7838 2.3933C14.7799 2.38848 14.7759 2.38373 14.7718 2.37907C14.7677 2.3744 14.7635 2.36982 14.7592 2.36531C14.7549 2.3608 14.7506 2.35637 14.7461 2.35203C14.7417 2.34767 14.7372 2.34342 14.7326 2.33924C14.728 2.33507 14.7233 2.33096 14.7185 2.32697C14.7138 2.32297 14.7089 2.31907 14.704 2.31525C14.6991 2.31142 14.6942 2.30769 14.6891 2.30407C14.6841 2.30044 14.679 2.29689 14.6738 2.29345C14.6686 2.29001 14.6634 2.28667 14.6581 2.28343C14.6528 2.28018 14.6474 2.27703 14.642 2.27399C14.6366 2.27094 14.6311 2.268 14.6256 2.26517C14.6201 2.26232 14.6145 2.25959 14.6089 2.25697C14.6032 2.25434 14.5976 2.25182 14.5918 2.2494C14.5861 2.24698 14.5803 2.24468 14.5745 2.24249C14.5687 2.24028 14.5629 2.23819 14.557 2.23622L8.2758 0.0229839C8.26384 0.0191816 8.25174 0.0158448 8.23951 0.0129732C8.22728 0.0101017 8.21498 0.00770398 8.20257 0.00578012C8.19016 0.00385626 8.1777 0.00241194 8.16517 0.00144717C8.15266 0.00048239 8.14011 0 8.12755 0C8.11501 0 8.10248 0.00048239 8.08995 0.00144717C8.07743 0.00241194 8.06496 0.00385626 8.05255 0.00578012C8.04014 0.00770398 8.02784 0.0101017 8.01561 0.0129732C8.00338 0.0158448 7.99129 0.0191816 7.97933 0.0229839L1.25689 2.37411C1.25108 2.37604 1.24531 2.37806 1.23958 2.38021C1.23385 2.38235 1.22816 2.3846 1.22251 2.38694C1.21686 2.38929 1.21126 2.39175 1.2057 2.39431C1.20015 2.39686 1.19464 2.39952 1.18918 2.40228C1.18372 2.40505 1.17831 2.4079 1.17296 2.41086C1.1676 2.41382 1.1623 2.41689 1.15706 2.42004C1.15182 2.4232 1.14664 2.42644 1.14152 2.42979C1.1364 2.43314 1.13134 2.43658 1.12635 2.44013C1.12136 2.44364 1.11643 2.44728 1.11157 2.45101C1.10671 2.45472 1.10193 2.45852 1.09721 2.46241C1.09249 2.4663 1.08784 2.47028 1.08327 2.47435C1.0787 2.47841 1.07421 2.48257 1.06979 2.48681C1.06537 2.49103 1.06103 2.49534 1.05677 2.49974C1.05251 2.50413 1.04834 2.50859 1.04425 2.51315C1.04015 2.51768 1.03614 2.52231 1.03222 2.52701C1.0283 2.5317 1.02446 2.53646 1.02072 2.5413C1.01697 2.54614 1.01332 2.55104 1.00975 2.55602C1.00619 2.56098 1.00271 2.56602 0.999336 2.57112C0.995957 2.57622 0.992673 2.58139 0.989486 2.58661C0.986298 2.59183 0.983208 2.5971 0.980215 2.60245C0.977222 2.60778 0.974328 2.61318 0.971535 2.61861C0.968741 2.62405 0.966049 2.62954 0.963459 2.6351C0.960868 2.64062 0.958382 2.64621 0.955998 2.65186C0.953613 2.65748 0.951334 2.66316 0.94916 2.66889C0.946986 2.67459 0.944917 2.68036 0.942957 2.68616C0.940996 2.69195 0.939142 2.69778 0.937396 2.70364C0.935651 2.7095 0.934014 2.7154 0.932486 2.72132C0.930959 2.72724 0.929542 2.7332 0.928233 2.73918C0.926925 2.74515 0.925729 2.75114 0.924642 2.75717C0.923556 2.76318 0.922583 2.76922 0.921719 2.77529C0.920856 2.78134 0.920105 2.78741 0.919467 2.79349C0.918828 2.79958 0.918304 2.80568 0.917891 2.81178C0.917477 2.81788 0.917177 2.82399 0.916989 2.83011C0.916803 2.83622 0.916729 2.84234 0.916768 2.84845C0.916806 2.85457 0.916958 2.86068 0.917224 2.8668C0.917489 2.87291 0.917867 2.87901 0.918358 2.88511C0.918849 2.89121 0.919452 2.8973 0.920167 2.90338C0.920883 2.90945 0.921711 2.9155 0.92265 2.92156C0.923591 2.9276 0.924642 2.93362 0.925804 2.93963C0.926967 2.94564 0.928241 2.95162 0.929624 2.95759C0.931008 2.96354 0.932501 2.96947 0.934105 2.97538C0.935708 2.98128 0.937419 2.98715 0.93924 2.993C0.941059 2.99883 0.942987 3.00464 0.945023 3.01041C0.947057 3.01618 0.949198 3.0219 0.951444 3.0276C0.95369 3.03328 0.956041 3.03893 0.958498 3.04455C0.960954 3.05014 0.963511 3.05569 0.966172 3.06121C0.968833 3.06671 0.971596 3.07218 0.974458 3.07758C0.97732 3.08299 0.980282 3.08834 0.983343 3.09364C0.986403 3.09893 0.98956 3.10418 0.992814 3.10936C0.996068 3.11453 0.999417 3.11965 1.00286 3.12471C1.0063 3.12976 1.00984 3.13477 1.01347 3.13969C1.0171 3.14461 1.02081 3.14946 1.02462 3.15427C1.02843 3.15904 1.03232 3.16376 1.03631 3.1684C1.04029 3.17305 1.04435 3.17761 1.04851 3.18212C1.05266 3.1866 1.05689 3.19102 1.0612 3.19537C1.06552 3.1997 1.06991 3.20395 1.07438 3.20813C1.07885 3.2123 1.0834 3.21639 1.08802 3.2204C1.09265 3.2244 1.09734 3.22832 1.10211 3.23217C1.10687 3.236 1.11171 3.23974 1.11662 3.2434C1.12152 3.24706 1.1265 3.25062 1.13154 3.25409C1.13657 3.25756 1.14167 3.26094 1.14684 3.26423C1.152 3.2675 1.15722 3.27069 1.1625 3.27378C1.16778 3.27686 1.17312 3.27985 1.17851 3.28275C1.1839 3.28564 1.18934 3.28843 1.19484 3.29112L7.17263 6.28347C7.18978 6.29165 7.20736 6.29881 7.22533 6.30499C7.24333 6.31115 7.2616 6.31626 7.28017 6.32031C7.29874 6.32437 7.31749 6.32736 7.33639 6.32927C7.3553 6.33117 7.37426 6.332 7.39325 6.33173C7.40972 6.33502 7.42631 6.3375 7.443 6.33915C7.45971 6.34081 7.47646 6.34163 7.49324 6.34163C7.51004 6.34163 7.52677 6.34081 7.54346 6.33915C7.56017 6.3375 7.57676 6.33502 7.59321 6.33173L14.5639 3.24286C14.5709 3.24052 14.5778 3.23803 14.5847 3.23538C14.5915 3.23272 14.5984 3.22991 14.6051 3.22697C14.6119 3.22401 14.6186 3.22091 14.6252 3.21767C14.6318 3.21441 14.6383 3.21101 14.6448 3.20747C14.6512 3.20392 14.6576 3.20023 14.6639 3.19641C14.6702 3.19258 14.6764 3.18861 14.6826 3.18453C14.6887 3.18041 14.6947 3.17617 14.7007 3.1718C14.7066 3.16743 14.7124 3.16292 14.7182 3.15829C14.7239 3.15367 14.7295 3.1489 14.7351 3.14402C14.7406 3.13914 14.746 3.13413 14.7513 3.12901C14.7566 3.12387 14.7618 3.11864 14.7668 3.1133C14.7719 3.10793 14.7768 3.10246 14.7817 3.09689C14.7865 3.09132 14.7912 3.08564 14.7957 3.07985C14.8003 3.07407 14.8048 3.06818 14.8091 3.0622C14.8134 3.05622 14.8175 3.05014 14.8216 3.04398C14.8256 3.0378 14.8295 3.03155 14.8333 3.02521C14.837 3.01887 14.8407 3.01244 14.8441 3.00595C14.8476 2.99944 14.8509 2.99286 14.8541 2.98622C14.8573 2.97957 14.8603 2.97285 14.8632 2.96606C14.8661 2.95927 14.8688 2.95243 14.8714 2.94552C14.8739 2.93861 14.8764 2.93164 14.8786 2.92464C14.8809 2.91762 14.883 2.91056 14.8849 2.90346C14.8869 2.89633 14.8887 2.88918 14.8903 2.882C14.8919 2.8748 14.8934 2.86758 14.8947 2.86034C14.896 2.85308 14.8972 2.84581 14.8982 2.83851C14.8992 2.83119 14.9 2.82386 14.9006 2.81653C14.9013 2.80918 14.9018 2.80183 14.9021 2.79447C14.9025 2.78711 14.9026 2.77973 14.9026 2.77237C14.9026 2.76499 14.9025 2.75762 14.9021 2.75026C14.9018 2.74289 14.9013 2.73553 14.9007 2.7282C14.9 2.72085 14.8992 2.71352 14.8982 2.70622C14.8973 2.69892 14.8961 2.69163 14.8948 2.68439ZM7.42773 5.25615L2.71169 2.9326L8.10343 1.04341L13.0332 2.73265L7.42773 5.25615Z" >
</path>
</svg>
