<svg xmlns="http://www.w3.org/2000/svg" xmlns:xlink="http://www.w3.org/1999/xlink" width="16" height="16" viewBox="0 0 16 16" fill="current">
<path d="M5.99997 12C5.98357 12.0001 5.96717 11.9998 5.95078 11.9991C5.93439 11.9984 5.91804 11.9973 5.90172 11.9958C5.88539 11.9942 5.86909 11.9923 5.85286 11.99C5.83662 11.9877 5.82045 11.985 5.80436 11.9819C5.78825 11.9787 5.77223 11.9752 5.75629 11.9713C5.74037 11.9674 5.72454 11.9631 5.70883 11.9585C5.69311 11.9538 5.67751 11.9487 5.66204 11.9433C5.64657 11.9378 5.63125 11.932 5.61606 11.9258C5.60087 11.9196 5.58586 11.913 5.571 11.9061C5.55614 11.8991 5.54145 11.8918 5.52695 11.8842C5.51245 11.8765 5.49815 11.8685 5.48404 11.8601C5.46993 11.8518 5.45604 11.8431 5.44236 11.834C5.42868 11.825 5.41523 11.8156 5.40203 11.8059C5.38881 11.7962 5.37584 11.7861 5.36311 11.7758C5.35039 11.7654 5.33793 11.7548 5.32573 11.7438C5.31353 11.7328 5.30161 11.7216 5.28997 11.71L2.08997 8.50003L3.49997 7.09003L5.99997 9.59003L12.5 3.09003L13.91 4.50003L6.70997 11.71C6.69833 11.7216 6.6864 11.7328 6.6742 11.7438C6.662 11.7548 6.64954 11.7654 6.63683 11.7758C6.62409 11.7861 6.61112 11.7962 6.5979 11.8059C6.5847 11.8156 6.57125 11.825 6.55758 11.834C6.54389 11.8431 6.53 11.8518 6.51589 11.8601C6.50178 11.8685 6.48748 11.8765 6.47298 11.8842C6.45848 11.8918 6.44379 11.8991 6.42893 11.9061C6.41408 11.913 6.39906 11.9196 6.38387 11.9258C6.36868 11.932 6.35336 11.9378 6.33789 11.9433C6.32242 11.9487 6.30683 11.9538 6.29111 11.9585C6.27539 11.9631 6.25956 11.9674 6.24364 11.9713C6.2277 11.9752 6.21168 11.9787 6.19558 11.9819C6.17948 11.985 6.16331 11.9877 6.14708 11.99C6.13084 11.9923 6.11454 11.9942 6.09822 11.9958C6.08189 11.9973 6.06554 11.9984 6.04915 11.9991C6.03276 11.9998 6.01637 12.0001 5.99997 12Z" >
</path>
</svg>
