<svg xmlns="http://www.w3.org/2000/svg" xmlns:xlink="http://www.w3.org/1999/xlink" width="16" height="16" viewBox="0 0 16 16" fill="current">
<path d="M1 2.588L1 6.5C1 6.776 1.224 7 1.5 7C1.776 7 2 6.776 2 6.5L2 3.677L5.179 6.857C5.366 7.044 5.669 7.044 5.857 6.857C6.044 6.669 6.044 6.366 5.857 6.179L2.677 3L5.5 3C5.776 3 6 2.776 6 2.5C6 2.224 5.776 2 5.5 2L1.588 2C1.223 2 1 2.188 1 2.588ZM13.443 2L9.531 2C9.255 2 9.031 2.224 9.031 2.5C9.031 2.776 9.255 3 9.531 3L12.354 3L9.174 6.179C8.987 6.366 8.987 6.669 9.174 6.857C9.362 7.044 9.665 7.044 9.852 6.857L13.031 3.677L13.031 6.5C13.031 6.776 13.255 7 13.531 7C13.807 7 14.031 6.776 14.031 6.5L14.031 2.588C14.031 2.188 13.809 2 13.443 2ZM1.588 15L5.5 15C5.776 15 6 14.776 6 14.5C6 14.224 5.776 14 5.5 14L2.677 14L5.857 10.821C6.044 10.634 6.044 10.331 5.857 10.143C5.669 9.956 5.366 9.956 5.179 10.143L2 13.323L2 10.5C2 10.224 1.776 10 1.5 10C1.224 10 1 10.224 1 10.5L1 14.412C1 14.812 1.223 15 1.588 15ZM14.031 14.412L14.031 10.5C14.031 10.224 13.807 10 13.531 10C13.255 10 13.031 10.224 13.031 10.5L13.031 13.323L9.852 10.143C9.665 9.956 9.362 9.956 9.174 10.143C8.987 10.331 8.987 10.634 9.174 10.821L12.354 14L9.531 14C9.255 14 9.031 14.224 9.031 14.5C9.031 14.776 9.255 15 9.531 15L13.443 15C13.809 15 14.031 14.812 14.031 14.412Z" >
</path>
</svg>
