<svg xmlns="http://www.w3.org/2000/svg" xmlns:xlink="http://www.w3.org/1999/xlink" fill="none" version="1.1" width="16" height="16" viewBox="0 0 16 16"><defs><clipPath id="master_svg0_22_2442"><rect x="0" y="0" width="16" height="16" rx="0"/></clipPath></defs><g clip-path="url(#master_svg0_22_2442)"><g><path d="M8.30156,8.975L8.30625,8.95312C8.39687,8.57969,8.51094,8.11406,8.42188,7.69219C8.3625,7.35938,8.11719,7.22969,7.90781,7.22031C7.66094,7.20937,7.44063,7.35,7.38594,7.55469C7.28281,7.92969,7.375,8.44219,7.54375,9.09531C7.33125,9.60156,6.99219,10.3375,6.74375,10.775C6.28125,11.0141,5.66094,11.3828,5.56875,11.8484C5.55,11.9344,5.57188,12.0437,5.62344,12.1422C5.68125,12.2516,5.77344,12.3359,5.88125,12.3766C5.9281299999999995,12.3937,5.98438,12.4078,6.05,12.4078C6.325,12.4078,6.77031,12.1859,7.36406,11.1672C7.45469,11.1375,7.54844,11.1062,7.63906,11.075C8.06406,10.93125,8.50469,10.78125,8.90313,10.71406C9.34375,10.95,9.84531,11.1016,10.18594,11.1016C10.52344,11.1016,10.65625,10.90156,10.70625,10.78125C10.79375,10.57031,10.75156,10.30469,10.60938,10.1625C10.403120000000001,9.95937,9.90156,9.90625,9.12031,10.00312C8.73594,9.76875,8.48438,9.45,8.30156,8.975ZM6.5875,11.3484C6.37031,11.6641,6.20625,11.8219,6.11719,11.8906C6.2218800000000005,11.6984,6.42656,11.4953,6.5875,11.3484ZM7.95625,7.66875C8.0375,7.80781,8.02656,8.22812,7.96406,8.440629999999999C7.8875,8.12969,7.87656,7.68906,7.92188,7.6375C7.93437,7.63906,7.94531,7.64844,7.95625,7.66875ZM7.93125,9.55156C8.09844,9.84062,8.309370000000001,10.08906,8.54219,10.27344C8.20469,10.35,7.89688,10.47656,7.62188,10.58906C7.55625,10.61563,7.49219,10.64219,7.42969,10.66719C7.6375,10.29063,7.81094,9.86406,7.93125,9.55156ZM10.3625,10.575C10.36406,10.57812,10.36563,10.58281,10.35625,10.58906L10.35312,10.58906L10.35,10.59375C10.3375,10.60156,10.20937,10.67656,9.65781,10.45938C10.29219,10.42969,10.36094,10.57344,10.3625,10.575ZM13.3531,4.50938L9.99063,1.146875C9.89688,1.053125,9.77031,1,9.6375,1L3,1C2.723438,1,2.5,1.223438,2.5,1.5L2.5,14.5C2.5,14.7766,2.723438,15,3,15L13,15C13.2766,15,13.5,14.7766,13.5,14.5L13.5,4.86406C13.5,4.73125,13.4469,4.6031200000000005,13.3531,4.50938ZM12.34688,5.09375L9.40625,5.09375L9.40625,2.15313L12.34688,5.09375ZM12.375,13.875L3.625,13.875L3.625,2.125L8.34375,2.125L8.34375,5.5C8.34375,5.8625,8.6375,6.15625,9,6.15625L12.375,6.15625L12.375,13.875Z" fill="#3D3D3D" fill-opacity="1" style="mix-blend-mode:passthrough"/></g></g></svg>