<svg xmlns="http://www.w3.org/2000/svg" xmlns:xlink="http://www.w3.org/1999/xlink" width="16" height="16" viewBox="0 0 16 16" fill="current">
<path d="M10.0937 9.81243C10.276 9.99473 10.5743 9.99473 10.7566 9.81243L13.1873 7.38174C13.2793 7.28973 13.3248 7.16817 13.3239 7.04688C13.3248 6.9256 13.2793 6.80404 13.1873 6.71202L10.7566 4.28133C10.5743 4.09904 10.276 4.09904 10.0937 4.28133C9.91139 4.46363 9.91139 4.76194 10.0937 4.94424L12.1963 7.04688L10.0937 9.14952C9.91139 9.33182 9.91139 9.63013 10.0937 9.81243ZM2.92181 7.38174L5.3525 9.81243C5.5348 9.99473 5.83311 9.99473 6.01541 9.81243C6.1977 9.63013 6.1977 9.33182 6.01541 9.14952L3.91276 7.04688L6.01541 4.94424C6.1977 4.76194 6.1977 4.46363 6.01541 4.28133C5.83311 4.09904 5.5348 4.09904 5.3525 4.28133L2.92181 6.71202C2.82979 6.80404 2.78429 6.9256 2.78517 7.04688C2.78429 7.16817 2.82979 7.28973 2.92181 7.38174ZM7.26583 10.9615C7.51802 11.0151 7.76819 10.8526 7.8218 10.6005L9.25119 3.87571C9.3048 3.62352 9.14231 3.37335 8.89014 3.31974C8.63795 3.26613 8.38777 3.42861 8.33417 3.68079L6.90478 10.4056C6.85117 10.6577 7.01366 10.9079 7.26583 10.9615Z">
</path>
<path d="M14.0742 1.01562L1.94922 1.01562C1.43359 1.01562 1.01172 1.4375 1.01172 1.95312L1.01172 12.0781C1.01172 12.5938 1.43359 13.0156 1.94922 13.0156L14.0742 13.0156C14.5898 13.0156 15.0117 12.5938 15.0117 12.0781L15.0117 1.95312C15.0117 1.4375 14.5898 1.01562 14.0742 1.01562ZM14.0977 12.0781L1.92578 12.0781L1.92578 1.95312L14.0977 1.95312L14.0977 12.0781ZM13.7656 14.0781L2.53125 14.0781C2.27344 14.0781 2.0625 14.2891 2.0625 14.5469C2.0625 14.8047 2.27344 15.0156 2.53125 15.0156L13.7656 15.0156C14.0234 15.0156 14.2344 14.8047 14.2344 14.5469C14.2344 14.2891 14.0234 14.0781 13.7656 14.0781Z" >
</path>
</svg>
