<svg xmlns="http://www.w3.org/2000/svg" xmlns:xlink="http://www.w3.org/1999/xlink" width="16" height="16" viewBox="0 0 16 16" fill="current">
<path d="M15 6.50001L15 3.00001L13.8585 4.14151C13.8189 4.08146 13.7783 4.02204 13.7369 3.96325C13.6954 3.90445 13.653 3.84629 13.6098 3.78881C13.5665 3.73132 13.5224 3.67451 13.4774 3.61839C13.4323 3.56226 13.3865 3.50684 13.3398 3.45212C13.293 3.39742 13.2455 3.34343 13.1971 3.29018C13.1487 3.23695 13.0995 3.18446 13.0495 3.13273C12.9995 3.081 12.9487 3.03006 12.8971 2.9799C12.8455 2.92975 12.7932 2.88039 12.7401 2.83184C12.687 2.78329 12.6331 2.73559 12.5786 2.6887C12.524 2.64181 12.4687 2.59578 12.4127 2.55061C12.3567 2.50543 12.3 2.46113 12.2427 2.4177C12.1853 2.37427 12.1273 2.33174 12.0686 2.29009C12.0099 2.24845 11.9506 2.20773 11.8907 2.16792C11.8308 2.12811 11.7703 2.08923 11.7091 2.05129C11.648 2.01336 11.5863 1.97637 11.524 1.94032C11.4617 1.90428 11.3989 1.86921 11.3356 1.83512C11.2722 1.80102 11.2084 1.7679 11.144 1.73578C11.0796 1.70364 11.0147 1.67251 10.9494 1.64239C10.8841 1.61226 10.8183 1.58315 10.7521 1.55505C10.6858 1.52695 10.6192 1.49988 10.5521 1.47384C10.485 1.44779 10.4176 1.42279 10.3497 1.39883C10.2819 1.37487 10.2137 1.35196 10.1451 1.33011C10.0766 1.30825 10.0077 1.28746 9.93855 1.26773C9.86935 1.24799 9.79988 1.22933 9.73012 1.21175C9.66035 1.19416 9.59034 1.17765 9.52005 1.16222C9.44979 1.1468 9.37929 1.13246 9.30857 1.1192C9.23785 1.10595 9.16695 1.09379 9.09585 1.08273C9.02476 1.07166 8.95351 1.0617 8.88212 1.05283C8.81073 1.04397 8.73919 1.0362 8.66755 1.02954C8.59591 1.02288 8.52419 1.01733 8.45238 1.01288C8.38057 1.00844 8.30871 1.0051 8.2368 1.00287C8.16488 1.00064 8.09296 0.999521 8.02101 0.999512C4.15501 0.999512 1.02051 4.13351 1.02051 8.00001C1.02051 11.8665 4.15501 15.0005 8.02101 15.0005C8.10746 15.0005 8.19387 14.9989 8.28026 14.9958C8.36665 14.9926 8.45296 14.9878 8.53916 14.9814C8.62538 14.975 8.71144 14.9671 8.79737 14.9575C8.88329 14.9479 8.96899 14.9368 9.05449 14.924C9.13999 14.9113 9.22523 14.8969 9.31021 14.881C9.39518 14.8652 9.47982 14.8477 9.56415 14.8286C9.64848 14.8096 9.73243 14.789 9.81599 14.7669C9.89955 14.7447 9.98268 14.721 10.0654 14.6958C10.148 14.6706 10.2302 14.6438 10.3119 14.6156C10.3936 14.5873 10.4748 14.5575 10.5554 14.5262C10.6359 14.495 10.7159 14.4622 10.7953 14.428C10.8747 14.3937 10.9534 14.358 11.0315 14.3209C11.1095 14.2837 11.1869 14.2451 11.2635 14.2051C11.3401 14.1651 11.416 14.1237 11.4911 14.0808C11.5662 14.038 11.6404 13.9938 11.7139 13.9482C11.7873 13.9026 11.8599 13.8557 11.9316 13.8074C12.0034 13.7592 12.0741 13.7096 12.144 13.6587C12.2139 13.6078 12.2828 13.5556 12.3508 13.5022C12.4187 13.4487 12.4856 13.394 12.5516 13.3381C12.6175 13.2822 12.6824 13.2251 12.7462 13.1667C12.81 13.1084 12.8727 13.0489 12.9343 12.9882C12.9959 12.9276 13.0563 12.8658 13.1156 12.8029C13.175 12.74 13.2331 12.6761 13.29 12.611C13.347 12.546 13.4027 12.4799 13.4572 12.4128C13.5117 12.3457 13.5649 12.2776 13.6169 12.2085C13.6689 12.1394 13.7195 12.0694 13.7689 11.9985C13.8183 11.9275 13.8663 11.8557 13.9131 11.7829C13.9598 11.7102 14.0051 11.6366 14.0491 11.5622C14.0931 11.4878 14.1357 11.4126 14.1769 11.3366C14.2181 11.2606 14.2579 11.1838 14.2963 11.1064C14.3346 11.0289 14.3716 10.9507 14.407 10.8719C14.4425 10.7931 14.4765 10.7136 14.509 10.6335C14.5127 10.6244 14.5162 10.6152 14.5194 10.606C14.5226 10.5967 14.5257 10.5874 14.5285 10.5779C14.5312 10.5685 14.5338 10.5591 14.5361 10.5495C14.5384 10.54 14.5405 10.5304 14.5424 10.5207C14.5442 10.5111 14.5458 10.5014 14.5472 10.4917C14.5486 10.482 14.5497 10.4722 14.5506 10.4625C14.5515 10.4527 14.5521 10.4429 14.5526 10.4331C14.553 10.4233 14.5532 10.4135 14.5531 10.4037C14.553 10.3938 14.5527 10.384 14.5522 10.3742C14.5516 10.3644 14.5508 10.3546 14.5498 10.3449C14.5488 10.3351 14.5475 10.3254 14.546 10.3157C14.5445 10.306 14.5428 10.2963 14.5408 10.2867C14.5388 10.2771 14.5366 10.2675 14.5341 10.258C14.5317 10.2485 14.529 10.2391 14.5261 10.2297C14.5231 10.2203 14.52 10.211 14.5166 10.2018C14.5133 10.1926 14.5097 10.1835 14.5059 10.1744C14.502 10.1654 14.498 10.1564 14.4937 10.1476C14.4895 10.1387 14.485 10.13 14.4803 10.1214C14.4756 10.1127 14.4708 10.1042 14.4656 10.0959C14.4605 10.0875 14.4552 10.0792 14.4497 10.0711C14.4442 10.063 14.4385 10.055 14.4326 10.0471C14.4267 10.0393 14.4206 10.0316 14.4143 10.0241C14.4081 10.0165 14.4016 10.0091 14.3949 10.0019C14.3883 9.99465 14.3815 9.98759 14.3745 9.9807C14.3675 9.97381 14.3604 9.96711 14.353 9.96056C14.3457 9.95401 14.3382 9.94765 14.3306 9.94148C14.323 9.93531 14.3152 9.92931 14.3073 9.92351C14.2994 9.91772 14.2913 9.91212 14.2831 9.90673C14.2749 9.90134 14.2666 9.89614 14.2581 9.89115C14.2497 9.88617 14.2411 9.88139 14.2324 9.87681C14.2237 9.87225 14.2149 9.8679 14.206 9.86376C14.1971 9.85962 14.1881 9.85571 14.179 9.85201C14.1699 9.84831 14.1607 9.84484 14.1515 9.84161C14.1422 9.83837 14.1329 9.83536 14.1234 9.83256C14.114 9.82978 14.1046 9.82723 14.095 9.8249C14.0855 9.82257 14.0759 9.8205 14.0662 9.81865C14.0566 9.81679 14.0469 9.81518 14.0372 9.81381C14.0275 9.81245 14.0177 9.81131 14.008 9.81042C13.9982 9.80953 13.9884 9.80887 13.9786 9.80845C13.9688 9.80803 13.959 9.80786 13.9491 9.80792C13.9393 9.808 13.9295 9.80831 13.9197 9.80886C13.9099 9.8094 13.9001 9.81018 13.8904 9.81121C13.8806 9.81225 13.8709 9.81351 13.8612 9.81503C13.8515 9.81653 13.8418 9.81826 13.8322 9.82025C13.8226 9.82223 13.813 9.82445 13.8035 9.8269C13.794 9.82936 13.7846 9.83203 13.7752 9.83495C13.7658 9.83787 13.7565 9.84101 13.7473 9.84437C13.7381 9.84775 13.729 9.85134 13.7199 9.85515C13.7109 9.85898 13.7019 9.86301 13.6931 9.86728C13.6842 9.87153 13.6755 9.876 13.6669 9.88068C13.6582 9.88537 13.6497 9.89026 13.6414 9.89537C13.633 9.90048 13.6247 9.90578 13.6166 9.91129C13.6085 9.91681 13.6005 9.92251 13.5926 9.92842C13.5848 9.93431 13.5771 9.9404 13.5696 9.94668C13.562 9.95296 13.5546 9.95943 13.5474 9.96607C13.5401 9.97271 13.5331 9.97953 13.5262 9.98651C13.5193 9.9935 13.5126 10.0007 13.5061 10.008C13.4995 10.0153 13.4931 10.0228 13.487 10.0304C13.4808 10.038 13.4748 10.0458 13.469 10.0537C13.4632 10.0617 13.4576 10.0697 13.4522 10.0779C13.4468 10.0861 13.4416 10.0944 13.4366 10.1029C13.4317 10.1114 13.4269 10.1199 13.4223 10.1286C13.4177 10.1373 13.4134 10.1461 13.4093 10.155C13.4051 10.1639 13.4012 10.1729 13.3975 10.182C13.3706 10.2484 13.3424 10.3142 13.313 10.3795C13.2836 10.4449 13.253 10.5096 13.2212 10.5738C13.1894 10.638 13.1564 10.7016 13.1222 10.7645C13.0881 10.8275 13.0528 10.8898 13.0163 10.9515C12.9799 11.0132 12.9423 11.0741 12.9035 11.1344C12.8648 11.1947 12.825 11.2542 12.7841 11.313C12.7431 11.3718 12.7011 11.4298 12.6581 11.487C12.615 11.5442 12.5709 11.6007 12.5257 11.6563C12.4806 11.7119 12.4344 11.7666 12.3872 11.8205C12.34 11.8744 12.2918 11.9274 12.2427 11.9795C12.1935 12.0316 12.1434 12.0828 12.0924 12.1331C12.0413 12.1833 11.9894 12.2326 11.9365 12.2809C11.8836 12.3293 11.8299 12.3766 11.7752 12.4229C11.7206 12.4693 11.6651 12.5146 11.6088 12.5589C11.5525 12.6032 11.4954 12.6464 11.4375 12.6886C11.3796 12.7307 11.3209 12.7718 11.2615 12.8118C11.2021 12.8518 11.1419 12.8907 11.0811 12.9285C11.0202 12.9662 10.9586 13.0029 10.8964 13.0384C10.8342 13.0738 10.7713 13.1082 10.7078 13.1413C10.6444 13.1745 10.5803 13.2065 10.5156 13.2372C10.4509 13.268 10.3857 13.2976 10.3199 13.326C10.2541 13.3544 10.1878 13.3815 10.1211 13.4074C10.0543 13.4333 9.98704 13.458 9.91934 13.4814C9.85165 13.5049 9.78354 13.527 9.71502 13.5479C9.64651 13.5688 9.57763 13.5885 9.50838 13.6068C9.43915 13.6252 9.36959 13.6422 9.29971 13.658C9.22984 13.6738 9.1597 13.6883 9.08929 13.7014C9.01887 13.7146 8.94824 13.7265 8.87738 13.7371C8.80654 13.7476 8.73552 13.7569 8.66432 13.7648C8.59312 13.7727 8.5218 13.7794 8.45037 13.7847C8.37893 13.7899 8.30741 13.7939 8.23584 13.7966C8.16426 13.7992 8.09265 13.8005 8.02101 13.8005C4.81751 13.8005 2.22051 11.2035 2.22051 8.00001C2.22051 4.79651 4.81751 2.19951 8.02101 2.19951C10.0905 2.19951 11.9575 3.29451 12.99 5.00951L11.5 6.50001L15 6.50001Z" >
</path>
</svg>
