<svg xmlns="http://www.w3.org/2000/svg" xmlns:xlink="http://www.w3.org/1999/xlink" width="16" height="16" viewBox="0 0 16 16" fill="current">
<path d="M7.545 1.75L7.275 3.167L6.9525 3.2375C6.88352 3.25261 6.81489 3.2692 6.74662 3.28731C6.67836 3.30542 6.61053 3.32502 6.54313 3.34609C6.47573 3.36717 6.40883 3.38972 6.34241 3.41373C6.27598 3.43773 6.21012 3.46319 6.14483 3.49008C6.07953 3.51697 6.01484 3.54528 5.95078 3.575C5.88672 3.60472 5.82334 3.63583 5.76064 3.66833C5.69794 3.70083 5.63597 3.73469 5.57475 3.76989C5.51353 3.80511 5.45311 3.84164 5.3935 3.8795L5.1015 4.0645L3.9565 3.2045L3.259 3.902L4.07 5.096L3.892 5.3735C3.85386 5.43295 3.81705 5.4932 3.78155 5.55425C3.74606 5.61531 3.71191 5.67711 3.67911 5.73966C3.64631 5.8022 3.61491 5.86545 3.58488 5.92938C3.55484 5.9933 3.52623 6.05784 3.49903 6.12302C3.47183 6.18819 3.44605 6.25394 3.42172 6.32023C3.39739 6.38653 3.37453 6.45334 3.35313 6.52066C3.3317 6.58795 3.31178 6.65569 3.29334 6.72386C3.27489 6.79203 3.25795 6.86058 3.2425 6.9295L3.1675 7.267L1.75 7.4685L1.75 8.4545L3.167 8.725L3.2375 9.0475C3.25261 9.11648 3.26923 9.18511 3.28734 9.25336C3.30547 9.32162 3.32508 9.38945 3.34616 9.45686C3.36723 9.52425 3.38978 9.59116 3.4138 9.65758C3.43781 9.724 3.46325 9.78986 3.49014 9.85516C3.51703 9.92045 3.54534 9.98514 3.57506 10.0492C3.60478 10.1133 3.63589 10.1766 3.66838 10.2393C3.70088 10.302 3.73472 10.364 3.76992 10.4252C3.80512 10.4865 3.84166 10.5469 3.8795 10.6065L4.0645 10.8985L3.2045 12.0435L3.902 12.741L5.096 11.93L5.3735 12.108C5.43295 12.1461 5.4932 12.183 5.55425 12.2185C5.61531 12.2539 5.67712 12.2881 5.73967 12.3209C5.80222 12.3537 5.86545 12.3851 5.92938 12.4151C5.9933 12.4451 6.05784 12.4738 6.12302 12.501C6.18819 12.5282 6.25394 12.554 6.32023 12.5783C6.38653 12.6026 6.45334 12.6255 6.52066 12.6469C6.58795 12.6683 6.65569 12.6882 6.72386 12.7067C6.79203 12.7251 6.86058 12.742 6.9295 12.7575L7.267 12.8325L7.4685 14.25L8.4545 14.25L8.725 12.833L9.0475 12.7625C9.11648 12.7474 9.18511 12.7308 9.25336 12.7127C9.32162 12.6945 9.38945 12.6749 9.45686 12.6538C9.52425 12.6328 9.59116 12.6102 9.65758 12.5862C9.724 12.5622 9.78986 12.5367 9.85516 12.5099C9.92045 12.483 9.98514 12.4547 10.0492 12.4249C10.1133 12.3952 10.1766 12.3641 10.2393 12.3316C10.302 12.2991 10.364 12.2653 10.4252 12.2301C10.4865 12.1949 10.5469 12.1583 10.6065 12.1205L10.8985 11.9355L12.0435 12.7955L12.741 12.098L11.93 10.904L12.108 10.6265C12.1461 10.567 12.183 10.5068 12.2185 10.4458C12.254 10.3847 12.2881 10.3229 12.3209 10.2603C12.3537 10.1978 12.3851 10.1345 12.4151 10.0706C12.4452 10.0067 12.4738 9.94214 12.501 9.87697C12.5282 9.8118 12.554 9.74606 12.5783 9.67975C12.6026 9.61345 12.6255 9.54664 12.6469 9.47934C12.6683 9.41205 12.6882 9.3443 12.7067 9.27612C12.7251 9.20795 12.742 9.13942 12.7575 9.0705L12.8325 8.733L14.25 8.5315L14.25 7.545L12.833 7.2745L12.7625 6.952C12.7474 6.88302 12.7308 6.81439 12.7127 6.74614C12.6945 6.67788 12.6749 6.61005 12.6539 6.54264C12.6328 6.47525 12.6102 6.40834 12.5862 6.34192C12.5622 6.2755 12.5367 6.20964 12.5099 6.14434C12.483 6.07905 12.4547 6.01436 12.4249 5.9503C12.3952 5.88623 12.3641 5.82286 12.3316 5.76016C12.2991 5.69745 12.2653 5.63548 12.2301 5.57427C12.1949 5.51305 12.1583 5.45262 12.1205 5.393L11.9355 5.101L12.7955 3.956L12.098 3.2585L10.904 4.0695L10.6265 3.8915C10.567 3.85337 10.5068 3.81656 10.4457 3.78106C10.3847 3.74558 10.3229 3.71144 10.2603 3.67864C10.1978 3.64584 10.1345 3.61444 10.0706 3.58441C10.0067 3.55437 9.94214 3.52577 9.87697 3.49856C9.8118 3.47136 9.74605 3.44558 9.67975 3.42125C9.61345 3.39692 9.54664 3.37405 9.47934 3.35264C9.41205 3.33123 9.3443 3.3113 9.27612 3.29284C9.20795 3.27439 9.13942 3.25745 9.0705 3.242L8.733 3.167L8.5315 1.7495L7.545 1.7495L7.545 1.75ZM6.415 2.3415L6.7185 0.75L9.3995 0.75L9.628 2.3535C10.0655 2.4795 10.485 2.6555 10.88 2.878L12.2205 1.967L14.1165 3.863L13.1435 5.158C13.3635 5.555 13.5365 5.976 13.6585 6.4145L15.2505 6.718L15.2505 9.399L13.647 9.6275C13.6156 9.73648 13.5811 9.84445 13.5435 9.95142C13.5058 10.0584 13.4651 10.1642 13.4212 10.2688C13.3774 10.3734 13.3306 10.4766 13.2808 10.5785C13.2309 10.6804 13.1782 10.7807 13.1225 10.8795L14.0335 12.22L12.1375 14.116L10.8425 13.143C10.4455 13.363 10.0245 13.536 9.586 13.658L9.2825 15.25L6.6015 15.25L6.373 13.6465C6.26402 13.6151 6.15605 13.5806 6.04908 13.543C5.94209 13.5053 5.83631 13.4646 5.73172 13.4207C5.62711 13.3769 5.52388 13.3301 5.42202 13.2803C5.32014 13.2304 5.2198 13.1777 5.121 13.122L3.78 14.033L1.884 12.137L2.857 10.842C2.80206 10.7427 2.75006 10.642 2.701 10.5397C2.65194 10.4374 2.60589 10.3337 2.56286 10.2288C2.51984 10.1238 2.47991 10.0176 2.44306 9.91034C2.40622 9.80305 2.37253 9.69477 2.342 9.5855L0.75 9.282L0.75 6.601L2.3535 6.3725C2.4795 5.9355 2.6555 5.5155 2.878 5.1205L1.967 3.78L3.863 1.884L5.158 2.857C5.25727 2.80206 5.35803 2.75006 5.46033 2.701C5.56262 2.65194 5.66625 2.60589 5.77123 2.56286C5.87622 2.51984 5.98236 2.47991 6.08966 2.44306C6.19695 2.40622 6.30523 2.37253 6.4145 2.342L6.415 2.3415Z" >
</path>
<path d="M8 11C7.95091 11 7.90184 10.9988 7.8528 10.9964C7.80375 10.994 7.75481 10.9904 7.70595 10.9855C7.65709 10.9807 7.60838 10.9747 7.55981 10.9675C7.51123 10.9603 7.46287 10.9519 7.41473 10.9424C7.36658 10.9328 7.31869 10.922 7.27106 10.9101C7.22344 10.8982 7.17613 10.8851 7.12914 10.8708C7.08216 10.8566 7.03556 10.8412 6.98933 10.8246C6.94309 10.8081 6.89731 10.7904 6.85195 10.7716C6.80659 10.7528 6.76172 10.733 6.71733 10.712C6.67295 10.691 6.62911 10.6689 6.58581 10.6458C6.54251 10.6226 6.4998 10.5984 6.45769 10.5732C6.41557 10.548 6.3741 10.5217 6.33328 10.4944C6.29246 10.4671 6.25233 10.4389 6.21291 10.4096C6.17347 10.3804 6.13478 10.3502 6.09683 10.319C6.05887 10.2879 6.0217 10.2558 5.98533 10.2229C5.94894 10.1899 5.91339 10.156 5.87867 10.1213C5.84396 10.0866 5.81012 10.0511 5.77714 10.0147C5.74417 9.9783 5.71211 9.94112 5.68097 9.90317C5.64982 9.86522 5.61963 9.82653 5.59037 9.78709C5.56112 9.74766 5.53286 9.70753 5.50559 9.6667C5.47831 9.62588 5.45205 9.58442 5.42681 9.54231C5.40157 9.5002 5.37738 9.45748 5.35423 9.41419C5.33109 9.37089 5.30902 9.32705 5.28803 9.28266C5.26704 9.23828 5.24715 9.19341 5.22836 9.14805C5.20957 9.10269 5.19191 9.05691 5.17537 9.01067C5.15883 8.96444 5.14343 8.91784 5.12917 8.87086C5.11492 8.82388 5.10183 8.77656 5.08991 8.72894C5.07798 8.68131 5.06722 8.63342 5.05764 8.58527C5.04807 8.53711 5.03968 8.48875 5.03247 8.44019C5.02527 8.39162 5.01927 8.34291 5.01445 8.29405C5.00964 8.24519 5.00603 8.19625 5.00361 8.1472C5.0012 8.09816 5 8.04909 5 8C5 7.95091 5.0012 7.90184 5.00361 7.8528C5.00603 7.80375 5.00964 7.75481 5.01445 7.70595C5.01927 7.65709 5.02527 7.60838 5.03247 7.55981C5.03968 7.51123 5.04807 7.46287 5.05764 7.41473C5.06722 7.36658 5.07798 7.31869 5.08991 7.27106C5.10183 7.22344 5.11492 7.17613 5.12917 7.12914C5.14343 7.08216 5.15883 7.03556 5.17537 6.98933C5.19191 6.94309 5.20957 6.89731 5.22836 6.85195C5.24715 6.80659 5.26704 6.76172 5.28803 6.71733C5.30902 6.67295 5.33109 6.62911 5.35423 6.58581C5.37738 6.54251 5.40157 6.4998 5.42681 6.45769C5.45205 6.41557 5.47831 6.3741 5.50559 6.33328C5.53286 6.29246 5.56112 6.25233 5.59037 6.21291C5.61963 6.17347 5.64982 6.13478 5.68097 6.09683C5.71211 6.05887 5.74417 6.0217 5.77714 5.98533C5.81012 5.94894 5.84396 5.91339 5.87867 5.87867C5.91339 5.84396 5.94894 5.81012 5.98533 5.77714C6.0217 5.74417 6.05886 5.71211 6.09681 5.68097C6.13477 5.64982 6.17347 5.61963 6.21291 5.59037C6.25233 5.56112 6.29246 5.53286 6.33328 5.50559C6.3741 5.47831 6.41557 5.45205 6.45769 5.42681C6.4998 5.40157 6.54251 5.37738 6.58581 5.35423C6.62911 5.33109 6.67295 5.30902 6.71733 5.28803C6.76172 5.26704 6.80659 5.24715 6.85195 5.22836C6.89731 5.20957 6.94309 5.19191 6.98933 5.17537C7.03556 5.15883 7.08216 5.14343 7.12914 5.12917C7.17613 5.11492 7.22344 5.10183 7.27106 5.08991C7.31869 5.07798 7.36658 5.06722 7.41473 5.05764C7.46287 5.04807 7.51123 5.03968 7.55981 5.03247C7.60838 5.02527 7.65709 5.01927 7.70595 5.01445C7.75481 5.00964 7.80375 5.00603 7.8528 5.00361C7.90184 5.0012 7.95091 5 8 5C8.04909 5 8.09816 5.0012 8.1472 5.00361C8.19625 5.00603 8.24519 5.00964 8.29405 5.01445C8.34291 5.01927 8.39162 5.02527 8.44019 5.03247C8.48875 5.03968 8.53711 5.04807 8.58527 5.05764C8.63342 5.06722 8.68131 5.07798 8.72894 5.08991C8.77656 5.10183 8.82388 5.11492 8.87086 5.12917C8.91784 5.14343 8.96444 5.15883 9.01067 5.17537C9.05691 5.19191 9.10269 5.20957 9.14805 5.22836C9.19341 5.24715 9.23828 5.26704 9.28266 5.28803C9.32705 5.30902 9.37089 5.33109 9.41419 5.35423C9.45748 5.37738 9.5002 5.40157 9.54231 5.42681C9.58442 5.45205 9.62588 5.47831 9.6667 5.50559C9.70753 5.53286 9.74766 5.56112 9.78709 5.59037C9.82653 5.61963 9.86522 5.64982 9.90317 5.68097C9.94112 5.71211 9.9783 5.74417 10.0147 5.77714C10.0511 5.81012 10.0866 5.84396 10.1213 5.87867C10.156 5.91339 10.1899 5.94894 10.2229 5.98533C10.2558 6.0217 10.2879 6.05886 10.319 6.09681C10.3502 6.13477 10.3804 6.17347 10.4096 6.21291C10.4389 6.25233 10.4671 6.29246 10.4944 6.33328C10.5217 6.3741 10.548 6.41557 10.5732 6.45769C10.5984 6.4998 10.6226 6.54251 10.6458 6.58581C10.6689 6.62911 10.691 6.67295 10.712 6.71733C10.733 6.76172 10.7528 6.80659 10.7716 6.85195C10.7904 6.89731 10.8081 6.94309 10.8246 6.98933C10.8412 7.03556 10.8566 7.08216 10.8708 7.12914C10.8851 7.17613 10.8982 7.22344 10.9101 7.27106C10.922 7.31869 10.9328 7.36658 10.9424 7.41473C10.9519 7.46287 10.9603 7.51123 10.9675 7.55981C10.9747 7.60838 10.9807 7.65709 10.9855 7.70595C10.9904 7.75481 10.994 7.80375 10.9964 7.8528C10.9988 7.90184 11 7.95091 11 8C11 8.04909 10.9988 8.09816 10.9964 8.1472C10.994 8.19625 10.9904 8.24519 10.9855 8.29405C10.9807 8.34291 10.9747 8.39162 10.9675 8.44019C10.9603 8.48875 10.9519 8.53711 10.9424 8.58527C10.9328 8.63342 10.922 8.68131 10.9101 8.72894C10.8982 8.77656 10.8851 8.82388 10.8708 8.87086C10.8566 8.91784 10.8412 8.96444 10.8246 9.01067C10.8081 9.05691 10.7904 9.10269 10.7716 9.14805C10.7528 9.19341 10.733 9.23828 10.712 9.28266C10.691 9.32705 10.6689 9.37089 10.6458 9.41419C10.6226 9.45748 10.5984 9.5002 10.5732 9.54231C10.548 9.58442 10.5217 9.62588 10.4944 9.6667C10.4671 9.70753 10.4389 9.74766 10.4096 9.78709C10.3804 9.82653 10.3502 9.86522 10.319 9.90317C10.2879 9.94112 10.2558 9.9783 10.2229 10.0147C10.1899 10.0511 10.156 10.0866 10.1213 10.1213C10.0866 10.156 10.0511 10.1899 10.0147 10.2229C9.9783 10.2558 9.94112 10.2879 9.90317 10.319C9.86522 10.3502 9.82653 10.3804 9.78709 10.4096C9.74766 10.4389 9.70753 10.4671 9.6667 10.4944C9.62588 10.5217 9.58442 10.548 9.54231 10.5732C9.5002 10.5984 9.45748 10.6226 9.41419 10.6458C9.37089 10.6689 9.32705 10.691 9.28266 10.712C9.23828 10.733 9.19341 10.7528 9.14805 10.7716C9.10269 10.7904 9.05691 10.8081 9.01067 10.8246C8.96444 10.8412 8.91784 10.8566 8.87086 10.8708C8.82388 10.8851 8.77656 10.8982 8.72894 10.9101C8.68131 10.922 8.63342 10.9328 8.58527 10.9424C8.53711 10.9519 8.48875 10.9603 8.44019 10.9675C8.39162 10.9747 8.34291 10.9807 8.29405 10.9855C8.24519 10.9904 8.19625 10.994 8.1472 10.9964C8.09816 10.9988 8.04909 11 8 11ZM8 10C8.03273 10 8.06544 9.9992 8.09814 9.99759C8.13083 9.99599 8.16345 9.99358 8.19603 9.99038C8.22861 9.98717 8.26108 9.98316 8.29345 9.97836C8.32584 9.97356 8.35808 9.96797 8.39017 9.96158C8.42228 9.95519 8.4542 9.94802 8.48595 9.94006C8.5177 9.93211 8.54923 9.92338 8.58056 9.91388C8.61189 9.90438 8.64295 9.89411 8.67378 9.88309C8.70459 9.87206 8.73512 9.86028 8.76536 9.84776C8.79559 9.83523 8.82552 9.82197 8.85511 9.80798C8.8847 9.79398 8.91394 9.77927 8.9428 9.76384C8.97166 9.74842 9.00012 9.73228 9.0282 9.71545C9.05628 9.69863 9.08392 9.68113 9.11114 9.66294C9.13836 9.64475 9.16511 9.62591 9.19139 9.60642C9.21769 9.58692 9.24348 9.56678 9.26878 9.54602C9.29408 9.52525 9.31886 9.50389 9.34312 9.48191C9.36737 9.45992 9.39108 9.43736 9.41422 9.41422C9.43736 9.39108 9.45992 9.36737 9.48191 9.34312C9.50389 9.31886 9.52525 9.29408 9.54602 9.26878C9.56678 9.24348 9.58692 9.21769 9.60642 9.19139C9.62591 9.16511 9.64475 9.13836 9.66294 9.11114C9.68113 9.08392 9.69863 9.05628 9.71545 9.0282C9.73228 9.00012 9.74842 8.97166 9.76384 8.9428C9.77927 8.91394 9.79398 8.8847 9.80798 8.85511C9.82197 8.82552 9.83523 8.79559 9.84776 8.76536C9.86028 8.73512 9.87206 8.70459 9.88309 8.67378C9.89411 8.64295 9.90438 8.61189 9.91388 8.58056C9.92339 8.54923 9.93211 8.5177 9.94006 8.48595C9.94802 8.4542 9.95519 8.42228 9.96158 8.39017C9.96797 8.35808 9.97356 8.32584 9.97836 8.29345C9.98316 8.26108 9.98717 8.22861 9.99038 8.19603C9.99358 8.16345 9.99599 8.13083 9.99759 8.09814C9.9992 8.06544 10 8.03273 10 8C10 7.96727 9.9992 7.93456 9.99759 7.90186C9.99599 7.86917 9.99358 7.83655 9.99038 7.80397C9.98717 7.77139 9.98316 7.73892 9.97836 7.70653C9.97356 7.67416 9.96797 7.64192 9.96158 7.60981C9.95519 7.57772 9.94802 7.5458 9.94006 7.51405C9.93211 7.48228 9.92338 7.45075 9.91388 7.41944C9.90438 7.38811 9.89411 7.35705 9.88309 7.32622C9.87206 7.29541 9.86028 7.26487 9.84776 7.23462C9.83523 7.20439 9.82197 7.17447 9.80798 7.14489C9.79398 7.1153 9.77927 7.08606 9.76384 7.0572C9.74842 7.02834 9.73228 6.99988 9.71545 6.9718C9.69863 6.94372 9.68113 6.91608 9.66294 6.88886C9.64475 6.86164 9.62591 6.83489 9.60642 6.80859C9.58692 6.78231 9.56678 6.75652 9.54602 6.73122C9.52525 6.70592 9.50389 6.68114 9.48191 6.65688C9.45992 6.63263 9.43736 6.60892 9.41422 6.58578C9.39108 6.56264 9.36737 6.54007 9.34312 6.51809C9.31886 6.49611 9.29408 6.47475 9.26878 6.45398C9.24348 6.43321 9.21769 6.41308 9.19139 6.39358C9.16511 6.37409 9.13836 6.35525 9.11114 6.33706C9.08392 6.31887 9.05628 6.30137 9.0282 6.28455C9.00012 6.26771 8.97166 6.25158 8.9428 6.23616C8.91394 6.22073 8.8847 6.20602 8.85511 6.19202C8.82552 6.17803 8.79559 6.16477 8.76536 6.15223C8.73512 6.13971 8.70459 6.12794 8.67378 6.11691C8.64295 6.10589 8.61189 6.09562 8.58056 6.08612C8.54923 6.07661 8.5177 6.06789 8.48595 6.05994C8.4542 6.05199 8.42228 6.04482 8.39017 6.03842C8.35808 6.03204 8.32584 6.02644 8.29345 6.02164C8.26108 6.01684 8.22861 6.01283 8.19603 6.00962C8.16345 6.00642 8.13083 6.00401 8.09814 6.00241C8.06544 6.0008 8.03273 6 8 6C7.96727 6 7.93456 6.0008 7.90186 6.00241C7.86917 6.00401 7.83655 6.00642 7.80397 6.00962C7.77139 6.01283 7.73892 6.01684 7.70653 6.02164C7.67416 6.02644 7.64192 6.03204 7.60981 6.03842C7.57772 6.04482 7.5458 6.05199 7.51405 6.05994C7.48228 6.06789 7.45075 6.07661 7.41944 6.08612C7.38811 6.09562 7.35705 6.10589 7.32622 6.11691C7.29541 6.12794 7.26487 6.13971 7.23462 6.15223C7.20439 6.16477 7.17447 6.17803 7.14489 6.19202C7.1153 6.20602 7.08606 6.22073 7.0572 6.23616C7.02834 6.25158 6.99988 6.26771 6.9718 6.28455C6.94372 6.30137 6.91608 6.31887 6.88886 6.33706C6.86164 6.35525 6.83489 6.37409 6.80859 6.39358C6.78231 6.41308 6.75652 6.43321 6.73122 6.45398C6.70592 6.47475 6.68114 6.49611 6.65688 6.51809C6.63263 6.54007 6.60892 6.56264 6.58578 6.58578C6.56264 6.60892 6.54007 6.63263 6.51809 6.65688C6.49611 6.68114 6.47475 6.70592 6.45398 6.73122C6.43321 6.75652 6.41308 6.78231 6.39358 6.80859C6.37409 6.83489 6.35525 6.86164 6.33706 6.88886C6.31887 6.91608 6.30137 6.94372 6.28455 6.9718C6.26771 6.99988 6.25158 7.02834 6.23616 7.0572C6.22073 7.08606 6.20602 7.1153 6.19202 7.14489C6.17803 7.17447 6.16477 7.20439 6.15223 7.23462C6.13971 7.26487 6.12794 7.29541 6.11691 7.32622C6.10589 7.35705 6.09562 7.38811 6.08612 7.41944C6.07661 7.45075 6.06789 7.48228 6.05994 7.51405C6.05198 7.5458 6.04481 7.57772 6.03842 7.60981C6.03204 7.64192 6.02644 7.67416 6.02164 7.70653C6.01684 7.73892 6.01283 7.77139 6.00962 7.80397C6.00642 7.83655 6.00401 7.86917 6.00241 7.90186C6.0008 7.93456 6 7.96727 6 8C6 8.03273 6.0008 8.06544 6.00241 8.09814C6.00401 8.13083 6.00642 8.16345 6.00962 8.19603C6.01283 8.22861 6.01684 8.26108 6.02164 8.29345C6.02644 8.32584 6.03204 8.35808 6.03842 8.39017C6.04481 8.42228 6.05198 8.4542 6.05994 8.48595C6.06789 8.5177 6.07661 8.54923 6.08612 8.58056C6.09562 8.61189 6.10589 8.64295 6.11691 8.67378C6.12794 8.70459 6.13971 8.73512 6.15223 8.76536C6.16477 8.79559 6.17803 8.82552 6.19202 8.85511C6.20602 8.8847 6.22073 8.91394 6.23616 8.9428C6.25158 8.97166 6.26771 9.00012 6.28455 9.0282C6.30137 9.05628 6.31887 9.08392 6.33706 9.11114C6.35525 9.13836 6.37409 9.16511 6.39358 9.19139C6.41308 9.21769 6.43321 9.24348 6.45398 9.26878C6.47475 9.29408 6.49611 9.31886 6.51809 9.34312C6.54007 9.36737 6.56264 9.39108 6.58578 9.41422C6.60892 9.43736 6.63263 9.45992 6.65688 9.48191C6.68114 9.50389 6.70592 9.52525 6.73122 9.54602C6.75652 9.56678 6.78231 9.58692 6.80859 9.60642C6.83489 9.62591 6.86164 9.64475 6.88886 9.66294C6.91608 9.68113 6.94372 9.69863 6.9718 9.71545C6.99988 9.73228 7.02834 9.74842 7.0572 9.76384C7.08606 9.77927 7.1153 9.79398 7.14489 9.80798C7.17447 9.82197 7.20439 9.83523 7.23462 9.84776C7.26487 9.86028 7.29541 9.87206 7.32622 9.88309C7.35705 9.89411 7.38811 9.90438 7.41944 9.91388C7.45075 9.92339 7.48228 9.93211 7.51405 9.94006C7.5458 9.94802 7.57772 9.95519 7.60981 9.96158C7.64192 9.96797 7.67416 9.97356 7.70653 9.97836C7.73892 9.98316 7.77139 9.98717 7.80397 9.99038C7.83655 9.99358 7.86917 9.99599 7.90186 9.99759C7.93456 9.9992 7.96727 10 8 10Z" >
</path>
</svg>
