<svg xmlns="http://www.w3.org/2000/svg" xmlns:xlink="http://www.w3.org/1999/xlink" fill="none" version="1.1" width="16" height="16" viewBox="0 0 16 16"><defs><clipPath id="master_svg0_22_2446"><rect x="0" y="0" width="16" height="16" rx="0"/></clipPath></defs><g clip-path="url(#master_svg0_22_2446)"><g><path d="M13.3531,4.50938L9.99063,1.146875C9.89688,1.053125,9.77031,1,9.6375,1L3,1C2.723438,1,2.5,1.223438,2.5,1.5L2.5,14.5C2.5,14.7766,2.723438,15,3,15L13,15C13.2766,15,13.5,14.7766,13.5,14.5L13.5,4.86406C13.5,4.73125,13.4469,4.6031200000000005,13.3531,4.50938ZM12.34688,5.09375L9.40625,5.09375L9.40625,2.15313L12.34688,5.09375ZM12.375,13.875L3.625,13.875L3.625,2.125L8.34375,2.125L8.34375,5.5C8.34375,5.8625,8.6375,6.15625,9,6.15625L12.375,6.15625L12.375,13.875ZM8.25156,7.375L7.74844,7.375C7.6625,7.375,7.5875,7.43281,7.56719,7.51719L6.79063,10.625L6.07031,7.52031C6.05,7.43594,5.975,7.375,5.8875,7.375L5.33437,7.375C5.31719,7.375,5.30156,7.37656,5.28594,7.38125C5.18594,7.40781,5.12656,7.51094,5.1531199999999995,7.61094L6.3125,11.9234C6.33437,12.0047,6.4093800000000005,12.0625,6.49375,12.0625L6.99375,12.0625C7.07812,12.0625,7.15313,12.0063,7.175,11.9234L8,8.84531L8.825,11.9234C8.846879999999999,12.0047,8.92188,12.0625,9.00625,12.0625L9.50312,12.0625C9.5875,12.0625,9.6625,12.0063,9.684370000000001,11.9234L10.84687,7.61094C10.85156,7.59531,10.85312,7.57812,10.85312,7.5625C10.85312,7.45937,10.76875,7.375,10.66562,7.375L10.10938,7.375C10.02188,7.375,9.94687,7.43594,9.92656,7.52031L9.21094,10.63125L8.43281,7.51719C8.4125,7.43281,8.3375,7.375,8.25156,7.375Z" fill="#3D3D3D" fill-opacity="1" style="mix-blend-mode:passthrough"/></g></g></svg>