<?xml version="1.0" encoding="utf-8"?>
<!-- Generator: Adobe Illustrator 27.6.1, SVG Export Plug-In . SVG Version: 6.00 Build 0)  -->
<svg version="1.1" id="图层_1" xmlns="http://www.w3.org/2000/svg" xmlns:xlink="http://www.w3.org/1999/xlink" x="0px" y="0px"
	 viewBox="0 0 458 176" style="enable-background:new 0 0 458 176;" xml:space="preserve">
<style type="text/css">
	.st0{fill:#edf3f3;}
</style>
<g id="页面-1">
	<path id="logo" class="st0" d="M125,15c3.3,0,6,2.7,6,6c0,3.2-2.6,5.9-5.8,6l-0.2,0H72v142.5c0,3.3-2.7,6-6,6
		c-3.2,0-5.9-2.6-6-5.8l0-0.2V27H6.5c-3.3,0-6-2.7-6-6c0-3.2,2.6-5.9,5.8-6l0.2,0H125z M201,15c27.6,0,52.7,14.2,67,37.1
		c0.7,0.5,1.2,1.2,1.6,2.1c1.4,2.9,0.2,6.3-2.6,7.7l-0.2,0.1l-127.1,59.7c10.6,23.3,34,39.5,61.3,39.5c24.7,0,47.1-13.5,58.9-34.7
		c1.6-2.8,5.2-3.9,8-2.3c2.8,1.6,3.9,5.2,2.3,8c-13.8,25-40.1,40.8-69.2,40.8c-43.6,0-79-35.4-79-79S157.4,15,201,15z M287.8,5.7
		c22.1,0,40.5,15.8,44.6,36.7c7.7-3.1,16.2-4.8,25-4.8c14,0,26.9,4.2,37.7,11.5c3.5-13.8,16-24.1,30.9-24.1
		C443.7,25,458,39.3,458,57c0,5.7-1.5,11.1-4.3,16l-0.1,0.2l-0.2,0.2l-0.2,0.2l-0.2,0.3l-0.2,0.3l-0.3,0.4l-0.4,0.4l-0.4,0.5
		l-0.5,0.5l-0.5,0.5l-0.6,0.6l-0.6,0.6l-0.9,0.8l-0.7,0.7l-1,0.9l-1.1,1l-1.2,1l-1.6,1.4l-1.7,1.4l-1.1,0.9l-1.9,1.6l-2.1,1.7
		l-2.6,2.1l-2.8,2.3l-2.5,2l-3.6,2.9c0.2,2.3,0.4,4.7,0.4,7v61.9c0,3.2-2.6,5.8-5.8,5.8c-3.1,0-5.7-2.5-5.8-5.6l0-0.2l0-24
		c-12.2,18-32.8,29.8-56.1,29.8c-5.1,0-10-0.6-14.9-1.6c-3.1-0.7-5.1-3.8-4.4-6.9c0.7-3.1,3.8-5.1,6.9-4.4c4,0.9,8.2,1.4,12.3,1.4
		c31,0,56.1-25.1,56.1-56.1s-25.1-56.1-56.1-56.1c-9.8,0-19.1,2.5-27.1,7c0,0-0.1,0-0.1,0.1l-0.1,0.1c-17.2,9.6-28.8,27.9-28.8,49
		c0,10,2.6,19.7,7.6,28.2c1.6,2.8,0.7,6.3-2.1,7.9c-2.8,1.6-6.3,0.7-7.9-2.1c-6-10.2-9.1-21.9-9.1-34c0-20.2,8.9-38.4,23-50.8
		c-17.9-6.1-30.7-23.1-30.7-43C282,8.3,284.6,5.7,287.8,5.7z M201,26.8c-37.1,0-67.2,30.1-67.2,67.2c0,5.7,0.7,11.3,2.1,16.6
		l119.5-56.2C242.8,37.3,222.8,26.8,201,26.8z M426.1,36.6c-11.1,0-21.1,8.2-21.3,19.3V57l0,0c8,7.8,14,17.6,17.4,28.5l0.2-0.2
		l2.7-2.2l2.1-1.7l1.9-1.6l2.3-1.9l0.9-0.7l1.6-1.4l1.9-1.6l1.1-1l1.2-1l0.7-0.6l1-0.9l0.6-0.6l0.8-0.8l0.5-0.5l0.5-0.4l0.4-0.4
		l0.4-0.4l0.3-0.3l0.2-0.3l0.2-0.2l0.1-0.1l0.2-0.3c1.6-3,2.5-6.3,2.5-9.7C446.4,45.7,437.3,36.6,426.1,36.6z M294.2,17.9l0,0.1
		c2.6,13.5,13.3,24.1,26.8,26.7C318.4,31.2,307.8,20.5,294.2,17.9z"/>
</g>
</svg>
